<svg version="1.1" 
xmlns="http://www.w3.org/2000/svg" xmlns:xlink="http://www.w3.org/1999/xlink"
style="display: none">
<symbol id="korf" viewBox="0 0 297 74">
	<g>
		<path d="M80.7 72.2c-6.9-3.4-7.5-5.4-8-24L72 31.5l-35-11-35-11L1 5C.2 2.6 0 .4.1.2.4-.1 66.6 16 85.8 21.1l3.7 1-2.4 3.6c-2.4 3.5-2.5 4.1-2.5 21.7 0 16.3.2 18.4 2 21.4 1 1.7 2.4 3.2 3 3.2.6 0 1 .5 1 1 0 1.6-6.2 1.1-10-.8zM208 71.1c3.9-4 4.2-6.5 3.6-26.5-.5-16.6-.6-17.6-2.8-20l-2.4-2.5 3.9-1C220 18.5 295.6 0 296.4 0c.6 0 .5 1.9-.2 4.7L295 9.4l-7.4 2.4L252 22.9l-28 8.8-.5 17c-.4 14-.8 17.2-2.3 19.5-2 3-8.2 5.8-12.9 5.8h-3.2zm-75.9-5c-4.4-1.1-7-2.7-9.8-6-8.4-10 0-25.1 14.2-25.1 10.4 0 18 7.8 16.9 17.5-1.1 9.8-11 16.1-21.3 13.6zm8.5-11.1c2.7-2.7 2.5-5.6-.5-8.6-5.5-5.5-12.5 1.9-8 8.4 2 2.8 5.9 2.9 8.5.2zm-48-4V36h12v9.5l3.1-4.7 3.1-4.8h12.8l-5 7-5 7 5 7.4c2.7 4 5 7.5 5 8 0 .3-2.9.6-6.4.6h-6.5l-2.8-5-2.8-5-.5 4.7-.5 4.8-5.7.3-5.8.3zm62.7 14.3c-.4-.3-.7-7-.7-15V36h10c12 0 14.6.9 16.6 5.6 1.8 4.4 1.2 7.9-2 10.7l-2.3 2 3.1 5 3.1 5 .3-14.1.3-14.2h20.9v8h-4.5c-3.8 0-4.5.3-4.5 2s.7 2 4 2c4 0 4 0 4 4s0 4-4 4h-3.9l-.3 4.8-.3 4.7-12 .3-12 .3-2.2-4.3-2.2-4.3V66h-5.4c-3 0-5.7-.3-6-.7zm15.3-18.8c0-1.8-.5-2.5-2-2.5s-2 .7-2 2.5.5 2.5 2 2.5 2-.7 2-2.5zM40.1 49.7c-21.3-6.8-29-9.6-29.3-10.9-.2-1.3 4.8 0 25 6.4 34.5 11 35.1 11.1 35.6 12.6.2.6-.2 1.2-1 1.2-.7 0-14.3-4.2-30.3-9.3zm185.5 7.8c0-.8 1.6-1.9 3.8-2.5 2-.5 15.6-4.8 30.2-9.3 23.2-7.4 29.6-8.7 26.4-5.7-.8.7-58.4 19-59.9 19-.3 0-.5-.7-.5-1.5zM39.6 44C16 36.4 9 33.9 8.8 32.5c-.3-1.4 0-1.6 1.5-1L41 41.1c16 5 29.4 9.5 30 10 3.6 3.2-4.8 1.3-31.5-7.2zm186 8c0-.5.4-1 .8-1.4a1289 1289 0 0162.1-19c1.5 1.4-5.2 4-31.4 12.3-16 5-29.6 9.1-30.3 9.1-.6 0-1.2-.4-1.2-1zM39.1 38.5C12.2 29.8 5.2 27 6.7 25.6c.5-.5 61.8 18.6 63.8 19.9 1.5.9 1.4 2.5-.1 2.5-.7 0-14.8-4.4-31.3-9.6zm186.5 8.2c0-.8 3.3-2.4 8.8-4.1 50.3-15.8 55.3-17.3 55-15.7-.2 1.1-4.4 3-13.8 5.8A8178.4 8178.4 0 00226.2 48c-.3 0-.6-.6-.6-1.4zm-187.5-14c-23.6-7.5-32-10.5-32.3-11.8-.2-1.3 3.2-.5 18 4.2l33 10.4c13.5 4.3 16.2 5.6 14 7-.4.2-15-4.2-32.7-9.8zm187.7 8.8c.3-1.7 4.3-3.1 48.6-16.8 13.9-4.3 17.3-5 17-3.8-.2 1.2-8.8 4.3-30.8 11.2l-32.8 10.4c-2 .6-2.3.5-2-1zM36 26.6C12.8 19.2 4.1 16 3.8 14.8c-.2-1.3 4-.3 20.5 5 39.4 12.3 46.7 14.7 47 16 .3.7-.3 1.2-1.4 1.1-1 0-16.2-4.7-33.8-10.3zm189.5 9c0-.8 11.3-4.8 32.8-11.5 18-5.6 33.3-10.1 34-10.1 2.9 0-.3 2.8-5 4.2l-32.8 10.2c-15.2 4.7-27.9 8.6-28.3 8.6-.4 0-.7-.6-.7-1.3z"/>
	</g>
</symbol>
<symbol id="daikin" viewBox="0 0 2842 694">
	<g>
		<g>
			<path d="M395.9 662.8c12.3 0 14.5 1.8 27 21.8l5.8 9.2h5.5c3 0 5.5-.2 5.5-.5 0-.5-15.5-24-17-25.8-.7-.8-2.4-2.3-3.8-3.4l-2.6-2 4-1c9.4-2.8 14.7-9.5 14.7-18.5 0-9.3-5.5-16.3-14-18.1-2.7-.6-13.3-1-23.5-1h-18.8v70.2l4.5.2 4.5.3.2-15.7.3-15.7h7.7zm-7.8-19.7v-11.4l14.8.4c16.5.4 18.8 1 21.2 6 2 4 2 6.2 0 9.8-2.6 5.1-7.3 6.4-22.6 6.5H388V643zm241.1 48.8c2.3-1.1 5.6-3.5 7.5-5.4 3.7-3.5 9-14 7.7-15.2-.4-.4-2.6-1.1-4.7-1.7l-4-1-1.5 4.3c-7.2 18.7-34.3 17.1-40-2.3a55.4 55.4 0 01.4-25.2c6-17.4 30.1-19.6 37.8-3.5 1.4 3.1 1.6 3.2 5.4 2.6a14 14 0 004.7-1.4c1.3-1.2-2.6-8.7-6.4-12.6-5.7-5.7-10.8-7.5-20.6-7.5-7.4 0-9.2.3-14.4 2.7-7.1 3.3-12.4 9-15.2 16.2a50.8 50.8 0 001.5 36c6.2 12.3 14.9 17 29.7 16.5 6-.3 9.1-1 12.1-2.5zm210-.6c13.1-6.2 19.5-18.4 18.4-35.4a33.4 33.4 0 00-10-24 24 24 0 00-12.1-7.5c-18-5.7-36 2.1-42.5 18.6-3 7.7-3 23.6 0 31.2 5.3 13.4 17.2 20.8 32.5 20.2 6-.2 8.7-.8 13.6-3.1zm-23-6.2c-5.9-1.5-13.2-9.4-15.2-16.2a46 46 0 01.6-22.8c1.4-4.6 6-9.6 11.5-12.6 5.5-2.9 16.4-2.9 21.7 0 8 4.3 12.5 12 13.4 23 .7 10-1.5 16.6-7.6 22.7-6.6 6.6-14.5 8.5-24.5 5.9zm614.4-26v-35.6h-9.4v70.2l4.5.3 4.7.5c.1.1.2-15.8.2-35.4zm191.8-27.2h11.7v-8.4h-56.2v8.3l11.4.3 11.5.3.2 30.6.3 30.7 4.4.2 4.5.3.2-31.1.2-31.2zm366 59.4c9.7-4.5 14-10 17.4-21.4a50 50 0 00-1.3-26.8c-6.3-16.6-25.1-24.7-43.3-18.5-8 2.7-15.6 10-18.7 18a47.6 47.6 0 00-1 28.5 31.2 31.2 0 0010 15.8c7.7 6 13.4 7.9 23.4 7.5 6-.2 8.7-.8 13.6-3.1zm-23.9-6.6a27 27 0 01-14-15.8 40 40 0 011.8-25.4 23 23 0 0122.6-12.3c9.6.8 16.2 5.4 20.3 14.3a45 45 0 011 24.6 26 26 0 01-12 13.6 28.6 28.6 0 01-19.7 1zm817.5 7c3.1-1.2 7.4-3.4 9.6-4.8l4-2.5V657.7l-15 .3-15 .2v8.3l10.1.3 10 .2.4 6.4.2 6.4-6.2 2.9c-15.2 7-32.3 2.4-38.2-10.5a41.8 41.8 0 01.1-26.7c4.3-9.3 10.5-13.5 21.2-14.3 8.8-.6 15 1.8 19.2 7.7 1.6 2.2 3 4.8 3 5.7 0 1.2.4 1.4 2 1a95 95 0 014.7-1.2c2.8-.6 2.8-1 .2-7.5-1.4-3.6-6.6-9-10.3-10.8a42 42 0 00-20-3.4c-20.4 1.2-33.3 16.9-31.8 38.7 1.2 16.7 9.8 27.8 25 32 6.8 2 20 1.1 26.8-1.7zM17 692.6c0-.7 1.6-5.5 3.5-10.8l3.5-9.6 15 .2 15 .3 3.9 10.3 4 10.3 5 .3 5.2.3-14.1-35.2-14.1-35.2H34l-3 7.7c-1.7 4.2-4 10-5.3 12.9-1.2 2.8-5 12.1-8.3 20.6L9 685.8c-3.3 7.9-3.3 8 2.7 8 3.5 0 5.2-.4 5.2-1.2zM30.5 655c1.7-4.8 4.4-11.8 5.9-15.6l2.7-6.9 2.9 7.9a7155 7155 0 005.7 15.5l3 7.8H27.2zm195.4 3.5v-35.1h-9.3V693.8h9.3zm789.6 8.3l.3-26.9 7.5 11.2 18.1 26.9 10.6 15.7h10.2V623.5h-9.4l-.2 26.8-.3 26.8-6-8.8-18-26.8-12.2-18H1006V693.8h9.4zm239.6 24.1c10-4.4 16-14.7 16.8-28.8 1-13.6-2.4-24.4-9.7-31.4-6.4-6.2-8.8-6.8-30-7.2l-19-.3v70.6l18.4-.3c17-.3 19-.5 23.5-2.6zm-32.4-32.2l.3-26.4h11.7c13.7 0 15.7.4 20.3 4.4 4.7 4.1 7 9.8 7.6 18.6.8 11.6-2.7 22-8.8 26.1-4.2 2.9-9 3.7-21.2 3.8h-10.1l.2-26.5zm567-.2v-35.1h-9.4V693.8h9.4zm375.2 8.2l.3-27 3.8 5.7 18 27 14.3 21.3h10.3V623.5h-9.4l-.2 26.8-.3 26.9-17.9-26.6-18-26.7-5.2-.3-5.3-.2v70.4h9.4zm208-8.2v-35.1h-9.5V693.8h9.4zm162.3 8.2l.3-26.9 11.2 16.9 18.2 26.9 6.8 10h10.1v-70.2h-9.3l-.2 27-.3 26.9-13.2-19.7-18-27-5-7.2h-10.2V693.8h9.4zM3.5 576.8A651.1 651.1 0 0024 558a1915.7 1915.7 0 0134.2-32l15-14c6-5.4 14.8-13.7 19.7-18.4 4.9-4.7 11.6-11 15-14a1425.5 1425.5 0 0028-26.3 4812.9 4812.9 0 0039.5-37 11601.6 11601.6 0 0073.1-68.4l13.7-12.6a1705.5 1705.5 0 0129-27.2l15.5-14.5a4252.2 4252.2 0 0034.2-32 1528 1528 0 0027.6-25.8l24.9-23.3a2222.2 2222.2 0 0129.1-27.2 5544 5544 0 0158-54.4l11-10.2a2363 2363 0 0131.2-29.2L539.1 76a2031.8 2031.8 0 0035-33c3.2-2.7 7.4-6.7 9.6-8.8l25-23.4c5-4.6 9.1-9 9.1-9.6C617.8.2 556.4 0 309 0H0v289.7C0 449 .2 579.4.4 579.4s1.6-1.2 3.1-2.6zm830.7-101a164 164 0 0030-7c10-3.3 28.8-11 30.5-12.6a341.5 341.5 0 0041.4-24.9c9.3-6.2 14.7-10.5 24.8-19.6 1.7-1.6 3.5-3 4-3a45.6 45.6 0 017.7-9.4c8.6-9 17.8-22.7 24.4-36.6 4.5-9.6 6-13.8 11.3-30.7 8.3-27.3 6.8-89.2-2.8-114.8a116.7 116.7 0 00-17.6-29.7l-7.7-8.7c-2.1-2.4-4.2-4.4-4.6-4.4a33 33 0 01-6-4.9 178 178 0 00-71.5-36c-19.5-4.7-16.8-4.6-145.3-4.6H632.3l-4 2.1c-4.8 2.7-6 5-9 17.3a6726.8 6726.8 0 01-17.2 70.6 52.3 52.3 0 01-3.5 11.8c.4.7-2.1 11.7-10 42.6l-2.3 9.4a1358.4 1358.4 0 01-7.4 29.8 2604 2604 0 01-11.2 46.1c-1.4 5.7-3 12.4-3.8 15l-3.7 15.5c-1.3 6-2.8 12-3.3 13.6-.5 1.5-2.2 8.5-3.8 15.4l-4.2 17.4c-2.8 9.7-8 32.1-8 34.3 0 3 2.4 6.2 5 6.7 1.1.3 64.4.5 140.6.6 117.8 0 139.9-.1 147.7-1.3zm-118.5-84.3c-1.4-2.2-1.4-2.7 0-6.8.8-2.5 3.8-13.6 6.7-24.7a5328 5328 0 0119.8-75 24010.7 24010.7 0 0113.4-51c3.2-12.5 4.6-15.2 8.2-16.6 1.6-.6 14.1-.8 33-.6l30.5.2 5.6 2.8c5.1 2.5 13 9.4 17.9 15.5 12.5 15.8 16.9 40 11.3 61.9a164.4 164.4 0 01-7 21.6 247.1 247.1 0 01-14.1 28.6c-13.4 22-29.4 37.5-45 43.8-5 2-6.3 2-42 2.4l-36.7.3zM1410 472c4.7-3.3 6-11.6 3.4-21.7-.7-3-2-9-2.7-13.3l-9-47.8a2831 2831 0 01-10-52l-14.3-75a19981.3 19981.3 0 00-19.7-103.2c-3.7-20-4.3-22.3-7.6-26-4.7-5.4-3.6-5.4-92.4-5.4-88.4 0-85-.2-90 5.4a77.3 77.3 0 00-6.5 10.6c-4.8 9-7.3 13.5-11 19.8-1.4 2.4-4 7-5.7 10.3-1.7 3.3-4.2 7.7-5.6 10a591.7 591.7 0 01-18.6 33.3 40.3 40.3 0 00-2.7 4.8c0 .3-1.9 3.7-4.2 7.6l-4.2 7.5-3.2 5.7-6.9 12.5c-2 3.9-6.6 12.1-10.1 18.3a4031.6 4031.6 0 00-36.5 65.6c-2.5 4.7-6.7 12-9.1 16.2-2.5 4.3-4.5 8-4.5 8.4a96.3 96.3 0 00-6.8 11.5 796.1 796.1 0 01-16.4 29.5l-3 5.7a1262.8 1262.8 0 00-24.7 44.4c-3.2 6.2-3.4 11.9-.6 15.5l2 2.5 47.6-.3c44.7-.2 47.7-.4 49.5-2 1.7-1.5 7-10 14.4-22.6l9.6-16c6.2-10.2 7.2-11.3 10.5-12.3 5-1.5 121.1-1.7 124.5-.2 3.1 1.4 3.7 3.3 7.6 23.3 1.8 9.6 4 20.4 4.8 24.2l1.4 6.8h74.2c67.2 0 74.5-.2 76.5-1.6zM1172.2 324c.5-2 2.8-6 15.6-28.7a3646.1 3646.1 0 0028.3-50.5l1.6-2.2.5 2.2c1 4.5 6.2 32.6 10 53.8 1 6.2 2.6 14.3 3.4 18 .8 3.7 1.2 7.4.9 8.2-.5 1.3-4.2 1.5-30.7 1.5h-30.1zm431.1 147.8c1.4-1.5 4-10.6 10.2-34.4a19078.2 19078.2 0 0139.7-151.6 3478.8 3478.8 0 0113.2-50l9.4-35.6a1461.6 1461.6 0 0014-53.4c1.1-3.6 1.5-7.4 1.2-11.1-.3-5-.7-6-3.4-8.3l-3-2.7h-139.3l-3.4 3c-2.7 2.5-3.8 4.7-5.8 11.3l-3.3 12.2a1787 1787 0 00-9.4 35.9 5788.7 5788.7 0 01-22 83.9l-4.3 16.8c-1.6 6.4-3 12-3.2 12.2-.2.3-3 10.7-6.1 23a5427.6 5427.6 0 01-11 43.1A8119 8119 0 011458 437l-3.2 12.9c-.4 2.1-1.5 6.3-2.3 9.1-1.8 6.2-1.2 10 2.1 12.7 2.4 1.8 3.7 1.9 74.8 1.9 67.8 0 72.5-.2 73.8-1.7zm222.9-.5c2.3-1.1 4.2-6.3 10.8-29.7 3.3-11.6 13-44.3 18.3-61.6 2.4-7.7 3.2-9.4 4.2-8.5a1249.3 1249.3 0 0033.8 47.7 340.1 340.1 0 0013.4 19.1l9.8 14.2a130 130 0 0011.6 15.3c2.4 1.9 3.1 1.9 82.4 1.9 53.3 0 80.8-.3 82.7-1 5.1-1.8 5.6-6.2 1.6-14-1.5-3-8-13-10-15.5l-8.2-11.7-9.2-13c-2.5-3.3-7.3-10.2-12.3-17.5l-13-18.7-8.1-11.7a2046.3 2046.3 0 00-22.8-32.8c-5.2-6.7-7-9.3-11-15.7-2.6-4-5.1-7.7-5.7-8.2-1.8-1.7-8.8-13.1-9.9-16.3-1.1-3.3 0-6 4.3-10 6.7-6 10-9 16.4-14.4l7.5-6.6 12.2-10.9a3445.9 3445.9 0 0047.3-42.2c3.1-2.5 8.6-7.3 12.2-10.7a438.6 438.6 0 0118.8-16.3 1627.8 1627.8 0 0141-36.8c7.9-6.8 10-9.9 10-14.3 0-6 3.4-5.8-76-5.8h-71.8l-5.5 4.8a536 536 0 00-8 7 13 13 0 01-3 2.3c-.3 0-2 1.6-4 3.5-2 2-4.5 4.2-5.6 5a251 251 0 00-12 9.8 455.5 455.5 0 01-13.4 11.2l-11.6 9.9-15 12.6c-4.5 4-5.7 4.9-14 11.7-2.9 2.3-6.8 5.7-8.7 7.5a55 55 0 01-6.3 5c-3.6 2.3-3.6 2.3.3-14l4.5-18.8c.6-3.3 1.5-5.9 2-5.9.3 0 .7-1.3.7-2.9 0-1.6 1-6.8 2.2-11.5 7.3-28.3 7.5-31.5 2.7-35.8l-2.6-2.2H1838c-55.6 0-71.6.2-72.9 1-1 .9-4.2 11.7-10 34.5a12216 12216 0 01-22 87.2c-1.1 4.8-4 15.7-11 42.1a7088.1 7088.1 0 00-22.3 88.6c-5.7 21.8-11.5 44.6-14.5 56.8-1.7 7-4 15.7-5 19.3-2.8 9.2-2.7 12.1.7 15.5l2.7 2.7h70.2c53.7 0 70.6-.3 72.4-1.2zm469.6-3.8c2-1.9 4-6.6 6.7-17l3.3-12.2 8.5-32.8a13637.3 13637.3 0 0123.3-89.5 40008.3 40008.3 0 0127.3-105.5 2050 2050 0 0113.8-51.7c5.7-21.6 5.3-29.2-2-34.8l-3.4-2.6-67.3-.2c-74.3-.3-70.4-.6-75.1 5.6-2.3 3-3.8 7.4-6.8 20l-2.7 9.8-3.2 11.7a7171.5 7171.5 0 01-27.2 106c-1.7 6.1-5.7 22-9 35a1260.6 1260.6 0 01-10.4 39.4 12521 12521 0 00-25.2 98.2c-3 12.2-3 17.5 0 20.5l2.3 2.3 72.6-.2c69.1-.3 72.7-.3 74.5-2zm178.5-1c1.7-1.8 3.6-5 4.3-7.7a2413.6 2413.6 0 0013.4-48.6c1-3.6 2.9-10.4 4-15a1282.6 1282.6 0 019.6-35.2l4.2-15 2.7-9.8c.4-2 2.5-10.1 4.7-17.8l6.2-22.5c3-11.7 3-11.7 4.2-9.6.6 1 2.6 6.6 4.6 12.7l4.5 13.3c.6 1.3 2.3 6.3 3.8 11.2a1235.7 1235.7 0 0014 41.7l12.3 36.6c5.7 17 12.2 36.2 14.2 42.7a220 220 0 007.4 20.3c0 1.4 5.1 5 7.9 5.5 1.6.2 38.5.4 82 .2l79-.3 2.1-2.8c1.3-1.5 3-5.3 3.7-8.4a172912.1 172912.1 0 0028.3-112 24834.1 24834.1 0 0129-115.4c.9-3.8 2.2-8.9 2.9-11.2.7-2.3 2.3-9 3.7-15 1.4-6 3.4-13.5 4.3-16.9 1-3.3 2.4-8.8 3.2-12.2.7-3.3 2.8-11.8 4.6-18.7 5.1-19.5 4.5-31.7-1.8-34.6-1.7-.7-15.6-1-46.8-1H2746l-3.7 3.5c-2.5 2.4-4.1 5-5.2 8.6a3104 3104 0 00-15.4 56.8 1323.7 1323.7 0 01-12.7 47.3c-1.2 5-6.4 24.3-8.4 31.4l-5.7 21.6c-4.1 15.8-5.2 19.2-6 19.2-1 0-3.2-6.5-32-93.3a5740 5740 0 00-28-83c-2.3-5.3-5.8-9.4-9.1-10.8-2.6-1.1-16.5-1.3-80.6-1.3h-77.4l-3.6 2.3c-3.3 2-6.6 7.6-5.9 10 .3 1-2.1 11.1-4.9 20.5-2.1 7.6-8.4 31.3-15 57.6a5084 5084 0 01-14.2 54l-7.4 28.5a4731.7 4731.7 0 01-19.2 73.6c-11.1 42.7-16.8 64.3-20.3 76.9-3.3 12-2.8 18 2 22.3l3.2 3H2471.2z"/><path d="M383.2 694l-4.4-.3v-70.2h18.7c10.2 0 20.8.4 23.4 1 8.6 1.8 14 8.8 14 18.1.1 9-5.2 15.7-14.6 18.4l-4 1.2 2.6 2c1.4 1 3 2.5 3.7 3.3 1.6 1.9 17 25.3 17 25.8 0 .3-2.4.5-5.4.5h-5.5l-5.7-9.2c-12.6-20-14.8-21.8-27.1-21.8h-7.7l-.3 15.7-.2 15.7-4.5-.3zm35.6-41.4c4-1.8 6.8-5.8 6.8-9.4 0-3.2-3-8.2-5.5-9.5a68 68 0 00-17.2-1.6l-14.8-.4V654.4h13.4c11 0 14-.4 17.3-1.8zm186.4 40.9c-6-2-9.4-4-12.6-7.7a43 43 0 01-9.1-32c1.1-13.8 7-23.2 17.6-28 5.2-2.5 7-2.8 14.4-2.8 9.8 0 14.9 1.8 20.6 7.5 3.8 3.9 7.7 11.4 6.4 12.6-.4.5-2.5 1-4.7 1.4-3.8.6-4 .5-5.4-2.6-7.7-16-31.8-13.9-37.8 3.5-2 5.9-2.2 18.9-.3 25.2 5.6 19.4 32.7 21 39.9 2.3l1.6-4.2 3.9 1c2.1.5 4.3 1.2 4.7 1.6 1.3 1.2-4 11.7-7.7 15.2-5.7 5.6-10.4 7.5-19.6 7.9a38 38 0 01-12-1zm209 0a32.5 32.5 0 01-21.3-19.3c-3-7.6-3-23.5 0-31.2 6.6-16.5 24.6-24.3 42.6-18.6a24 24 0 0112 7.4 33.4 33.4 0 0110 24.1c1.5 22.5-11.1 37.7-32 38.5-4.5.2-9-.2-11.3-1zm17.2-8.3c6.5-1.7 13.5-9 15.6-16.3 3-10.4.4-24.1-5.9-30.8-4.6-4.8-9.3-6.6-17-6.6-8 0-12.8 1.9-18.1 7.4-3.7 3.8-5.4 8.6-6 17.8-.8 10 1.3 16.3 7.5 22.5 6.7 6.7 14 8.5 23.9 6zm594.3 8.8l-4.4-.3v-70.2h9.3V659c0 19.6 0 35.5-.2 35.4a41 41 0 00-4.7-.5zm180 0l-4.4-.3-.3-30.7-.2-30.6-11.5-.3-11.5-.3v-8.3h56.3v8.4h-23.5l-.2 31.2-.2 31.1-4.5-.3zm357.9-.5a31.7 31.7 0 01-22.1-22.4c-2.6-7.7-2.2-20 1-28.4 3.1-8.1 10.6-15.4 18.7-18.1 14-4.8 29-1.1 37.9 9.3 9.1 10.7 10.7 30.7 3.4 44.8-4.7 9.2-15.4 15.2-27.6 15.7-4.5.2-9-.2-11.3-1zm20.7-9.8A26 26 0 001996 670a45 45 0 00-1-24.6 22.7 22.7 0 00-20.2-14.3 23 23 0 00-22.6 12.3 40 40 0 00-1.9 25.4 27 27 0 0014.1 15.8c5 2.1 14.6 1.6 19.8-1zm771 9.8c-15.3-4.3-24-15.4-25-32.1-1.6-21.8 11.3-37.5 31.7-38.7 17.3-1 28 5.3 32.1 19.1.5 1.7.2 2.1-2 2.6a95 95 0 00-4.7 1.2c-1.6.4-2 .2-2-1 0-.9-1.4-3.5-3-5.7-4.3-5.9-10.4-8.3-19.2-7.7-10.7.8-17 5-21.2 14.3-3 6.4-3 20.3-.1 26.7 5.9 12.9 23 17.6 38.2 10.5l6.2-3-.2-6.3-.3-6.4-10.1-.2-10-.3v-8.3l15-.2 15-.3V684.4l-4 2.5a44 44 0 01-23.7 7.5c-5.1.2-10.2-.2-12.7-1zm-2748.7-1c0-.6 1-3.6 2.4-6.7l8.4-21.1A1111.2 1111.2 0 0131 631.2l3-7.7h9.8l14 35.2L72 693.9l-5.1-.3-5.2-.3-3.9-10.3-4-10.3-14.9-.3-15-.2-3.5 9.6c-2 5.3-3.5 10.1-3.5 10.8 0 .8-1.7 1.2-5.2 1.2s-5.1-.4-5.1-1.2zM47.7 656a7155 7155 0 01-5.7-15.5l-2.9-7.9-2.7 7-6 15.5-3.1 8.7H50.6l-2.9-7.8zm168.9 2.6v-35.1h9.3V693.8h-9.3v-35.2zm789.3 0v-35.1h10.2l12.2 18 18 26.8 6 8.8.3-26.8.2-26.8h9.4V693.8H1052l-10.6-15.7-18.1-26.9-7.5-11.2-.3 26.9-.2 26.9h-9.4v-35.2zm207.2 0v-35.3l19 .3c21.3.4 23.7 1 30 7.2 7.4 7 10.7 17.8 9.8 31.4-.9 14.1-6.9 24.4-16.8 28.8-4.5 2-6.4 2.3-23.5 2.6l-18.5.3v-35.3zm33.5 25.9c11-2.2 17-13.1 16-29.1-.6-8.8-3-14.5-7.6-18.6-4.6-4-6.6-4.4-20.3-4.4H1223l-.3 26.4-.2 26.5h10c5.6 0 12-.4 14.1-.8zm533.7-25.9v-35.1h9.4V693.8h-9.4v-35.2zm375 0v-35.2l5.3.2 5.3.3 17.9 26.7 18 26.6.2-26.9.2-26.8h9.4V693.8h-10.2l-14.4-21.4c-7.8-11.7-16-23.8-18-27l-3.8-5.5-.3 27-.2 26.9h-9.4v-35.2zm208.1 0v-35.1h9.4V693.8h-9.4v-35.2zm162.2 0v-35.1h10.2l5 7.2 18 27 13.2 19.7.3-27 .2-27h9.4v70.4h-10.2l-6.8-10.1-18.2-27-11.2-16.8-.3 27-.2 26.9h-9.4v-35.2zM0 289.7V0h309c247.4 0 308.8.3 308.8 1.2 0 .7-4 5-9 9.6a2250.7 2250.7 0 00-34.6 32.3l-14 13.1a2031.6 2031.6 0 01-37.6 35.2 2362.8 2362.8 0 00-42.1 39.3 2397.7 2397.7 0 00-27.7 25.9 5543.2 5543.2 0 00-45.4 42.6l-14.1 13.2a2448 2448 0 01-38.5 36 1528 1528 0 01-28.6 26.7 4252.7 4252.7 0 01-35.1 32.9 1674.5 1674.5 0 01-29 27.2l-13.7 12.6-13.6 12.7a5071 5071 0 01-59.5 55.8 9884.6 9884.6 0 00-53.5 50l-14 13.1A1891.4 1891.4 0 0158.2 526L43 540l-19.2 18A651.1 651.1 0 01.4 579.4C.2 579.4 0 449 0 289.7zm545.9 186.8c-2.6-.5-5-3.6-5-6.7 0-2.2 5.2-24.6 8-34.3L553 418c1.6-7 3.3-13.9 3.8-15.4.5-1.6 2-7.7 3.3-13.6 1.4-6 3-13 3.7-15.5l3.8-15L571 345a2604 2604 0 0011.6-47.3 1358.4 1358.4 0 006-24.4c7.9-31 10.4-42 10-42.6a52.3 52.3 0 003.5-11.7l3.9-16c1.9-7.4 10.4-42.3 13.3-54.7 3-12.2 4.2-14.6 9-17.3l4-2h120.5c128.5 0 125.8-.2 145.3 4.6 26 6.3 55 21 71.4 36a33 33 0 006.1 4.8c.4 0 2.5 2 4.6 4.4l7.7 8.7c2.2 2.3 4 4.5 4 4.9a116.7 116.7 0 0113.6 24.8c7.7 20.4 10.7 67.3 6.2 97-1 7-2.6 15-3.4 17.8-5.2 17-6.8 21-11.3 30.7a148.8 148.8 0 01-24.5 36.7 45.6 45.6 0 00-7.6 9.4c-.5 0-2.3 1.3-4 2.9a193.9 193.9 0 01-24.8 19.7 341.5 341.5 0 01-41.4 24.8c-3.1 3-32.5 13.9-45.2 16.8-18 4.2-16.8 4.2-163 4-76.2 0-139.5-.2-140.6-.5zM796 391.2c15.5-6.3 31.5-21.9 44.9-43.8a247.1 247.1 0 0016.8-36.1c10.8-28.2 8.2-56.8-7-76a64.5 64.5 0 00-17.9-15.5l-5.6-2.8-30.5-.2c-18.9-.2-31.4 0-33 .6-3.6 1.4-5 4-8.2 16.5a13017 13017 0 01-21.1 80.2 5328 5328 0 00-12.1 46l-6.7 24.6c-1.4 4-1.4 4.6 0 6.8l1.6 2.4 36.7-.3c35.7-.3 37-.4 42-2.4zm461.7 75.5c-.8-3.8-3-14.6-4.8-24.2-3.9-20-4.5-21.9-7.6-23.3-3.4-1.5-119.4-1.3-124.5.2-3.3 1-4.3 2.1-10.5 12.3l-9.6 16c-7.3 12.6-12.7 21-14.4 22.6-1.8 1.6-4.8 1.8-49.5 2l-47.7.3-2-2.5c-2.7-3.6-2.5-9.3.7-15.5a1262.8 1262.8 0 0124.7-44.4l3-5.7a1761.9 1761.9 0 0021.9-39c.7-.7 1.3-1.7 1.3-2 0-.3 2-4.1 4.5-8.4a973.4 973.4 0 0015.3-27.4l5-9A4031.6 4031.6 0 011099 255a568.7 568.7 0 0110-18.2l4.3-7.5c2.3-4 4.2-7.3 4.2-7.6a591.7 591.7 0 0021.3-38.2c1.4-2.2 3.9-6.6 5.6-9.9l5.7-10.3c3.7-6.3 6.2-10.8 11-19.8 2.3-4.4 5.3-9.2 6.6-10.6 4.9-5.6 1.5-5.4 90-5.4 88.7 0 87.6 0 92.3 5.4 3.3 3.7 4 6 7.6 26a1181 1181 0 007.8 40.3l12 62.8a9070.7 9070.7 0 0018 94.3 2831 2831 0 006.2 32.8l9 47.8c.7 4.4 2 10.4 2.7 13.3 2.6 10.1 1.3 18.4-3.4 21.7-2 1.4-9.3 1.6-76.5 1.6h-74.2l-1.4-6.8zm-25.3-141.9c.3-.8-.1-4.5-1-8.2l-3.4-18c-3.7-21.2-9-49.3-9.9-53.8l-.5-2.2-1.6 2.2c-.9 1.2-2.4 4-3.5 6-2.1 4-19.1 34.6-24.8 44.5-12.8 22.6-15 26.7-15.6 28.7l-.5 2.3h30.1c26.5 0 30.2-.2 30.7-1.5zm222.2 146.8c-3.3-2.6-3.9-6.5-2-12.7.7-2.8 1.8-7 2.2-9.1l3.2-13a8119 8119 0 0029.7-113.8l6-23c.3-.3 1.7-5.8 3.3-12.2a1470.6 1470.6 0 018.5-32.8l7.6-28.6a5788.7 5788.7 0 0017.3-66c.8-3 1.9-7 2.3-9.2l3.3-12.2c2-6.6 3.1-8.8 5.8-11.2l3.4-3.1h139.4l3 2.7c2.6 2.3 3 3.4 3.3 8.3.3 3.7-.1 7.5-1.2 11.1-.9 3-2.1 7.9-2.8 10.7-1.1 5-3.2 13-11.2 42.7a6690 6690 0 00-22.6 85.6 4072.8 4072.8 0 01-11.7 44.7c-18.3 69.4-23.6 89.6-28 106.9-6.2 23.8-8.8 32.9-10.2 34.4-1.3 1.5-6 1.7-73.8 1.7-71.1 0-72.4 0-74.8-2zm226.2-1.8c-3.4-3.4-3.5-6.3-.8-15.5 1.1-3.6 3.4-12.3 5.1-19.3a3982.2 3982.2 0 0117.7-69.5 7088.1 7088.1 0 0130-118l7.5-29.5 14.7-57.7c5.7-22.8 8.8-33.6 10-34.4 1.2-1 17.2-1.2 72.8-1.2h71.3l2.6 2.3c4.8 4.3 4.6 7.5-2.7 35.8a72.2 72.2 0 00-2.2 11.5c0 1.6-.4 2.9-.8 2.9s-1.3 2.6-2 5.9c-.6 3.2-2.6 11.7-4.4 18.8-4 16.3-4 16.3-.3 14a55 55 0 006.3-5c2-1.8 5.8-5.2 8.7-7.5 8.3-6.8 9.5-7.7 14-11.7a2216.2 2216.2 0 0133.3-28.1l6.7-5.6a251 251 0 0112-9.8c1-.8 3.6-3 5.5-5 2-1.9 3.8-3.5 4.1-3.5.3 0 1.6-1 3-2.3l8-7 5.5-4.8h71.9c79.3 0 76-.2 76 5.8 0 4.4-2.2 7.5-10 14.3l-9.7 8.4c-7.5 6.6-27.4 24.6-31.4 28.4a438.6 438.6 0 00-18.8 16.3 495 495 0 01-12.2 10.7l-11.7 10.4a2063 2063 0 01-35.6 31.8 543 543 0 00-12.2 10.9l-7.5 6.6a455 455 0 00-16.4 14.5c-4.3 4-5.4 6.6-4.3 10 1.1 3.1 8 14.5 10 16.2.5.5 3 4.2 5.6 8.2a172.5 172.5 0 0013 18.7l7.2 10.2a2046.3 2046.3 0 0121.7 31.3l13 18.7c5 7.3 9.8 14.2 12.3 17.5a916.7 916.7 0 0117.4 24.7 171 171 0 0110 15.4c4 7.9 3.5 12.3-1.6 14.1-2 .7-29.4 1-82.7 1-79.3 0-80 0-82.4-2-1.3-1-6.5-7.8-11.6-15.2a1283.5 1283.5 0 00-12.7-18c-1.9-2.4-7.5-10.6-10.5-15.2l-6.6-9.2a1249.3 1249.3 0 01-27.2-38.6c-1-.9-1.8.8-4.2 8.5-5.3 17.3-15 50-18.3 61.6-6.6 23.4-8.5 28.6-10.8 29.7-1.8 1-18.7 1.2-72.4 1.2h-70.2l-2.7-2.7zm465.5-2.4c-3-3-3-8.3 0-20.5a12504.6 12504.6 0 0128.4-110.4c.6-1.8 3.8-14 7.1-27.1a7136.9 7136.9 0 0119.7-76 7171.5 7171.5 0 0019.8-76.8c.7-2.3 2-6.8 2.7-9.9 3-12.5 4.5-17 6.8-19.9 4.7-6.2.8-6 75.1-5.6l67.3.2 3.4 2.6c7.3 5.6 7.7 13.2 2 34.8a2050 2050 0 00-13.8 51.7 16448.2 16448.2 0 01-39.5 152.3 13637.3 13637.3 0 00-19.6 75.5l-3.3 12.2c-2.8 10.4-4.7 15.1-6.7 17-1.8 1.7-5.4 1.7-74.5 2l-72.6.2-2.3-2.3zm226.8-.7c-4.7-4.4-5.2-10.2-1.9-22.3 3.5-12.6 9.2-34.2 20.3-76.9l11.7-44.5a4739.6 4739.6 0 0015-57.7 5084 5084 0 0014-53.9c6.7-26.3 13-50 15.1-57.6 2.8-9.4 5.2-19.5 4.9-20.4-.7-2.5 2.6-8 5.9-10.1l3.6-2.3h77.4c64 0 78 .2 80.6 1.3 3.3 1.4 6.8 5.5 9.2 10.8a5740 5740 0 0127.9 83c28.8 86.8 31 93.3 32 93.3.8 0 1.9-3.4 6-19.2l5.7-21.6c2-7 7.2-26.5 8.4-31.4.1-.8 1.7-6.7 3.5-13.1 6.6-24 7.4-27 9.2-34.2 2.2-8.7 13.2-49 15.4-56.8 1-3.5 2.7-6.2 5.2-8.6l3.7-3.5h44.5c31.2 0 45.1.3 46.8 1 6.3 2.9 7 15.1 1.8 34.6-1.8 7-3.9 15.4-4.6 18.7a213 213 0 01-3.2 12.2c-1 3.4-2.9 11-4.3 16.9-1.4 6-3 12.7-3.7 15-.7 2.3-2 7.4-2.9 11.2-.8 4-2.2 9.4-2.9 12.2a24834.1 24834.1 0 00-33.1 130.8 6090.8 6090.8 0 00-21.3 84.4c-.8 3.1-2.4 7-3.7 8.4l-2.2 2.8-79 .3c-43.4.2-80.3 0-81.9-.2-2.8-.5-7.9-4-7.9-5.5a220 220 0 01-7.4-20.4 4695.6 4695.6 0 00-26.5-79.2L2548 345c-2.6-7.5-6-17.6-7.5-22.5-1.5-4.9-3.2-10-3.8-11.2-.5-1.3-2.6-7.3-4.5-13.3-2-6-4-11.8-4.6-12.7-1.1-2-1.1-2-4.2 9.6l-6.2 22.5c-2.2 7.7-4.3 15.7-4.7 17.8l-2.7 9.8c-1 3.4-3 10.1-4.2 15a1519.4 1519.4 0 01-9.5 35.2l-4 15-5.4 19.2-8 29.4c-.8 2.6-2.7 5.9-4.4 7.7l-3.1 3.2H2376.5l-3.3-3z"/>
		</g>
	</g>
</symbol>
<symbol id="mitsubishi" viewBox="0 0 512 141">
	<g>
		<path d="M0 140.3c-.4-.6 8.2-16.4 22.3-41l3.3-5.8h21c11.5-.1 23.6-.5 26.8-.8l5.8-.7L69 73.8c-17.2-30.3-15.7-27-13.7-31.5A376 376 0 0180.2 0c.7 0 7.1 10.2 14.2 22.7l13 22.8-3.2 5.6L91 74.3 81 92l5.4.7c3 .3 14.6.7 26 .8 11.4 0 21.2.4 21.8.8.6.4 3 4 5.2 7.8 6.2 10.5 21.6 38 21.6 38.6 0 .2-12.2.3-27 .1l-27.1-.2-13.1-23c-7.2-12.7-13.4-23-13.7-23-.5 0-7.4 11.7-20.6 34.8l-6.3 11.2-26.4.2c-14.6.2-26.7 0-26.9-.5zm181.3-22.5V94.6H211.6v7h-8c-4.3 0-9.3.3-11 .7-3 .6-3.2.9-3.2 5v4.4l10.4.3 10.3.2.3 3.8.4 3.8h-21.5l.3 6.4.3 6.3 11.4.3 11.4.2v8h-31.4v-23.2zm39 22.4c-.3-.5-.9-11-1.2-23.3l-.7-22.3h9.4v13.3c0 7.4.3 15.8.7 18.6l.6 5.2 10 .7 10 .7-.2 3.8-.3 3.7-13.9.2c-7.7.2-14 0-14.4-.6zm34.8-22.4V94.6h30.5l-.3 3.7-.3 3.8-11 .3-10.8.3v9l10.4.3 10.4.2.3 3.8.3 3.8h-21.4v12l11 .6 11 .7.7 3.1.6 4c0 .5-7 .9-15.7.9h-15.7v-23.3zm47 21.4c-7-4.4-9.8-10.4-9.8-22 0-8.9 1.4-12.8 6.2-18 3.8-4 7.4-5.7 13-5.7 5.8 0 10.5 2.7 13.4 7.4 2.9 4.7 2.6 6.5-1 7.3-2.8.6-3.7.2-6.6-3-7.5-8.2-16.7-1.5-16.7 12.2 0 8.8 4 15.6 9.2 15.6 3 0 9-4.4 9-6.6 0-.8.4-1.6.9-2 1.4-.8 8.2 1.7 8.2 3 0 .7-1.4 3.5-3.2 6.2-2.5 3.7-4.3 5.2-7.4 6.1-6 1.8-11.7 1.6-15.1-.5zm42.6.3c-.3-1-.6-9.5-.6-19.2v-17.6l-5.8-.3-5.8-.3-.3-3.8-.3-3.7h33.6l-.3 3.7-.3 3.8-5.9.3-5.8.3v12.4c0 6.8-.3 15.4-.6 19.1l-.7 6.9h-3.3c-2 0-3.5-.6-3.9-1.6zm26.4.9c-.4-.4-.7-10.9-.7-23.3V94.4l13.7.3 13.8.4 3 3.4c2.9 3.1 3 3.9 2.7 9.3-.5 6-3.4 11-6.5 11-2.5 0-2.6 2.3 0 5a81 81 0 019.7 16.6c0 .4-1.7.7-3.9.7-4.5 0-6-1.4-12.3-11.5-4.3-6.8-8.3-10-10.4-7.9-.5.6-1.2 5.1-1.5 10.2l-.5 9.2H375c-1.8 0-3.5-.3-4-.7zm23.4-32c.4-5-.6-5.7-8.7-5.7h-6.3v10.1l7.3-.3 7.4-.3.3-3.9zm17.4 9.4V94.6h8V141h-8v-23.3zm27.8 22.5a17 17 0 01-9.8-8.7 43.4 43.4 0 01-2-23.7c1.4-4.8 6-10.7 10.4-12.9 6.1-3.2 17-.7 21 4.8 3 4.2 3.2 5.7.8 7.4-3.2 2.2-4.5 1.9-8.2-2-4.1-4.4-8.6-4.8-12.2-1.2-7 7-4.9 26.6 3.1 28.6 3.6.9 9.1-2 10.8-5.8 1.4-3.3 1.4-3.3 5.7-1.8 2.9 1 3.2 1.5 2.6 3.8a19 19 0 01-9.2 10.9 24 24 0 01-13 .6zM181.3 59.6V35.8l6.3.3 6.2.3 3.5 14.5c2.3 9.6 3.7 14.1 4.3 13.2.5-.8 2.3-7.4 4-14.8l3.2-13.4h13v46.5h-8.1V66.6c0-8.7-.3-15.6-.5-15.4-.3.3-2.1 7.3-4 15.5a72 72 0 01-4.8 15.9c-2 1.2-5.5 1-6.8-.5-.6-.8-2.7-8-4.6-16l-3.5-14.5v15.9l-.1 16h-8V59.5zm48.8.3l.3-23.5 3.7-.3 3.8-.3v47.6h-8L230 60zm26.2 22.3c-.8-.8-1.2-6.7-1.2-19.7V44H243l.3-3.8.3-3.8h33.4l.3 3.8.3 3.8h-13.3v39.4H261c-1.8 0-3.9-.5-4.6-1.2zM289 82c-4-1.7-8.5-8.2-8.5-12 0-2.5.4-2.8 3.6-2.8 2.8 0 3.8.6 4.7 2.7 3.4 7.3 16 6.9 16-.6 0-2.7-.6-3.1-8.5-6.1-10.3-3.9-13.8-7.2-14.4-13.3-.9-8.3 5.5-14 15.5-14 6.2 0 11.4 2.7 13.9 7.3 2.6 4.7 1.6 6.9-3 6.9-2.8 0-3.8-.6-4.7-2.6-1.9-4-10-4.9-12.4-1.2-1.8 3 .6 5 8.8 7.9 4.2 1.4 8.4 3.2 9.3 4 7 5.8 5.5 19.3-2.6 23.5a26.4 26.4 0 01-17.7.3zm40.3-.2c-1.8-.9-4.3-3.2-5.5-5.2-2-3.3-2.2-5-2.2-21.9l-.1-18.3 4.2-.3 4.2-.3.3 17.8c.4 17.4.4 18 2.8 19.8 1.3 1 3.6 2 5.2 2 1.5 0 3.8-1 5.1-2 2.4-1.9 2.4-2.4 2.8-19.7l.3-17.8h9.3l-.7 18.7c-.7 20.1-1.4 23.2-6.3 26.4-3.7 2.5-15.2 3-19.4.8zm35.1-22V36h6.4c12.8.2 19.8 1.4 22.6 4.2 3.7 3.7 4.3 9.8 1.4 14.5l-2.2 3.6 3.1 3.5c2.3 2.6 3.1 4.6 3.1 7.4 0 4.9-2.8 10.5-6.2 12a73 73 0 01-15.4 2l-12.8.6V59.8zm23.5 13.4c2.3-1.2 2.4-5.7.2-8.1-1.4-1.5-3.2-1.9-8.6-1.9h-7v12.4l6.8-.7c3.7-.4 7.5-1.1 8.6-1.7zm-2.4-19.7c1.7-1.2 2.2-2.4 2-4.8-.3-3.6-2.3-4.4-10.2-4.6l-4.8-.1V55h5.4a15 15 0 007.6-1.6zm20.6 6.4l.3-23.5 3.8-.3 3.8-.3v47.6h-8.1L406 60zm24.1 22.4c-3.6-1.4-6-3.9-8.3-8.3-2.5-5-1.8-6.8 2.6-6.8 2.8 0 3.9.6 5.3 3 3.1 5.3 9.3 6.6 13.9 3 4.8-3.7 2.7-6.7-6.9-10-12-4-15.8-8.7-14.2-17 1.2-6.6 6.4-10.3 14.4-10.3 7 0 13.1 3.1 15 7.7 2 4.8 1.3 6.5-2.9 6.5-2.6 0-3.9-.8-5.6-3-1.8-2.5-3-3.1-6.1-3.1-2.6 0-4.5.7-5.7 2-1.7 1.9-1.7 2.2-.2 3.9 1 1 4.6 2.8 8.2 4 3.6 1.4 8.3 3.9 10.4 5.7 3.6 3.2 3.8 3.7 3.8 9 0 6.5-2.2 10.3-7.6 13a25 25 0 01-16.1.7zm32 .5c-.4-.4-.7-11.1-.7-23.9V35.8l4.3.3 4.3.3.3 8.9.3 8.8h16l.3-8.8.3-8.9 3.8-.3 3.8-.3v47.6h-8.1V63.2h-16.2V71c0 11-.5 12.4-4.5 12.4-1.8 0-3.5-.3-3.9-.6zm42-22.9l.3-23.5 3.8-.3 3.8-.3v47.6h-8.1L504 60z"/>
	</g>
</symbol>
<symbol id="venterra" viewBox="0 0 881 192">
	<g>
		<path d="M90.7 192.6c-24.6-8.1-63.5-38.9-79.6-62.9-15.3-23-14.9-37.6 2-63C29 42.6 66.7 11 89.8 2.4c9.6-3.6 24.3-3 33.2 1.3 18.5 9 32.6 35.8 36.8 70 .8 5.8 1.4 13.5 1.4 17.2v6.5l-5.8-5.5c-8-7.6-17.6-12.4-35-17.4-8.2-2.3-17-5.1-19.6-6.2a148.5 148.5 0 01-33.2-24.1A66 66 0 0056.7 35c-2.6 0-4.3 3-4.3 8 0 9.3 8.5 23.2 25 41l7.7 8.4-9.2-3.8c-5-2.1-9.7-4.4-10.3-5-2.1-2-7-1.3-7.1 1-.7 10.2 9 21 30.2 33.7 5.1 3.1 8 5.4 6.2 5-8.6-1.8-17.2-2.3-18-1-.5.8.1 3.6 1.3 6.1 3.3 6.7 13.7 13.3 28.6 18.1 11.4 3.7 12.1 4.1 8.1 4.7-5.7.8-6.2 4-1.5 8.7 4.3 4.3 14 7.4 24.8 7.9l7.7.3-2 3.6a56.8 56.8 0 01-21 19.2 46 46 0 01-32.2 1.7zm242.1-45.7c-12.6-2.9-20.1-8-24.2-16.5-7.6-15.7 4.7-40.8 25-51a63 63 0 0135-7.6c15.2 0 16 .2 24 4.1 6 3 9.2 5.5 11.2 8.6 3.2 5.2 4.4 14.1 2.7 20.4l-1.1 4.3h-39.3l-39.3.1-1 6a21.1 21.1 0 007 20.3c4.8 3.6 16.6 6.9 24.6 6.9 7.4 0 19.2-3 28.1-6.9l7.6-3.1c.2 0-.1 1.6-.8 3.6-1.4 3.9-5.3 5.8-19.3 9.5a109.8 109.8 0 01-40.2 1.3zm57.5-48.6c1.4-10-2.6-17.6-10.8-20.7a48 48 0 00-25.8 1 50.3 50.3 0 00-11.1 6.2c-4.9 3.9-12.7 14.6-12.7 17.5 0 1 8 1.4 29.8 1.4h29.9l.7-5.4zM530 147a13.4 13.4 0 01-8-14.6c.3-2.4 3.7-15.4 7.5-28.8 3.7-13.4 6.8-24.8 6.8-25.3s-2.9-1-6.3-1c-5.4 0-6.2-.3-6.2-2.4 0-2 1-2.5 7.1-2.8l7.2-.4 2.2-7.6c2.1-7 2.7-7.7 7-9 7.5-2.2 14-3 14-2 0 .7-1.2 4.8-2.5 9.3a99.6 99.6 0 00-2.5 9c0 .5 5.2 1 11.7 1 11 0 11.7.1 11.1 2.4-.5 2.2-1.9 2.5-12.6 2.8-11.5.4-12 .5-12.9 3.5-3.6 12.1-12.3 44-13 47.9-2 10.3 4.6 15.7 17 14.1 5-.7 6-.5 5.4 1-1 2.5-4.4 3.3-17.4 4-7.5.3-12.7 0-15.6-1.1zm65.3.3c-7-1.4-16.4-5.6-20-9-6-5.5-8.2-11.8-7.5-21.5 1.8-27.5 30-47 66-45.4 25.2 1.2 37.6 13 33.5 32.3l-1.2 5.7-39.1-.5-39.1-.5-.8 4c-1.6 7.6-1 13.3 2 17.6 9.5 14 33.1 16.3 57 5.4 3.7-1.7 7-2.8 7.3-2.6.2.3.1 2-.3 3.7-.7 2.7-2.4 3.7-10.4 6.4a96.7 96.7 0 01-47.4 4.4zm55.5-46.9c.4-1.7.5-6 .2-9.4-1.1-11.3-8.3-15.6-24.6-14.6-7.6.4-11 1.3-16.3 4.1a48.4 48.4 0 00-18.7 19.4l-1.3 3.7H650l.8-3.2zm150.6 46.8c-14.2-4.1-17.3-15.8-7.2-26.8 6.8-7.3 14.7-10 38.9-13.2 21.7-2.8 26.2-4 28.8-7.7 3-4.3 2.4-13-1.1-16.5-8.3-8.2-32.9-7-45.1 2.4-5.4 4-6 4-5-.2 1.4-5.4 2.7-6.3 13.5-9.9a65.6 65.6 0 0125.2-3.4c16.8-.2 24.5 1.8 28.6 7.5 4.4 6 4 12-3 36.6a166.6 166.6 0 00-5.7 24.7c.4 1 2.6 1.7 5.7 1.7 5 0 6.8 1.8 2.8 3-11.7 3.1-23.4 1.4-25.4-3.8-.7-1.9-1.8-3-2.7-2.6-20.9 9.3-35.8 11.8-48.3 8.2zm33.2-6.7c10.4-3.1 17.6-7.7 19-12.3 3.5-11.4 5.2-18.7 4.5-19.4-1-1-29.3 3.2-35.7 5.5-11.2 4-17.7 12.5-15 19.8 2.9 7.5 14.4 10.2 27.2 6.4zm-597.7-.3a1502.3 1502.3 0 00-20.6-67c0-.5 4.3-.8 9.7-.8h9.7l1.5 8.6c1.3 7.4 13.5 50 14.7 51.2 1.4 1.4 14.5-12.7 34.2-36.7l14.7-17.8c4-5 4.8-5.3 10.5-5.3 3.4 0 6.2.3 6.2.8s-3.8 4.8-8.4 9.7a988 988 0 00-48.4 54.2l-8.4 10.3h-13.4l-2-7.2zm170 4.7c2.5-8 19.3-69.7 19.3-71 0-1 2.8-1.5 9.6-1.5 7.7 0 9.3.3 8.8 1.8-.4 1-1 3.8-1.6 6.3l-.8 4.5 5.8-4c10.5-7 18.4-9.2 34.5-9.2 12.6 0 15 .3 19.7 2.8 6.3 3.4 9 8.2 9 16 0 5.6-12.8 53.8-14.8 55.9-.6.5-4.7.8-9.1.6l-8.1-.4 6-21.2c9.1-32 9.2-39.5.8-44-6.3-3.3-22.3-3-30.4.7-12.7 5.7-15.9 11-24.7 41.4l-6.7 23.1-9 .4c-8.8.4-9.1.3-8.3-2.2zm260.6 2l8-28.6c4.5-15.7 9-32.5 10.3-37.2l2.3-8.7h9.2c8.3 0 9.1.2 8.4 2.2-.5 1.2-1.2 4.1-1.6 6.5l-.8 4.3 3.7-2.3 8.2-5.4c2.5-1.7 7.2-3.8 10.5-4.8 5.8-1.7 16.8-2.5 16.8-1.1a56 56 0 01-3.2 7c-2.8 5.4-3.5 6-6 5.2-1.4-.6-5.9-1-9.8-1-8.2.2-17.3 5-21.7 11.5a399 399 0 00-15.6 51.3c0 1-2.8 1.5-9.3 1.4-5.2 0-9.4-.1-9.4-.2zm62.5-1.2c0-1.3 16-59.7 19.5-71.1.6-1.9 2.2-2.2 9.3-2.2 4.8 0 8.7.4 8.7 1l-1.3 5.7c-.8 2.6-1 5-.7 5.4.4.4 2.5-.7 4.8-2.4 8.3-6.3 17.5-10 26.3-10.7l8.5-.6-3.4 7c-2.6 5.3-4 7-5.4 6.3-4-1.7-12.2-2-17.3-.5a34.2 34.2 0 00-17 13.7c-1 1.7-4.7 13.7-8.3 26.6l-6.6 23.5h-8.5c-6.4 0-8.6-.5-8.6-1.7z"/>
	</g>
</symbol>
<symbol id="lg" viewBox="0 0 2000 943">
	<g>
		<path d="M434.8 941.7a473 473 0 01-244-91.4A503.2 503.2 0 0193 752.8a471.2 471.2 0 01114.2-672A463.8 463.8 0 01459.2.3c105.6-3 209 29.7 294.2 93.3a473.7 473.7 0 01185.9 318.3c5.4 44 4.5 92.5-2.5 136a478.6 478.6 0 01-56.4 158.5 528.3 528.3 0 01-51.8 73 471.2 471.2 0 01-322.7 162.5 703 703 0 01-71 0zm79-77.4a395.2 395.2 0 00345.4-320.5c4.1-22.2 5.7-39.1 6.3-65.7l.6-25.3-140.9.3-140.9.2-.3 18.3-.2 18.2 122.2.3 122.3.2-.3 6.5c-2 41.8-14.8 89.7-35.2 131.5a342 342 0 01-66.8 94 357 357 0 01-211.2 104.2 505.5 505.5 0 01-87.2 0 358.3 358.3 0 01-311.4-309.7c-2.3-15.9-2.6-72-.6-87 9.2-66.6 31-121.3 68-171A356.1 356.1 0 01402 120.4c21.8-4.3 36.3-5.7 63.2-6.3l25.7-.5V76.5l-25.2.6c-32.2.8-53 3.2-80.8 9.4a396 396 0 00-301 309.3c-8 40.6-9.2 91.1-3 133.5a391.6 391.6 0 00111.4 221 394.2 394.2 0 00258.1 116c12.1.7 49.4-.4 63.5-2zm70-205v-18.5h-93l-.2-188.2-.3-188.3-18.7-.2-18.8-.3v414h131v-18.5zm-248-284.1a56.4 56.4 0 10-29.9-108.8 56.4 56.4 0 0029.9 108.8zm1388 342c-76.5-11-132.9-62.5-158.4-144.4-16.7-53.7-19-124-5.6-178.5 10.4-42.7 28-75.8 55-103.8a189.2 189.2 0 0158.2-42.1c37.2-18 78.1-25.8 126.8-24.2 59 1.8 107 18.5 145.3 50.6 31.5 26.4 46 55.4 53.2 106l1.5 11.8c0 1-15.2 1.2-73 1.2H1854l-.6-3.7a89.7 89.7 0 00-9.2-25.7c-13-21.4-39.6-33.2-67-29.7-41.5 5.3-67.5 38.5-77 98.1a409.8 409.8 0 000 79.4c8 52.7 29.7 85.7 64.2 97.3 7.4 2.5 9.3 2.7 25 2.8 19.6 0 25.1-1 38-7.4 19-9.4 31.7-27.4 40-56.5 1.4-4.9 2.8-10.6 3.2-12.7l.6-3.9H1781.8v-99h218v274h-119v-46.3l-4.8 6.4c-20.4 27-53 44.5-93.3 50.4-13.2 2-45.4 1.9-58.9 0zm-545-245.9V235.8h139l.3 176.8.2 176.7 103.3.3 103.2.2v117h-346V471.3z"/>
	</g>
</symbol>
</svg>