<svg version="1.1" 
xmlns="http://www.w3.org/2000/svg" xmlns:xlink="http://www.w3.org/1999/xlink"
style="display: none">
<symbol id="facebook" viewBox="0 0 512 512">
	<g>
		<path d="M437 0H75A75 75 0 000 75v362a75 75 0 0075 75h151V331h-60v-90h60v-61c0-49.6 40.4-90 90-90h91v90h-91v61h91l-15 90h-76v181h121a75 75 0 0075-75V75a75 75 0 00-75-75zm0 0"/>
	</g>
</symbol>
<symbol id="twitter" viewBox="0 0 512 512">
	<g>
		<g>
			<path d="M512 97.2c-19 8.4-39.3 14-60.5 16.6 21.8-13 38.4-33.4 46.2-58a209.8 209.8 0 01-66.6 25.4A105 105 0 00249.5 153c0 8.3.8 16.3 2.5 24A297.1 297.1 0 0135.6 67 105.1 105.1 0 0068 207.4c-16.9-.3-33.4-5.2-47.4-12.9v1.1c0 51 36.4 93.4 84 103.2-8.5 2.3-17.8 3.4-27.4 3.4-6.8 0-13.5-.3-20-1.8a106 106 0 0098.2 73.2A211 211 0 010 416.9 295.5 295.5 0 00161 464c193.2 0 298.8-160 298.8-298.7 0-4.6-.2-9.1-.4-13.6A209.4 209.4 0 00512 97.2z"/>
		</g>
	</g>
</symbol>
<symbol id="linkedin" viewBox="0 0 510 510">
	<g>
		<path d="M459 0H51C23 0 0 23 0 51v408c0 28 23 51 51 51h408c28 0 51-23 51-51V51c0-28-23-51-51-51zM153 433.5H76.5V204H153v229.5zm-38.3-272.9c-25.5 0-45.9-20.4-45.9-45.9s20.4-45.9 46-45.9 45.9 20.4 45.9 46-20.4 45.9-46 45.9zm318.8 272.9H357V298.4c0-20.4-17.9-38.3-38.3-38.3s-38.2 17.9-38.2 38.3v135.1H204V204h76.5v30.6a82.4 82.4 0 0163.8-35.7 90.3 90.3 0 0189.2 89.2v145.4z"/>
	</g>
</symbol>
<symbol id="instagram" viewBox="0 0 512 512">
	<g>
		<path d="M511 150.5a187 187 0 00-12-62.1A125 125 0 00469.5 43a126 126 0 00-45.3-29.5 187.5 187.5 0 00-62-11.9C334.6.3 325.9 0 256.4 0S178.3.3 151 1.5a187.1 187.1 0 00-62 11.9A124.9 124.9 0 0043.4 43 126 126 0 0014 88.3a187.6 187.6 0 00-11.8 62.1C.8 177.8.4 186.5.4 256S.8 334.2 2 361.5a187 187 0 0012 62.1A126.2 126.2 0 0043.4 469a126 126 0 0045.4 29.5 187.6 187.6 0 0062 11.9c27.3 1.2 36 1.5 105.6 1.5s78.2-.3 105.5-1.5a187 187 0 0062-11.9 131 131 0 0075-74.9 187.7 187.7 0 0011.9-62.1c1.1-27.3 1.5-36 1.5-105.5s-.2-78.2-1.4-105.5zm-46.1 209c-1.1 25-5.3 38.5-8.8 47.5a85 85 0 01-48.7 48.6c-9 3.5-22.5 7.7-47.5 8.8-27 1.2-35 1.5-103.3 1.5s-76.5-.3-103.5-1.5c-25-1.1-38.5-5.3-47.5-8.8a78.8 78.8 0 01-29.3-19.1A79.6 79.6 0 0157 407.1c-3.5-9-7.7-22.6-8.7-47.5-1.3-27-1.5-35.1-1.5-103.4s.2-76.5 1.5-103.4c1-25 5.2-38.5 8.7-47.5a77.8 77.8 0 0119.3-29.4c8.2-8.5 18.2-15 29.4-19.1 9-3.5 22.6-7.7 47.5-8.8 27-1.2 35-1.5 103.3-1.5 68.5 0 76.5.3 103.5 1.5 25 1.1 38.5 5.3 47.5 8.8a78.7 78.7 0 0129.3 19.1c8.5 8.3 15 18.3 19.2 29.4 3.5 9 7.7 22.6 8.8 47.5 1.2 27 1.5 35.1 1.5 103.4s-.3 76.3-1.5 103.3zm0 0"/><path d="M256.4 124.5a131.5 131.5 0 10.1 263 131.5 131.5 0 000-263zm0 216.8a85.3 85.3 0 110-170.6 85.3 85.3 0 010 170.6zm0 0M423.9 119.3a30.7 30.7 0 11-61.5 0 30.7 30.7 0 0161.5 0zm0 0"/>
	</g>
</symbol>
<symbol id="heart" viewBox="0 0 392 392">
	<g>useElemLeft
		<path style="fill:#D7443E;" d="M285.257,35.528c58.743,0.286,106.294,47.836,106.58,106.58
		c0,107.624-195.918,214.204-195.918,214.204S0,248.165,0,142.108c0-58.862,47.717-106.58,106.58-106.58l0,0
		c36.032-0.281,69.718,17.842,89.339,48.065C215.674,53.517,249.273,35.441,285.257,35.528z"/>
	</g>
</symbol>
<symbol id="arrowlft" width="24" height="24" viewBox="0 0 24 24">
	<g>
		<path d="M 20 0 L 6 12 L 20 20" fill="none" />
	</g>
</symbol>
<symbol id="arrowrght" width="24" height="24" viewBox="0 0 24 24">
	<g>
		<path d="M 6 0 L 20 12 L 5 20" fill="none" />
	</g>
</symbol>
<symbol id="arrow50lft" width="48" height="48" viewBox="0 0 48 48">
	<g>
		<path d="M 30 15 L 15 24 L 30 33" fill="none" />
		<circle cx="24" cy="24" r="20" style="stroke:#9b7f7f; stroke-width: 5; fill:none"/>
	</g>
</symbol>
<symbol id="arrow50rght" width="48" height="48" viewBox="0 0 48 48">
	<g>
		<path d="M 17 15 L 33 24 L 17 33" fill="none" />
		<circle cx="24" cy="24" r="20" style="stroke:#9b7f7f; stroke-width: 5; fill:none"/>
	</g>
</symbol>
<symbol id="order" viewBox="0 0 512 512">
	<g>
		<path d="m327.276 275.429h30v30h-30z"/><path d="m258.215 275.429h30v30h-30z"/><path d="m189.152 275.429h30v30h-30z"/><path d="m512 118.286c0-65.223-53.062-118.286-118.286-118.286-47.587 0-88.694 28.25-107.448 68.857h-181.948l-6.886-68.857h-97.432v30h70.282l4.306 43.054 27.4 274.005c-19.27 6.751-33.131 25.11-33.131 46.655 0 27.255 22.174 49.428 49.429 49.428h23.208c-2.561 5.967-3.984 12.534-3.984 19.429 0 27.255 22.173 49.429 49.428 49.429s49.429-22.174 49.429-49.429c0-6.894-1.423-13.461-3.984-19.429h81.665c-2.561 5.967-3.984 12.534-3.984 19.429 0 27.255 22.174 49.429 49.429 49.429s49.429-22.174 49.429-49.429c0-6.894-1.423-13.461-3.984-19.429h36.777v-30h-323.429c-10.713 0-19.429-8.715-19.429-19.428s8.716-19.429 19.429-19.429h323.432l15.633-156.33c32.84-21.04 54.649-57.855 54.649-99.669zm-325.063 363.714c-10.713 0-19.428-8.716-19.428-19.429s8.715-19.428 19.428-19.428 19.429 8.715 19.429 19.428-8.716 19.429-19.429 19.429zm172.554 0c-10.713 0-19.429-8.716-19.429-19.429s8.716-19.428 19.429-19.428 19.429 8.715 19.429 19.428-8.716 19.429-19.429 19.429zm34.223-452c48.682 0 88.286 39.605 88.286 88.286s-39.604 88.286-88.286 88.286c-48.681 0-88.285-39.605-88.285-88.286s39.604-88.286 88.285-88.286zm20.853 314.286h-282.707l-24.542-245.429h169.715c-1.049 6.324-1.604 12.812-1.604 19.429 0 65.223 53.063 118.286 118.285 118.286 11.11 0 21.865-1.542 32.067-4.419z"/><path d="m451.125 100.518-21.213-21.213-46.142 46.142-26.254-26.253-21.213 21.213 47.467 47.467z"/>
	</g>
</symbol>
<symbol id="shopbox" viewBox="0 -31 512 512">
	<g>
		<path d="M165 300h272a15 15 0 0014.4-10.9l60-210A15 15 0 00497 60H130.4l-10.8-48.3A15 15 0 00105 0H15a15 15 0 100 30h78L147 273.7A45 45 0 00165 360h272a15 15 0 100-30H165a15 15 0 010-30zM477 90l-51.4 180H177L137 90zm0 0"/><path d="M150 405a45 45 0 1090.1-.1 45 45 0 00-90.1.1zm45-15a15 15 0 110 30 15 15 0 010-30zm0 0M362 405a45 45 0 1090.1-.1 45 45 0 00-90.1.1zm45-15a15 15 0 110 30 15 15 0 010-30zm0 0"/>
	</g>
</symbol>
<symbol id="hearts" viewBox="0 -28 512 512">
	<g>
		<path d="M256 455.5a30 30 0 01-19.8-7.4C215.5 430 195.6 413 178 398h-.1c-51.6-44-96.1-82-127.1-119.4C16 236.8 0 197.2 0 154A160 160 0 0140.6 44.6 137.7 137.7 0 01143 0c29.6 0 56.7 9.3 80.5 27.8 12 9.3 22.9 20.7 32.5 34a164.6 164.6 0 0132.5-34A128.8 128.8 0 01369 0c39.5 0 75.9 15.8 102.4 44.6A160 160 0 01512 153.9c0 43.3-16.1 83-50.8 124.7-31 37.4-75.5 75.4-127 119.3-17.7 15-37.7 32-58.4 50.2a30 30 0 01-19.8 7.4zM143 30a108 108 0 00-80.3 35A130.2 130.2 0 0030 153.8c0 36.4 13.5 69 43.9 105.6 29.3 35.4 73 72.6 123.4 115.6h.1c17.7 15.1 37.7 32.2 58.6 50.4 21-18.2 41-35.3 58.7-50.4 50.5-43 94.1-80.2 123.4-115.6 30.4-36.6 44-69.2 44-105.6 0-34.5-11.7-66.1-32.8-89A108 108 0 00369 30a99.5 99.5 0 00-62.1 21.6 145.5 145.5 0 00-34.6 40c-3.5 5.8-9.6 9.3-16.3 9.3s-12.8-3.5-16.3-9.3a145.4 145.4 0 00-34.6-40 99.5 99.5 0 00-62-21.5zm0 0"/>
	</g>
</symbol>
<symbol id="search" viewBox="0 0 512 512">
	<g>
		<path class="lisvgud" d="M505.7 475.6L360.1 330a201.7 201.7 0 0045.2-127.3C405.3 90.9 314.4 0 202.7 0S0 91 0 202.7s91 202.6 202.7 202.6c48.2 0 92.4-17 127.3-45.1l145.6 145.6a21.3 21.3 0 0030.1 0 21.3 21.3 0 000-30.2zm-303-113c-88.3 0-160-71.7-160-160s71.7-160 160-160 160 71.8 160 160-71.8 160-160 160z"/>
	</g>
</symbol>
<symbol id="locatio" viewBox="0 0 15 15">
	<g>
		<path d="M7.5 5.8a2.6 2.6 0 102.6 2.6C10 7 8.9 5.8 7.5 5.8zm0 3.7c-.7 0-1.2-.5-1.2-1.1 0-.7.5-1.2 1.2-1.2.6 0 1.2.5 1.2 1.2 0 .6-.6 1.1-1.2 1.1zm7-1.8h-1.4a5.7 5.7 0 00-4.9-4.9V1.3c0-.2-.2-.4-.5-.4h-.4c-.3 0-.5.2-.5.4v1.5a5.7 5.7 0 00-4.9 4.9H.5c-.3 0-.5.2-.5.4v.5c0 .3.2.5.5.5h1.4A5.7 5.7 0 006.8 14v1.4c0 .3.2.5.5.5h.4c.3 0 .5-.2.5-.5V14a5.7 5.7 0 004.9-5h1.4c.3 0 .5-.1.5-.4v-.5c0-.2-.2-.4-.5-.4zm-7 4.9a4.2 4.2 0 110-8.4 4.2 4.2 0 010 8.4z" fill="#22262A"/>
	</g>
</symbol>
<symbol id="smartphone" viewBox="0 0 35 35">
	<g>
		<path d="M25.3 0H9.7C8.4 0 7.3 1 7.3 2.4v30.2C7.3 34 8.4 35 9.7 35h15.6c1.3 0 2.4-1 2.4-2.4V2.4C27.7 1 26.6 0 25.3 0zM15 1.7h5a.3.3 0 010 .6h-5a.3.3 0 110-.6zm2.5 32.1a1.2 1.2 0 110-2.3 1.2 1.2 0 010 2.3zm8.5-3.2H9V3.7h17v27z"/>
	</g>
</symbol>
<symbol id="check" viewBox="0 0 24 24">
	<g>
		<path d="M20.3 2L9 13.6l-5.3-5L0 12.3 9 21 24 5.7z"/>
	</g>
</symbol>
<symbol id="triangle" viewBox="0 0 24 24">
	<g>
		<path stroke="null" fill="#ecb124" d="M0 0 L24 0 L24 24 Z"/>
	</g>
</symbol>
<symbol id="svgimg" viewBox="0 0 512 512">
	<g>
		<path fill="#ffffff" d="M464 448H48c-26.51 0-48-21.49-48-48V112c0-26.51 21.49-48 48-48h416c26.51 0 48 21.49 48 48v288c0 26.51-21.49 48-48 48zM112 120c-30.928 0-56 25.072-56 56s25.072 56 56 56 56-25.072 56-56-25.072-56-56-56zM64 384h384V272l-87.515-87.515c-4.686-4.686-12.284-4.686-16.971 0L208 320l-55.515-55.515c-4.686-4.686-12.284-4.686-16.971 0L64 336v48z"></path>
	</g>
</symbol>
<symbol id="svgplus" viewBox="0 0 24 24">
	<g fill="none">
    <path stroke="#b1b8be" stroke-width="6" d="M0 12 l24 0" />
    <path stroke="#b1b8be" stroke-width="6" d="M12 0 l0 24" />
  </g>
</symbol>
<symbol id="svgcirclearrow" viewBox="0 0 24 24">
	<g >
		<path fill-rule="evenodd" 
		d="
        M 12, 12
        m -12, 0
        a 12,12 0 1,0 24,0
        a 12,12 0 1,0 -24,0
        M8 6 L20 12 L8 18 Z"/>
  </g>
</symbol>

<symbol id="service10" viewBox="0 0 279 274">
	<g >
		<path d="M240.7 275.3c-2-2.5-13-14.3-24.5-26.4l-34.7-36.8c-23-24.6-29.9-31.5-33.3-33.7-6-3.7-15.1-5.8-25.3-5.8-11.7 0-17-2.2-24.6-10.1a115.8 115.8 0 01-17-24.3c-2.7-6.7-1.4-11.6 3.2-11.6 1.1 0 7.2 3.4 13.5 7.5 6.3 4.2 12.2 7.8 13.2 8.1 2 .6 9-2.6 12.6-6a56 56 0 0010.7-22.3c1.1-5.3-4.2-10.5-22-21.5-6-3.7-7.6-5.2-7.6-7 0-4.4 3.7-5.3 21.4-5.3h16.1l7.3 4c7.6 4 13.7 9.8 16.9 16.3 1.5 3 1.8 5.7 1.6 13.2 0 5.3.5 12.7 1.3 16.6 2.4 11.5 4.2 14.4 22.4 34.5l66.4 71.2c16.6 17.8 16.8 18 16.2 21.6-2 11-12.5 20-25 21.6-5 .6-5.1.5-8.8-3.8zM116 260.9c-7.3-1.1-10-5.1-10-14.8 0-6.2-.2-7-3.2-9.9-2-2-7-4.7-12.8-7-12.7-5-16-4.8-23.4 2.3-4.6 4.3-6 5.1-9.2 5.1-3.5 0-4.7-1-17.7-14l-14-13.8.6-4.1c.4-3.1 1.8-5.4 5.6-9.7 6.4-7 6.5-9 1-22.1-5.3-12.7-8-15.3-15.6-15.3-7.4-.1-12-1.8-14.7-5.3-1.8-2.5-2.1-4.5-2.4-18.4-.3-10 0-17 .8-19.5 1.6-5.6 5.7-7.8 14.3-7.8 9 0 11.3-2 16.8-15.9 5.3-13.4 5.1-16-2-23.7-4.3-4.7-5-6.1-5-9.6 0-3.8.6-4.7 13.4-17.6C51 26.8 52 26.2 55.7 26.2c3.4 0 4.8.7 9.7 5.2 5 4.6 6.2 5.2 10.1 5.2 2.9 0 7.9-1.4 14.5-4.2 13-5.3 14.6-7.3 15.1-18 .3-6.8.7-8.1 3-10.4 2.3-2.3 3.9-2.8 12-3.5 10.3-1 24.8-.4 29.1 1.3 3.7 1.4 5.7 5.6 5.7 11.8 0 5.7 1.8 10.7 4.7 13.2a98 98 0 0024.8 9.8c3.7 0 7.3-2.1 12-6.9 3.3-3.4 4.6-4 8-4 3.7 0 4.6.6 17.2 13.2a108 108 0 0114 15.5c1 3.8-.5 7-5.7 12.7-6.4 7-6.4 9.5-.7 23.5 5.4 13 7 14.3 17.8 15 6.4.5 8.4 1.1 10.4 3 3.4 3.1 5 13.5 4.2 26.5-.9 13-1.4 15-4.4 18-2.2 2.2-3.4 2.5-9.2 2.5-10.7 0-12.6 1.6-18.3 14.6-2.6 6-4.7 12.5-4.7 14.3v3.5l-2.7-2.5c-1.4-1.3-8-8.3-14.5-15.6l-12-13.2 2.3-7.3c1.8-6 2.2-9.5 2.2-19.3 0-10.7-.4-12.9-3.1-20.7-4-11.4-9-19.4-17-27.5a68.6 68.6 0 00-63-19.8 71.4 71.4 0 00-54.8 53.3c-2.2 9.4-1.5 28 1.4 36.3a70.7 70.7 0 0088.8 45.7c3-1 3.3-1 9 5.3l13.2 14.2c4.1 4.2 7.3 7.9 7 8-.2.2-3.5 1.6-7.4 3.1-16.3 6.5-18.5 8.8-18.5 19.7 0 12-3.6 14-25.5 13.7-6.6 0-13-.2-14.5-.5z"/>
  </g>
</symbol>
<symbol id="service09" viewBox="0 0 280 280">
	<g >
		<path d="M32 264.6V250h38.2l-.7 13.8c-.4 7.5-1 14-1.2 14.2-.2.3-8.5.6-18.4.8l-17.9.3v-14.5zm178-.1V250h37v29h-37v-14.5zM7.8 244.3c-3.4-.5-7.8-5.6-7.8-9 0-4 2.7-8 6.1-9.2 2.3-.8 40.7-1.1 133.6-1.1 139.7 0 135.5-.1 138.2 4.8 2 3.6 1.3 8.8-1.5 12.1l-2.6 3.1-131.6-.1c-72.5-.1-133-.4-134.4-.6zM20 218.9c0-.8 7.9-27 17.4-58.4l17.4-57h169.5l17.5 57.2c9.7 31.5 17.3 57.6 17 57.9-.4.3-54.2.8-119.7 1.1-102 .5-119.1.4-119-.8zm169.6-14.2c.8-.8-.3-5-11.3-46.3l-8.6-32.2-29.4-.7a362 362 0 00-30-.1c-.7.7-21.3 76.4-21.3 78.3 0 .9 3 1.3 9.8 1.6 15.2.6 90.1.1 90.8-.6zm50.4-76.6c-1.4-6-2.8-3 17.8-37 6.2-10 11.2-18.6 11.2-19 0-.4-11.5-5.1-25.5-10.5A293 293 0 01217 50.5c-1.2-1.4-.2-7.5 1.2-7.5 2.3 0 59.5 22.3 62 24.2 1.6 1.2.9 2.7-7.3 16.3a1171 1171 0 01-29.7 47.5l-2 2.4-1.2-5.3zM181 61l-28.5-11.3c-1.3-.5.8-3.6 15.9-23l13-16.9 3.6.6c3.9.6 27 9.3 28.4 10.6.9.9-2 46.6-3 49.6-.4.8-.9 1.4-1.3 1.3-.3 0-13-5-28.1-11zm18-50.3c-5.3-2-8.5-3.7-8.5-4.7 0-2 6.3-6 9.7-6 4.1 0 9.7 5.5 10.5 10.3.7 4.7-.2 4.7-11.7.4z"/>
  </g>
</symbol>
<symbol id="service11" viewBox="0 0 500 500">
	<g >
		<path d="M114 498.4a120 120 0 01-46.4-13.6 121.2 121.2 0 01-53.1-52.7 122.8 122.8 0 01-5.8-103.3 123 123 0 0139-52.6l5.8-4.6 8.3 3.5a163.7 163.7 0 0058.1 12.3c11.7 0 15.2-1.2 20.1-7.3 2.5-3 3-4.9 3.4-10.2.4-5.5 0-7-2.2-10.8-4.2-7.2-8-8.9-21.7-9.8-25.5-1.7-44.1-8-65-21.7a146.2 146.2 0 01-31.1-30.2 124.8 124.8 0 01151-187.1 135.8 135.8 0 0149.4 38.5l3.5 5-3.3 7.7c-7.5 17.8-11.4 35-12.1 54-.5 12.2-.4 13.9 1.4 17.5 1.2 2.2 3 4.7 4 5.6 8.8 7.8 23.4 6 29.3-3.7 1.8-2.8 2.4-6 3.1-15.6 2-26.5 9-47 22.7-66.5A124.8 124.8 0 01496.2 98c10 47-7 94.6-44.8 124.8l-5.6 4.5-10.9-4.3c-19-7.6-37.7-11.4-55.8-11.4-11.5 0-15 1.3-20 7.3-2.4 3-3 4.9-3.3 10.2-.4 5.5 0 7 2.2 10.8 4.2 7.2 8 8.9 21.7 9.8a123 123 0 0183 36.8c18.3 18.4 30 40.8 34.5 66.2 2 11.4 2 32.1 0 43.3A125.2 125.2 0 01396 497a139.8 139.8 0 01-46.4-.5c-29.2-6-54.6-21.7-73.4-45.3l-4.6-5.7 3.4-8a161.7 161.7 0 0012.5-58.4c0-11.7-1.3-15.1-7.4-20-3-2.5-4.8-3.1-10.1-3.5-5.6-.3-7 0-10.9 2.2-7.1 4.2-8.8 8-9.8 21.6A124.6 124.6 0 01156 495a190 190 0 01-33 4.3l-9-.9zm152-184a67 67 0 10-32.8-130 67 67 0 0032.8 130z"/>
  </g>
</symbol>
<symbol id="svglupa" viewBox="0 0 64 64">
	<g fill="none">
		<circle cx="22" cy="22" r="18" stroke-width="8" />
    <path stroke="#b1b8be" stroke-width="4" d="M12 22 l20 0" />
    <path stroke="#b1b8be" stroke-width="4" d="M22 12 l0 20" />
    <path stroke-width="8" d="M32 32 l18 18" />
  </g>
</symbol>
<symbol id="icon-close" class="feather" viewBox="0 0 24 24" style="fill:none">
	<g>
		<line x1="18" y1="6" x2="6" y2="18"></line>
		<line x1="6" y1="6" x2="18" y2="18"></line>
	</g>
</symbol>
</svg>