<svg version="1.1" 
xmlns="http://www.w3.org/2000/svg" xmlns:xlink="http://www.w3.org/1999/xlink"
style="display: none">
<symbol id="systemair" viewBox="0 0 887 218">
	<g>
		<path d="M163.6 217.5a90.4 90.4 0 01-50.6-27.4 87.4 87.4 0 01-23.6-55.8l-.6-8.7H0V0h205.3v44.9l11.5 5.6a86 86 0 0141.4 41c5.8 11.6 8 20.3 8.7 33.3a81.9 81.9 0 01-9.2 45.2 90.5 90.5 0 01-51.4 44.3c-12.2 3.8-29.7 5.1-42.7 3.2zm40.1-7.8c26-9 45.1-27.7 53.7-52.9A82.2 82.2 0 00244 78.7a96.4 96.4 0 00-21-19.2 99.3 99.3 0 00-31.4-11.7h-2.2l-.2-17.6-.3-17.5-85.7-.3c-47.2-.1-86 .1-86.3.5-.3.4-.4 23.4-.2 51l.2 50.5H95.2v15.2a65 65 0 005.8 32.6c7 17.4 23 34.3 40 42.5 14.2 6.8 20.9 8.1 40 7.7a59 59 0 0022.7-2.7zm-33-5.4c-9.7-1-23.5-5.8-31.7-10.9a87 87 0 01-24.7-24.7A74.6 74.6 0 11245.6 98l3.7 8c3.2 5.9 4.4 29.9 2 40.7-1.5 7.3-8 21-13.3 28.1a85.8 85.8 0 01-21.2 19 61.3 61.3 0 01-18.6 7.8c-1.2 0-2.4.4-2.7.8-.5.8-3.9 1.4-14.6 2.3-1.8.2-6.4 0-10.3-.4zm26-7.4a72.8 72.8 0 0046.5-41.6 69.2 69.2 0 00-37.4-88.7c-.2 0-.6 11.9-.7 26.4l-.3 26.5-2.1-6.2a63.3 63.3 0 00-15.4-22.8 52.6 52.6 0 00-44.1-9.4c-15.4 3.2-25.6 13.3-32.2 31.9-2.7 7.6-2.9 23.7-.5 33.4a69.4 69.4 0 0051.2 50.8l8.5 2c3.9.9 20-.5 26.5-2.3zM23.1 107.2a819 819 0 01-.6-44.5v-44h160.3v28l-9.6.4a84.4 84.4 0 00-66 39 99.8 99.8 0 00-9 20c-.6 1.6-3.2 1.7-37.5 1.7-20.3 0-37.2-.3-37.6-.6zm336 50.5L374 130l9-16.8-3.7-6.6-17-30.9c-7.4-13.3-13.4-24.3-13.4-24.6 0-.2 3.7-.4 8.3-.4h8.4l1.8 3 6.7 12.5c11.4 21.6 16.4 30.5 17 30.5.5 0 6-10.4 12.2-23l11.3-23h8c4.8 0 7.8.4 7.8 1s-3 7-6.9 14.3a19128.1 19128.1 0 00-26.8 51.8c-2 3.6-8.7 16.5-15 28.8l-11.5 22.3h-16.8l5.8-11zm-54.9-30.6c-13.6-4.3-24.6-16.4-26.3-28.9l-.6-4 7.2-1.5c5-1 7.3-1.1 7.6-.4l1.3 4.8c2.1 8.5 10 15.2 19.5 16.8 10 1.6 21.1-5.6 24-15.5 4-13.4-.7-21.7-16.6-29l-16.5-7.8c-17.2-8.2-24.1-20.4-20.3-35.4 2.7-10.5 9.2-17.3 20.7-21.7 8.4-3.2 21.4-3 28.7.3 8.5 4 18 13.6 16 16-.5.7-3.2 2.4-6 3.9l-5 2.6-4.7-4.6c-3.9-3.7-5.9-5-9.8-5.7-18.6-4-33.2 15-20.4 26.7 3.2 3 8 5.4 18.9 9.7 16.1 6.3 24.8 13 29 22.5 3 6.5 3.3 20.4.7 27.3a36.8 36.8 0 01-24.2 23.4 46.2 46.2 0 01-23.2.5zm141.1-.2a27 27 0 01-13.8-10c-3.4-4.4-2.8-5.7 3.6-8.5l5.8-2.5 3 3.6c4 4.6 7.8 6.2 13 5.5a10 10 0 009-10c0-4.9-1.7-6.5-13.2-12.6-13.5-7-16.6-9.5-19.2-15.3-4-9 1.6-22.2 11.3-26.6 5-2.3 14.7-2.3 19.8 0 3.7 1.7 11 9.1 10.5 10.7-.2.4-2.7 2.1-5.7 3.7l-5.4 3-3.2-3.1c-4-4-8.7-4.3-12.2-1-3 2.8-3 6.8 0 9.9 1.3 1.3 6.7 4.4 12 6.8 16.1 7.6 21 13.4 20.1 24.4-.7 10.4-5.1 16.7-14.8 21.1-6 2.8-14 3.2-20.6.9zm101.7.2a37 37 0 01-25.8-31.9c-1-7 .4-18.5 3-25.7a37 37 0 0119-18.8c5.7-2.1 18.6-2.9 24.5-1.4 14.7 3.6 25 18 25.2 35.4v5.8l-28.5.4-28.6.5.3 2.4c1.6 12.3 10.8 21.5 21.7 21.5 7.9 0 11.3-1.6 17.6-8l5.9-6.2 5.6 3c3 1.7 5.6 3.5 5.6 4.1 0 3.1-7.4 11-13.6 14.6A44.1 44.1 0 01547 127zm31-48.3c.7-1.2-1-5.5-4-9.7-6.5-9.4-21.9-10.5-31-2.2a21 21 0 00-5.8 10.9c0 1.8.5 1.9 20 1.9 11.3 0 20.4-.4 20.7-.9zm165 48a35.3 35.3 0 01-21.7-20.7c-2.4-5.7-2.7-7.3-2.7-18 0-10.4.3-12.3 2.3-16.8 6.5-14.7 17.8-22.7 32-22.8 9 0 14.9 2.3 21.5 8.4l5.6 5.2V50.6h15v75h-15v-10.5l-5.2 4.7a32 32 0 01-31.8 7zm21.2-12.6c15.1-4.5 21.6-28 11.8-42.7-7.5-11-25.3-13.2-34.8-4.2-5.5 5.3-7.5 10.1-8 19.6-.3 8-.1 9 2.5 14.6a22.9 22.9 0 0028.5 12.7zm-273-19V64.8l-3.5-.3-3.5-.3-.3-6.8-.2-6.8h7.5l.3-14.3.2-14.3 7.3-.2 7.2-.3.3 14.3.2 14.4 6.9.2 6.8.3-.3 6.8-.3 6.7-6.8.3-6.7.3v60.8h-15V95.2zm111.6-7V50.5h15v3.8c0 2 .4 3.7.8 3.7s2-1.2 3.4-2.7c9.2-9.7 27-8.8 35 1.5 1.2 1.7 2.7 3.1 3.1 3.1.5 0 2.2-1.5 3.7-3.2 1.6-1.8 5.2-4.4 8-5.8 4.5-2.2 5.9-2.4 13.4-2.1 7.6.3 8.8.6 12.4 3.2 5 3.4 9 10.7 10.2 18.7.5 3 1 16.7 1 30.2v24.6h-14.9l-.3-26.5c-.3-24.3-.5-26.7-2.2-30.1-2.7-5.4-5.8-7.3-11.6-7.3-6.5 0-10.2 2.4-13.2 8.1-2.3 4.6-2.4 5.1-2.9 30l-.4 25.4-7.2.2-7.2.3-.3-26c-.5-28.7-1-32.1-6.4-36-3.2-2.2-11-2.5-15-.4-7.5 3.8-9.3 12-9.4 41v21.3h-15V88.1zm206.3 0V50.5h15v75h-15V88.1zm30.9 0V50.6h14v3c0 1.7.3 4 .6 5.2.6 1.9.8 1.8 3.5-1.8 4.3-5.6 9.9-8.2 17.3-8.2 5 0 9.9 1.3 12.2 3.2.4.4-5.6 11.7-6.4 12.3-.5.3-1.8 0-3-.6a20.6 20.6 0 00-14.6.6c-7.8 5.1-8.9 9.7-9.2 37.9l-.3 23-7 .2-7.1.3V88.2zm-28.7-63.7c-10.1-6.4-1.6-22.2 9.4-17.6a9.8 9.8 0 013.6 15.6 10.1 10.1 0 01-13 2z" />
	</g>
</symbol>
<symbol id="lg" viewBox="0 0 2000 942">
	<g>
		<g>
			<path d="M434.8 941.7a473 473 0 01-244-91.4A503.2 503.2 0 0193 752.8a471.2 471.2 0 01114.2-672A463.8 463.8 0 01459.2.3c105.6-3 209 29.7 294.2 93.3a473.7 473.7 0 01185.9 318.3c5.4 44 4.5 92.5-2.5 136a478.6 478.6 0 01-56.4 158.5 528.3 528.3 0 01-51.8 73 471.2 471.2 0 01-322.7 162.5 703 703 0 01-71 0zm79-77.4a395.2 395.2 0 00345.4-320.5c4.1-22.2 5.7-39.1 6.3-65.7l.6-25.3-140.9.3-140.9.2-.3 18.3-.2 18.2 122.2.3 122.3.2-.3 6.5c-2 41.8-14.8 89.7-35.2 131.5a342 342 0 01-66.8 94 357 357 0 01-211.2 104.2 505.5 505.5 0 01-87.2 0 358.3 358.3 0 01-311.4-309.7c-2.3-15.9-2.6-72-.6-87 9.2-66.6 31-121.3 68-171A356.1 356.1 0 01402 120.4c21.8-4.3 36.3-5.7 63.2-6.3l25.7-.5V76.5l-25.2.6c-32.2.8-53 3.2-80.8 9.4a396 396 0 00-301 309.3c-8 40.6-9.2 91.1-3 133.5a391.6 391.6 0 00111.4 221 394.2 394.2 0 00258.1 116c12.1.7 49.4-.4 63.5-2zm70-205v-18.5h-93l-.2-188.2-.3-188.3-18.7-.2-18.8-.3v414h131v-18.5zm-248-284.1a56.4 56.4 0 10-29.9-108.8 56.4 56.4 0 0029.9 108.8zm1388 342c-76.5-11-132.9-62.5-158.4-144.4-16.7-53.7-19-124-5.6-178.5 10.4-42.7 28-75.8 55-103.8a189.2 189.2 0 0158.2-42.1c37.2-18 78.1-25.8 126.8-24.2 59 1.8 107 18.5 145.3 50.6 31.5 26.4 46 55.4 53.2 106l1.5 11.8c0 1-15.2 1.2-73 1.2H1854l-.6-3.7a89.7 89.7 0 00-9.2-25.7c-13-21.4-39.6-33.2-67-29.7-41.5 5.3-67.5 38.5-77 98.1a409.8 409.8 0 000 79.4c8 52.7 29.7 85.7 64.2 97.3 7.4 2.5 9.3 2.7 25 2.8 19.6 0 25.1-1 38-7.4 19-9.4 31.7-27.4 40-56.5 1.4-4.9 2.8-10.6 3.2-12.7l.6-3.9H1781.8v-99h218v274h-119v-46.3l-4.8 6.4c-20.4 27-53 44.5-93.3 50.4-13.2 2-45.4 1.9-58.9 0zm-545-245.9V235.8h139l.3 176.8.2 176.7 103.3.3 103.2.2v117h-346V471.3z"/>
		</g>
	</g>
</symbol>
<symbol id="mitsubishi" viewBox="0 0 512 141">
	<g>
		<path d="M0 140.3c-.4-.6 8.2-16.4 22.3-41l3.3-5.8h21c11.5-.1 23.6-.5 26.8-.8l5.8-.7L69 73.8c-17.2-30.3-15.7-27-13.7-31.5A376 376 0 0180.2 0c.7 0 7.1 10.2 14.2 22.7l13 22.8-3.2 5.6L91 74.3 81 92l5.4.7c3 .3 14.6.7 26 .8 11.4 0 21.2.4 21.8.8.6.4 3 4 5.2 7.8 6.2 10.5 21.6 38 21.6 38.6 0 .2-12.2.3-27 .1l-27.1-.2-13.1-23c-7.2-12.7-13.4-23-13.7-23-.5 0-7.4 11.7-20.6 34.8l-6.3 11.2-26.4.2c-14.6.2-26.7 0-26.9-.5zm181.3-22.5V94.6H211.6v7h-8c-4.3 0-9.3.3-11 .7-3 .6-3.2.9-3.2 5v4.4l10.4.3 10.3.2.3 3.8.4 3.8h-21.5l.3 6.4.3 6.3 11.4.3 11.4.2v8h-31.4v-23.2zm39 22.4c-.3-.5-.9-11-1.2-23.3l-.7-22.3h9.4v13.3c0 7.4.3 15.8.7 18.6l.6 5.2 10 .7 10 .7-.2 3.8-.3 3.7-13.9.2c-7.7.2-14 0-14.4-.6zm34.8-22.4V94.6h30.5l-.3 3.7-.3 3.8-11 .3-10.8.3v9l10.4.3 10.4.2.3 3.8.3 3.8h-21.4v12l11 .6 11 .7.7 3.1.6 4c0 .5-7 .9-15.7.9h-15.7v-23.3zm47 21.4c-7-4.4-9.8-10.4-9.8-22 0-8.9 1.4-12.8 6.2-18 3.8-4 7.4-5.7 13-5.7 5.8 0 10.5 2.7 13.4 7.4 2.9 4.7 2.6 6.5-1 7.3-2.8.6-3.7.2-6.6-3-7.5-8.2-16.7-1.5-16.7 12.2 0 8.8 4 15.6 9.2 15.6 3 0 9-4.4 9-6.6 0-.8.4-1.6.9-2 1.4-.8 8.2 1.7 8.2 3 0 .7-1.4 3.5-3.2 6.2-2.5 3.7-4.3 5.2-7.4 6.1-6 1.8-11.7 1.6-15.1-.5zm42.6.3c-.3-1-.6-9.5-.6-19.2v-17.6l-5.8-.3-5.8-.3-.3-3.8-.3-3.7h33.6l-.3 3.7-.3 3.8-5.9.3-5.8.3v12.4c0 6.8-.3 15.4-.6 19.1l-.7 6.9h-3.3c-2 0-3.5-.6-3.9-1.6zm26.4.9c-.4-.4-.7-10.9-.7-23.3V94.4l13.7.3 13.8.4 3 3.4c2.9 3.1 3 3.9 2.7 9.3-.5 6-3.4 11-6.5 11-2.5 0-2.6 2.3 0 5a81 81 0 019.7 16.6c0 .4-1.7.7-3.9.7-4.5 0-6-1.4-12.3-11.5-4.3-6.8-8.3-10-10.4-7.9-.5.6-1.2 5.1-1.5 10.2l-.5 9.2H375c-1.8 0-3.5-.3-4-.7zm23.4-32c.4-5-.6-5.7-8.7-5.7h-6.3v10.1l7.3-.3 7.4-.3.3-3.9zm17.4 9.4V94.6h8V141h-8v-23.3zm27.8 22.5a17 17 0 01-9.8-8.7 43.4 43.4 0 01-2-23.7c1.4-4.8 6-10.7 10.4-12.9 6.1-3.2 17-.7 21 4.8 3 4.2 3.2 5.7.8 7.4-3.2 2.2-4.5 1.9-8.2-2-4.1-4.4-8.6-4.8-12.2-1.2-7 7-4.9 26.6 3.1 28.6 3.6.9 9.1-2 10.8-5.8 1.4-3.3 1.4-3.3 5.7-1.8 2.9 1 3.2 1.5 2.6 3.8a19 19 0 01-9.2 10.9 24 24 0 01-13 .6zM181.3 59.6V35.8l6.3.3 6.2.3 3.5 14.5c2.3 9.6 3.7 14.1 4.3 13.2.5-.8 2.3-7.4 4-14.8l3.2-13.4h13v46.5h-8.1V66.6c0-8.7-.3-15.6-.5-15.4-.3.3-2.1 7.3-4 15.5a72 72 0 01-4.8 15.9c-2 1.2-5.5 1-6.8-.5-.6-.8-2.7-8-4.6-16l-3.5-14.5v15.9l-.1 16h-8V59.5zm48.8.3l.3-23.5 3.7-.3 3.8-.3v47.6h-8L230 60zm26.2 22.3c-.8-.8-1.2-6.7-1.2-19.7V44H243l.3-3.8.3-3.8h33.4l.3 3.8.3 3.8h-13.3v39.4H261c-1.8 0-3.9-.5-4.6-1.2zM289 82c-4-1.7-8.5-8.2-8.5-12 0-2.5.4-2.8 3.6-2.8 2.8 0 3.8.6 4.7 2.7 3.4 7.3 16 6.9 16-.6 0-2.7-.6-3.1-8.5-6.1-10.3-3.9-13.8-7.2-14.4-13.3-.9-8.3 5.5-14 15.5-14 6.2 0 11.4 2.7 13.9 7.3 2.6 4.7 1.6 6.9-3 6.9-2.8 0-3.8-.6-4.7-2.6-1.9-4-10-4.9-12.4-1.2-1.8 3 .6 5 8.8 7.9 4.2 1.4 8.4 3.2 9.3 4 7 5.8 5.5 19.3-2.6 23.5a26.4 26.4 0 01-17.7.3zm40.3-.2c-1.8-.9-4.3-3.2-5.5-5.2-2-3.3-2.2-5-2.2-21.9l-.1-18.3 4.2-.3 4.2-.3.3 17.8c.4 17.4.4 18 2.8 19.8 1.3 1 3.6 2 5.2 2 1.5 0 3.8-1 5.1-2 2.4-1.9 2.4-2.4 2.8-19.7l.3-17.8h9.3l-.7 18.7c-.7 20.1-1.4 23.2-6.3 26.4-3.7 2.5-15.2 3-19.4.8zm35.1-22V36h6.4c12.8.2 19.8 1.4 22.6 4.2 3.7 3.7 4.3 9.8 1.4 14.5l-2.2 3.6 3.1 3.5c2.3 2.6 3.1 4.6 3.1 7.4 0 4.9-2.8 10.5-6.2 12a73 73 0 01-15.4 2l-12.8.6V59.8zm23.5 13.4c2.3-1.2 2.4-5.7.2-8.1-1.4-1.5-3.2-1.9-8.6-1.9h-7v12.4l6.8-.7c3.7-.4 7.5-1.1 8.6-1.7zm-2.4-19.7c1.7-1.2 2.2-2.4 2-4.8-.3-3.6-2.3-4.4-10.2-4.6l-4.8-.1V55h5.4a15 15 0 007.6-1.6zm20.6 6.4l.3-23.5 3.8-.3 3.8-.3v47.6h-8.1L406 60zm24.1 22.4c-3.6-1.4-6-3.9-8.3-8.3-2.5-5-1.8-6.8 2.6-6.8 2.8 0 3.9.6 5.3 3 3.1 5.3 9.3 6.6 13.9 3 4.8-3.7 2.7-6.7-6.9-10-12-4-15.8-8.7-14.2-17 1.2-6.6 6.4-10.3 14.4-10.3 7 0 13.1 3.1 15 7.7 2 4.8 1.3 6.5-2.9 6.5-2.6 0-3.9-.8-5.6-3-1.8-2.5-3-3.1-6.1-3.1-2.6 0-4.5.7-5.7 2-1.7 1.9-1.7 2.2-.2 3.9 1 1 4.6 2.8 8.2 4 3.6 1.4 8.3 3.9 10.4 5.7 3.6 3.2 3.8 3.7 3.8 9 0 6.5-2.2 10.3-7.6 13a25 25 0 01-16.1.7zm32 .5c-.4-.4-.7-11.1-.7-23.9V35.8l4.3.3 4.3.3.3 8.9.3 8.8h16l.3-8.8.3-8.9 3.8-.3 3.8-.3v47.6h-8.1V63.2h-16.2V71c0 11-.5 12.4-4.5 12.4-1.8 0-3.5-.3-3.9-.6zm42-22.9l.3-23.5 3.8-.3 3.8-.3v47.6h-8.1L504 60z"/>
	</g>
</symbol>
<symbol id="wilo" viewBox="0 0 174 67">
	<g>
		<path d="M0 33.5V0h173.7v66.9H0V33.4zm172.5 0V1.2H1.2v64.5h171.3V33.4zm-37.7 19.7a23 23 0 01-11.4-6.3 18 18 0 01-5.4-12.3c-.2-4 .2-6.1 1.9-9.7 2.6-5.3 7.8-9.5 14.1-11.1 3.3-1 9-1 12.2 0A21.9 21.9 0 01162 29.6a23 23 0 01-.7 10c-2.5 7-8.6 12-16 13.6-2.7.6-8 .6-10.5 0zm7.7-10.4c7.7-1.8 10.5-10.7 5.1-16-6.1-6.1-16.8-2.4-17.3 6-.2 2.9.6 5.2 2.6 7.1a9.1 9.1 0 004.9 2.8c2 .6 2.7.6 4.7 0zM17.6 33.5l-6.2-18.9c0-.1 2.8-.2 6.2-.1h6.2l3 9.6 3 9.7 3-9.6 3-9.6 5.8-.1 5.7-.1 1 3c4.4 13.8 5.2 16.2 5.3 16L59 16l.4-1.6h6c4.7 0 6 0 6 .4-.2.2-2.8 8.7-6 18.9l-5.8 18.5h-5.7l-5.7-.1-3.4-10-3.5-10.2L38 42l-3.3 10.2H23.8l-6.2-18.7zm50.6 18.3l6.1-19 6-18.3 6.2-.2H93l-6 18.9L80.8 52l-6.4.1c-5.6.1-6.3 0-6.2-.3zm20.6.3L95 33.3l6-18.8h6.1c4.6 0 6.1 0 6.1.2l-8.6 27.5c-.2.4 1 .4 6.6.3 4.5 0 6.8 0 6.7.3l-1.4 4.8-1.3 4.6H88.9z"/>
	</g>
</symbol>
<symbol id="swegon" viewBox="0 0 551 144">
	<g>
		<path d="M299.6 143c-14.7-2.5-21.6-8.8-22.7-20.8l-.5-5.3h27.1l.6 2.8c1.3 5.5 11.2 8.2 18.9 5 4.2-1.8 5.6-4.5 6.4-12 .6-6.6 0-8-2.3-5.3-4 4.8-21.2 6.1-30.8 2.4A31.4 31.4 0 01277.5 88l-1-4.3-24.5.2-24.4.3.3 3c.5 6.3 5.2 10 12.7 10 4 0 5-.4 8-3.3 2-1.9 3.7-4 4-4.8.3-1 2.2-.6 10.2 2.7 5.4 2.1 11.2 4.6 12.8 5.4l3 1.5-5.4 5.8a43.8 43.8 0 01-34.5 14.3c-22.1 0-37.3-11.9-41.3-32.3-1-4.8-1.3-5.5-1.8-3.6l-7.6 25.4-2.3 7.8h-30.1l-3.9-17.6a419 419 0 01-4.4-22c-.5-4.3-2-5.4-2-1.5 0 1.1-1.4 8.5-3 16.4l-4.2 19.6-1 5.1h-14.8c-13.2 0-14.8-.1-15.5-1.5-.5-.9-2.2-6.4-4-12.2a73.2 73.2 0 00-3.4-10.5c-.3 0-1.5 2.3-2.7 5.1-4.3 10-15.1 17.7-29 20.6-4.9 1-10 1.3-19.6 1-20.5-.7-32-5-43.1-15.8C.4 98.3-.6 96.8.3 96c.6-.6 6.2-4.4 12.5-8.5l11.4-7.3 1.8 2.4c5.3 7 12.1 10 24.4 10.7 7 .4 8.8.2 12.3-1.4 4.6-2 6-4.9 4.3-8.3-1.5-2.7-5.2-4-19.2-6.7-18.6-3.5-26.6-6.8-32.8-13.2a29.8 29.8 0 01-4.4-31.8 33.8 33.8 0 0115-15.8c21.3-10.8 56.7-6 71.4 9.7l2.5 2.7-7 5.7-6.9 5.8 14.8.4 14.7.5 2.5 11.7c1.4 6.4 3.5 17.2 4.6 23.8l2 12.2 1.6-10c.9-5.4 3-16 4.5-23.8l3-14h25.9l2.5 11.8c1.4 6.4 3.5 17 4.6 23.4l2 11.7 1.2-6.8c.7-3.7 2.6-14.2 4.5-23.4l3.2-16.6 14.4-.3c7.9-.1 14.8 0 15.4.2.9.3.8 1.4-.1 4.7-1.8 5.8-1.7 6 1.9 2.6 12.3-11.3 34.2-13.7 50.8-5.6a41.2 41.2 0 0115.7 16c1.8 4 2.3 4.5 2.8 3a31.1 31.1 0 0124.6-22c10.6-2 19.7-.5 25.8 4.2l4.1 3.1-.3-3-.3-3h26.1l.3 8.4.2 8.4 3.6-4.5c8.2-10.4 19.8-15.4 35.7-15.3 17.4 0 30.1 6 38.3 18 1.4 2.1 1.5 2 1.5-6.6v-8.8h28.9v9l3.5-3.3c5-5 11.3-7 21.2-7 13 .1 20.3 4.4 25 14.4 2 4.3 2 5.4 2.3 33.5l.3 29H488.2V93.1c0-14.8-.4-23.6-1-25-2.7-5.9-14.7-5.5-18.1.5-.8 1.4-1.2 8.7-1.5 24.7l-.3 22.7h-29.5V97.7L435 102c-7 10.6-21 16.8-38.2 16.8-16 0-29.5-6.2-36.6-17-1.5-2.3-1.5-2.2-1.6 4-.2 23.6-6.9 32.6-27 36.9-7 1.4-24.4 1.6-32 .4zm105-47.3c6.5-3.3 9-20.3 4.4-29.6-2.6-5.2-5.4-7-11.5-7-8 0-13 6.9-13.2 18.2-.2 16.1 8.7 24.2 20.3 18.4zm-81.4-5.4c3.6-2.2 4.9-6.2 4.9-14.2 0-8.4-.8-11-4-13.9-5-4.6-13.6-3-16.8 3.4-3.7 7.3-3 19.3 1.3 23.4 3.8 3.6 10 4.1 14.6 1.3zM248.8 66c0-2.8-2.7-6.5-5.9-8a9.9 9.9 0 00-10.6 1.2c-1.8 1.6-4.2 5.8-4.2 7.3 0 .6 3.7 1 10.3 1 8.8 0 10.4-.3 10.4-1.5zM88 53.3a166 166 0 01-2.7-9.5c-.7-3-1.3-3-3.5-.7-2.1 2.4-2.7 2.3-6.7-1.1a32 32 0 00-18.5-6.6C46.4 34.4 41 36.8 41 42c0 4 1.6 4.6 25.6 9.6a70 70 0 0123.1 8.5c.4 0-.4-3-1.6-6.8zM518 29c.4-7.2 1-10.8 2.3-13.9 3.9-8.5 12-13.6 24-14.8 5.5-.6 5.7-.5 6.3 1.6 1 4 .6 14.8-.8 19-3.6 10.5-15.7 17.7-29.5 17.7h-2.6l.4-9.6z"/>
	</g>
</symbol>
<symbol id="amalva" viewBox="0 0 143 35">
	<g>
		<path d="M36 35l-4-.2c-17-.9-27.8-3.9-31-8.6-.7-1.1-1-2.1-1-3.5 0-5.8 7.4-10.8 21.7-14.8 4.5-1.3 11-2.7 16-3.5 1.4-.2 2-.4 3-1 .7-.3 1.4-.7 1.5-1l1.6-1.3 1.4-1h1.4C47.8 0 48 0 48.9.4l1 .5v.9c0 .5-.2 1.2-.3 1.4l-1.8 4.3c-.3.9-.7 1.6-1.1 1.8-.3.2-.4.2-.2.3.2.2.2.2 0 .7l-.3.8-.1.7-.2.7-.1.3-.3.3c0 .2-.2.3-.3.2-.2 0-1.1.3-1.1.5h.3c.7-.2.8.1.4 1.2-.6 1.7-.5 2 .3.8l1-1.1.4-.6.3-.2a56 56 0 018.8-9.3 4 4 0 013.8-1c1.4.3 1.6.5 1.6 1l-.1.5-.3.9a23.8 23.8 0 01-3.2 6.3c0 .1 0 .4-.3.7l-.3.8c0 .2 0 .4-.2.6-.4.3-.5.9-.2 1 .2.1.9-.2.9-.4l-.2-.1c-.2 0-.2 0-.2-.2h.3c.3.2.9-.2 1.9-1.2.6-.7 1.8-1.7 2.7-2.5.3-.3.6-.6.6-.9 0-.2.3-.5 1-.9.8-.5 1-.5 2-.5 1.6 0 2.6.4 2.8.9 0 .4-.6 2-1.2 2.7-.4.4-.5.7-1 2l-.4.9c-.2.1-1.5 2.9-1.6 3.3l-1 2.2c-1.3 2.4-1.4 2.9-1.3 3.6.1.3.2.3.4.3.3-.1.8.1.8.3 0 .2-1.8.3-2.7.1-1-.2-1.8-.6-2-1-.2-.5-.2-1 0-1.1a42.6 42.6 0 002.4-5.3c0-.2.2-.3.3-.4.2 0 .4-.4.6-1.2.4-1.3.4-1.3 0-1.3l-.3.4a58.7 58.7 0 00-7 7.6l-1.5 1.8c-.7.7-1.4 1.4-1.4 1.6a3 3 0 01-1 .8c-.7.4-1 .4-1.1.3l-.7-.2c-.5 0-1.5-.5-1.7-1-.2-.2-.1-.4.3-1a16.9 16.9 0 001.7-3c0-.1 0-.2.2-.2l.2-.2.2-.4c.1-.1.2-.3.1-.4 0-.2 0-.3.2-.4l.6-1 .8-1.1.7-1.3a198.2 198.2 0 013.9-8c0-.2-.2-.3-.4-.4-.2 0-.4 0-.6.4l-1.3 1.4c-.5.5-1.3 1.3-1.6 1.8l-1.1 1.2-.5.6c0 .2 0 .3-.2.4l-.6.9a7 7 0 01-.9 1l-1 1.2a672.7 672.7 0 01-4 5.6c-.6.9-.9 1.2-1 1.6l-.3.4c-.1 0-.2 0-.2.2l-.5.8-1.7 2.4c-.4.8-1.5 1.8-2 1.8-.6 0-2-.5-2.3-.8-.5-.5-.5-.7 0-1.6.3-.3.5-.8.5-1l.3-.7.6-1c0-.2.3-.4.3-.4l.2-.4.7-1.7.6-1.5.4-1a22910.2 22910.2 0 013.6-8.2 70.6 70.6 0 002-4.4v-.4l1.1-2.7c.7-1.3 1.1-2.4 1-2.5-.1-.3-.7-.2-1 .2l-.5.4c-.1 0-.3 0-.4.2h-.2l-.3.3c-.2.2-.3.2-.4.1 0-.1-.7.2-1.6.9-.7.5-1.3.7-4.3 1.2-9 1.5-17.5 3.5-23.4 5.7-2.6 1-6.5 2.9-8.3 4-4.3 3-6.3 6.7-4.9 9.6 2 4.3 8.9 7 21.9 8.3 11.6 1.3 24.6 1.5 40.7.7a299 299 0 0056.1-7 67 67 0 0013.8-4.8c3-1.5 5-2.7 6.4-4.2 2.6-2.6 2.7-5 .3-7.4C136.3 6 125 3 107.2 2c-10.9-.6-25-.6-36.6.1-5 .3-4.6.3-4.6-.3v-.5l3.3-.1a313.4 313.4 0 0144.6.3c16.5 1.6 26.6 5.1 29 10.1.4.8.4 1 .4 2.4 0 1.5 0 1.6-.5 2.6-3.8 7-22.6 13-51.5 16.1A444.8 444.8 0 0136 35zM24.6 24.6c-2-.4-2.9-1.3-2.9-3 0-2.5 1.5-4.9 3.6-5.8 2.3-1 5.7-1.1 6.8-.1.4.3.5.2.8-1 .3-1.5-.1-1.8-3.3-1.6-2.3 0-3 .2-4.3.8-.9.4-.9.4-1.1 0-.3-.2-.3-.2.7-2l1-2 3.7.1 4.5.2a4 4 0 012.6 1.3c.4.5.4.6.4 2 0 1.3 0 1.7-1.4 6.3l-1.4 4.9h-4.5l-5.2-.1zm4.7-2.6c.5-.1 1-.4 1.3-.6.5-.5.9-1.4.9-2.1 0-.9-.4-1-2-1-2.1.1-3.2 1-3.2 2.5 0 .8 0 .9.6 1.1.6.3 1.2.3 2.4 0zm40.3 2.5c-1.9-.4-2.6-1.3-2.6-3 0-2.4 1.5-4.8 3.5-5.7 2.4-1 5.8-1.1 7-.1.3.3.2.3.6-.6.3-1 .3-1.4-.1-1.7-.3-.3-.6-.3-2.7-.3-2.5 0-3.6.2-5 .9-.5.3-.6.3-.9 0-.2-.3-.2-.3.7-2l1-2c.3-.2 8.4 0 9.3.4 1.5.6 2 1.4 2 3 0 .9-.2 2-1.4 6.2l-1.5 5h-4.4c-3.4.1-4.8 0-5.5-.1zm5-2.5c1-.3 1.5-.7 2-1.5.3-.8.3-1.5-.1-2-.2-.2-.5-.2-1.3-.2-2.4 0-3.7 1-3.6 2.7 0 .6 0 .7.6 1 .6.2 1.2.2 2.4 0zm7.3 1.9l3-10.3 2.6-9.3h4.2l-3 10.3L86 24.7H81.6l.3-.8zm9-4.2l-.1-7.4V10h4.1v5l.1 5.1 2.8-5 2.8-5h4.4l-4.2 7.4-4.1 7.2h-5.8v-5zm14.8 5l-1-.3c-1-.2-1.9-.8-2.2-1.6-.4-1-.2-2.8.6-4.4 1.2-2.3 3.7-3.5 7-3.4 1.4 0 1.7.1 2.3.5l.7.4.2-.7.2-1.2c0-.8-.5-1-2.6-1-1.9 0-3.9.4-5 .9-.9.4-1 .4-1.2.1-.3-.2-.2-.3.7-2l1-2a48.5 48.5 0 019.4.5c.5.1 1 .5 1.2.7 1.2 1.3 1.2 1.9-.7 8.3l-1.5 5.2H105.7zm4.9-3c.8-.3 1.3-1 1.4-2.2 0-.7 0-.8-.3-1-.6-.4-2.7-.3-3.6.3-1 .6-1.5 1.8-1.2 2.7.3.7 2.3.9 3.7.3z"/>
	</g>
</symbol>
<symbol id="korf" viewBox="0 0 297 74">
	<g>
		<path d="M80.7 72.2c-6.9-3.4-7.5-5.4-8-24L72 31.5l-35-11-35-11L1 5C.2 2.6 0 .4.1.2.4-.1 66.6 16 85.8 21.1l3.7 1-2.4 3.6c-2.4 3.5-2.5 4.1-2.5 21.7 0 16.3.2 18.4 2 21.4 1 1.7 2.4 3.2 3 3.2.6 0 1 .5 1 1 0 1.6-6.2 1.1-10-.8zM208 71.1c3.9-4 4.2-6.5 3.6-26.5-.5-16.6-.6-17.6-2.8-20l-2.4-2.5 3.9-1C220 18.5 295.6 0 296.4 0c.6 0 .5 1.9-.2 4.7L295 9.4l-7.4 2.4L252 22.9l-28 8.8-.5 17c-.4 14-.8 17.2-2.3 19.5-2 3-8.2 5.8-12.9 5.8h-3.2zm-75.9-5c-4.4-1.1-7-2.7-9.8-6-8.4-10 0-25.1 14.2-25.1 10.4 0 18 7.8 16.9 17.5-1.1 9.8-11 16.1-21.3 13.6zm8.5-11.1c2.7-2.7 2.5-5.6-.5-8.6-5.5-5.5-12.5 1.9-8 8.4 2 2.8 5.9 2.9 8.5.2zm-48-4V36h12v9.5l3.1-4.7 3.1-4.8h12.8l-5 7-5 7 5 7.4c2.7 4 5 7.5 5 8 0 .3-2.9.6-6.4.6h-6.5l-2.8-5-2.8-5-.5 4.7-.5 4.8-5.7.3-5.8.3zm62.7 14.3c-.4-.3-.7-7-.7-15V36h10c12 0 14.6.9 16.6 5.6 1.8 4.4 1.2 7.9-2 10.7l-2.3 2 3.1 5 3.1 5 .3-14.1.3-14.2h20.9v8h-4.5c-3.8 0-4.5.3-4.5 2s.7 2 4 2c4 0 4 0 4 4s0 4-4 4h-3.9l-.3 4.8-.3 4.7-12 .3-12 .3-2.2-4.3-2.2-4.3V66h-5.4c-3 0-5.7-.3-6-.7zm15.3-18.8c0-1.8-.5-2.5-2-2.5s-2 .7-2 2.5.5 2.5 2 2.5 2-.7 2-2.5zM40.1 49.7c-21.3-6.8-29-9.6-29.3-10.9-.2-1.3 4.8 0 25 6.4 34.5 11 35.1 11.1 35.6 12.6.2.6-.2 1.2-1 1.2-.7 0-14.3-4.2-30.3-9.3zm185.5 7.8c0-.8 1.6-1.9 3.8-2.5 2-.5 15.6-4.8 30.2-9.3 23.2-7.4 29.6-8.7 26.4-5.7-.8.7-58.4 19-59.9 19-.3 0-.5-.7-.5-1.5zM39.6 44C16 36.4 9 33.9 8.8 32.5c-.3-1.4 0-1.6 1.5-1L41 41.1c16 5 29.4 9.5 30 10 3.6 3.2-4.8 1.3-31.5-7.2zm186 8c0-.5.4-1 .8-1.4a1289 1289 0 0162.1-19c1.5 1.4-5.2 4-31.4 12.3-16 5-29.6 9.1-30.3 9.1-.6 0-1.2-.4-1.2-1zM39.1 38.5C12.2 29.8 5.2 27 6.7 25.6c.5-.5 61.8 18.6 63.8 19.9 1.5.9 1.4 2.5-.1 2.5-.7 0-14.8-4.4-31.3-9.6zm186.5 8.2c0-.8 3.3-2.4 8.8-4.1 50.3-15.8 55.3-17.3 55-15.7-.2 1.1-4.4 3-13.8 5.8A8178.4 8178.4 0 00226.2 48c-.3 0-.6-.6-.6-1.4zm-187.5-14c-23.6-7.5-32-10.5-32.3-11.8-.2-1.3 3.2-.5 18 4.2l33 10.4c13.5 4.3 16.2 5.6 14 7-.4.2-15-4.2-32.7-9.8zm187.7 8.8c.3-1.7 4.3-3.1 48.6-16.8 13.9-4.3 17.3-5 17-3.8-.2 1.2-8.8 4.3-30.8 11.2l-32.8 10.4c-2 .6-2.3.5-2-1zM36 26.6C12.8 19.2 4.1 16 3.8 14.8c-.2-1.3 4-.3 20.5 5 39.4 12.3 46.7 14.7 47 16 .3.7-.3 1.2-1.4 1.1-1 0-16.2-4.7-33.8-10.3zm189.5 9c0-.8 11.3-4.8 32.8-11.5 18-5.6 33.3-10.1 34-10.1 2.9 0-.3 2.8-5 4.2l-32.8 10.2c-15.2 4.7-27.9 8.6-28.3 8.6-.4 0-.7-.6-.7-1.3z"/>
	</g>
</symbol>
</svg>