<svg xmlns="http://www.w3.org/2000/svg" height="279.1" width="280.9"><path d="M32 264.6V250h38.2l-.7 13.8c-.4 7.5-1 14-1.2 14.2-.2.3-8.5.6-18.4.8l-17.9.3v-14.5zm178-.1V250h37v29h-37v-14.5zM7.8 244.3c-3.4-.5-7.8-5.6-7.8-9 0-4 2.7-8 6.1-9.2 2.3-.8 40.7-1.1 133.6-1.1 139.7 0 135.5-.1 138.2 4.8 2 3.6 1.3 8.8-1.5 12.1l-2.6 3.1-131.6-.1c-72.5-.1-133-.4-134.4-.6zM20 218.9c0-.8 7.9-27 17.4-58.4l17.4-57h169.5l17.5 57.2c9.7 31.5 17.3 57.6 17 57.9-.4.3-54.2.8-119.7 1.1-102 .5-119.1.4-119-.8zm169.6-14.2c.8-.8-.3-5-11.3-46.3l-8.6-32.2-29.4-.7a362 362 0 00-30-.1c-.7.7-21.3 76.4-21.3 78.3 0 .9 3 1.3 9.8 1.6 15.2.6 90.1.1 90.8-.6zm50.4-76.6c-1.4-6-2.8-3 17.8-37 6.2-10 11.2-18.6 11.2-19 0-.4-11.5-5.1-25.5-10.5A293 293 0 01217 50.5c-1.2-1.4-.2-7.5 1.2-7.5 2.3 0 59.5 22.3 62 24.2 1.6 1.2.9 2.7-7.3 16.3a1171 1171 0 01-29.7 47.5l-2 2.4-1.2-5.3zM181 61l-28.5-11.3c-1.3-.5.8-3.6 15.9-23l13-16.9 3.6.6c3.9.6 27 9.3 28.4 10.6.9.9-2 46.6-3 49.6-.4.8-.9 1.4-1.3 1.3-.3 0-13-5-28.1-11zm18-50.3c-5.3-2-8.5-3.7-8.5-4.7 0-2 6.3-6 9.7-6 4.1 0 9.7 5.5 10.5 10.3.7 4.7-.2 4.7-11.7.4z" fill="#545454"/></svg>