<svg xmlns="http://www.w3.org/2000/svg" height="218" width="1062.5"><path d="M8.9 216.7a31 31 0 01-5.5-5.1l-3.4-4V11.2l4-4c7.4-7.6-.5-7 105.2-7 90.3 0 95 0 98.3 1.8A27.6 27.6 0 01219 17.2c.8 5 .8 183 0 185.4a24.6 24.6 0 01-7.4 11.8l-4 3.6h-98.3c-75.2 0-98.7-.3-100.3-1.3zm193-8.8c1.3-.6 3.3-2.8 4.5-4.9 2.1-3.8 2.1-3.8 2.1-93.4 0-66-.3-90.3-1.2-92-.6-1.1-2-3-3.2-4C198.7 9 200.7 9 109 9c-61.9 0-87.3.3-89.7 1.1-1.9.7-4.5 2.1-5.7 3.3-5.1 4.6-5.2 5.3-5.2 56.5v47.6l2.4-3 2.4-3 27.5-.5 27.5-.5-9.9-10.2c-8.6-8.9-9.9-10.8-9.9-13.7 0-4.2 2.1-6 7.1-6 3.7 0 4.8.8 21.4 17.4 9.6 9.6 17.8 18.3 18 19.3 1 2.7-1.1 5.3-19.1 23.2-15.3 15.1-17 16.5-20.2 16.5-4.4 0-7.2-2.4-7.2-6 0-3 1.2-4.7 11.8-16 3.9-4.1 6.8-7.8 6.6-8.2-.3-.5-12-.8-26-.8-26.5 0-29.5-.4-31-4.4-1.3-3.2-1.7 73.2-.5 77.4.6 2 2.5 5 4.2 6.8l3.1 3.2h91.4c64.4 0 92-.3 93.7-1.1zM98.7 188.7c-19.5-19.5-20.9-21.8-16-25.1 4.4-3.2 6.4-2.1 17.8 9.1 6 5.9 11 10 11 9.3v-26.7c0-29.8.5-32.2 7-32.3 5.2 0 5.4 1 5.9 31.6l.5 28.4 10.1-10c7.9-7.8 11-10.2 13.6-10.6 2.5-.4 4-.1 5.1 1 3 3.1 2 6.4-4 12.9A422.2 422.2 0 01118 207c-.5 0-9.2-8.2-19.2-18.3zm-24.6-40.4c-1.4-1.3-.6-3.3 2.6-6.2l3.2-3h26.5l1 2.5c1.3 3.4 1.3 4-.6 5.8-1.3 1.3-4.3 1.6-16.8 1.6-8.4 0-15.6-.3-16-.7zm55.3-1.3c-1.2-2.2-.4-6 1.4-7.2.6-.4 3-.8 5.4-.8h4.2v-14c0-12.7.2-14 2-15 2.7-1.4 3.7-1.3 6 1 1.8 1.8 2 3.3 2 18.4 0 20 .2 19.6-11.8 19.6-7.2 0-8.3-.2-9.2-2zm35.2-11.5c-4.4-3.1-3-6.1 8.3-18 5.7-6 10.4-11.3 10.5-11.7 0-.5-12.7-.8-28.3-.8-20.7 0-28.6-.3-29.5-1.2-1.7-1.7-1.5-7.4.4-9.2 1.3-1.4 5.4-1.6 29.7-1.6h28.1l-5.5-5.7c-10.8-11.3-15.9-17.5-15.9-19.4 0-2.4 4.3-6.9 6.5-6.9 1 0 9.7 8 19.6 17.7 14.3 14 17.9 18.2 17.9 20.3 0 2.1-3.5 6.2-16.4 19.3-19.7 19.9-20.6 20.5-25.4 17.2zM96.3 95.3c-3.2-.8-3.9-6-3.8-32.1 0-14 0-25.6-.3-25.8A94 94 0 0081.4 47c-8.3 8-11 10-13.3 10-3.4 0-5.5-2.4-5.6-6.2 0-4 33-37.8 37-37.8 2.1 0 6 3.5 19.8 17.4 15.4 15.7 17.2 17.8 17.2 20.8 0 4.2-1.5 5.8-5.2 5.8-3 0-5.4-1.9-18-14.3l-6.8-6.8V91l-2.5 2.5c-2.3 2.3-4 2.7-7.7 1.7zm-23.1-3.7c-3.7-3.3-3.7-3.4-3.7-11.3 0-10.5.5-11 10.3-11.5 7.3-.3 7.8-.2 8.3 1.9 1.2 4.5.2 5.8-4.9 6.1l-4.7.3v8.4a27 27 0 01-.8 9c-.5.2-2.5-1-4.5-3zm68-3.2c-.4-.4-.7-3.1-.7-6V77l-14.7-.3-14.8-.3v-7h38v19l-3.5.3c-2 .2-3.9 0-4.3-.4zm-68 47.4c9-9 16.3-16.6 16.3-17a453 453 0 00-34-33.8c-3 0 .2 4.8 11 16a76 76 0 0111.7 14c-.2 1.3-4.7 1.5-32 1.8-29.6.2-31.8.4-31.5 2 .3 1.6 3 1.7 31.7 2.2 19.7.3 31.6.9 31.8 1.5.2.6-3.6 5.1-8.4 10.1-4.9 5-10.5 11-12.6 13.3-3.6 4-4 6.1-1.4 6.1.6 0 8.5-7.3 17.4-16.2zm247.3 41.7c-19-2.7-27.8-9.7-33-26.6-2.8-9.5 1.3-22.1 10-30.2A61.9 61.9 0 01316 109c.8 0 2.2-.4 3.2-.9a211.4 211.4 0 0128.2-8.1c10.8-2.4 24.3-7.1 27.7-9.7 1.9-1.4 4.3-4.3 5.4-6.4 5.3-10.4-1-20-15.3-23.9-8.4-2.2-36.8.2-46.3 4-6.4 2.5-12.6 4-13.5 3.5-1.1-.7-.8-6 .7-12.4 1-4.2 1.8-4.4 23.3-8.3 9.1-1.6 35.7-2.1 43.5-.8 18.6 3.2 28.3 9.6 32 21.4 1.9 6 1.9 3.7-.4 52.6-2.2 45.1-2.3 46.3-4.3 49.3-3.1 4.4-7 5.8-14.6 5.5l-6.7-.3.1-6.5a962 962 0 012.5-47.5c.6-7.7 1-15 .8-16.4-.4-2.2-.6-2.3-1.9-1-2.2 2.1-9.5 6-11.4 6-.9 0-1.6.4-1.6 1 0 .5-1.3 1-3 1-1.6 0-3.2.4-3.5 1-.3.5-1.6 1-2.7 1-2.2 0-3.7.3-15 3.8-3.6 1.2-7 2.1-7.7 2.1-.6 0-4.5 1.6-8.5 3.5-9.6 4.5-16 11.4-17 18-1.4 9 1.8 15.3 10 20.1 4 2.3 6 2.8 14.3 3.2 8.4.4 13.1 0 26.8-2.4 3.3-.6 3.3-.6 3.3 3.4 0 2.3-.5 4.4-1 4.7-.6.3-1 1.7-1 3 0 3-1.6 4.1-7 4.4a90 90 0 00-9.4 1.2c-6.2 1.1-14.7 1-25.6-.6zm165.5.3c-8.4-1.2-18.3-4-24.4-7-6-3-14.5-11-19-17.7-5-7.5-5.7-9.3-8-18.3-2.4-8.9-2.9-29.4-1-37.5 1.3-5.7 6.8-21.2 8-22.7l5.4-7.2a42.5 42.5 0 0110.6-10.6 59.5 59.5 0 0123.7-10.4 116 116 0 0132.9-.4l7 2c16.8 5 27 16 31.8 34.4 1.8 6.7 2 21.8.4 25-3 5.7-1.5 5.5-50.8 5.6-25 0-45.8.3-46.3.6-1.5 1 0 12.9 2.4 20 5.8 16.7 16.4 25 36.5 28.5 6 1 8.8 1 17.5-.4 12.6-2 18-3.1 23.8-5 2.4-.9 4.7-1.4 5.2-1 1.2.7 1 6-.5 11.8-1.5 5.8-1.2 5.7-22.5 9.4a95.4 95.4 0 01-32.7.9zm46.5-87c0-3.7-.8-6.7-3.6-15-.4-1-1-1.8-1.5-1.8s-.9-.6-.9-1.3c0-2-5.9-7-11.5-9.6-4.1-2-6.6-2.5-14.5-2.5a40.3 40.3 0 00-26.1 7.2c-8.2 5.7-15.9 18-15.9 25.2 0 2 .6 2 37 2h37v-4.2zM714 177.5c-5.5-.8-11.6-1.8-13.5-2.3a55.7 55.7 0 01-16.2-7.3 69.6 69.6 0 01-15.4-17.6 108 108 0 01-5.6-12c-3-7.5-3.1-8.4-3.2-23.8-.1-16.6.2-18.6 5.1-31.5a54.3 54.3 0 0116.9-24c10.4-9.4 24.6-14 43.4-14 25.6 0 41.8 8.1 50.1 25.2 4.4 9 4.8 10.3 5.4 21.5.6 12.4-.5 17-4.6 19-2 1-13.9 1.3-47.1 1.4-24.5 0-45 .5-45.8 1-2 1.2.2 18 3.4 25.2 4 9 11.2 16 20.4 19.5 16.2 6.3 26.3 6.4 51.7.1 2.8-.7 5.5-1.5 6-1.9 1.5-1 3.5-.6 4.3.8.6.9-.6 11.3-1.8 15.9a26 26 0 01-9 2.3c-1.6 0-3.1.4-3.4.9-.5.7-6.4 1.4-24.6 2.5-3.6.3-11-.1-16.5-.9zm45-89.4c-1.1-12-6.7-20.4-16.5-25-4.8-2.1-7-2.5-16.1-2.5-5.8 0-11.7.4-13 1-16.9 7.6-22.8 13.8-27.3 28.8l-1.4 4.6h75.1l-.7-7zm96 89.7c-16.2-2.5-25.4-6.7-34.6-15.8a58.8 58.8 0 01-16.3-38 113.7 113.7 0 0111-52.8c4-6.9 13.2-15.4 20.4-18.9 12.1-5.8 15.5-6.5 35.5-7a72.8 72.8 0 0131.2 3.7c4.7 1.2 4.9 1.5 5.6 11.8.5 6.2.5 6.2-2.2 6.2a105.7 105.7 0 00-31-6 45.4 45.4 0 00-40.8 22.7c-3.8 7-5 11.4-5.8 21.7-.3 4.4-.7 8.2-.9 8.5a96 96 0 003.8 23.2c.9 1.8 1.6 3.9 1.6 4.6 0 .8 2.4 3.8 5.3 6.8a45.3 45.3 0 0020.7 11.4c5.4 1.5 25 1 32.5-.9 2.8-.6 6.8-1.2 9-1.3 3.7-.2 4 0 3.8 2.3-.2 2.5-1 7.4-1.8 11.6-.7 3.1-7 5-21.5 6.3a81.5 81.5 0 01-25.5-.1zm126-.3a67.7 67.7 0 01-27-9.5 64.8 64.8 0 01-14.5-14 59.3 59.3 0 01-7.5-14.6c-4.3-12.4-5-33-1.5-45.8a61 61 0 0117.8-31.3C956 55 961.9 52.1 981 46c1.7-.6 8.8-1 15.7-1 15.7 0 24.2 1.9 37 8.1a54 54 0 0122.6 24.1c.1.8.5 1.8 1 2.4.4.5 1.3 3 2 5.4l2.2 7.4c2.1 6.8.4 37-2.3 40a57.3 57.3 0 01-5 12.5 58.8 58.8 0 01-44.8 32.3 94.4 94.4 0 01-28.5.3zm30.5-18.8a41.4 41.4 0 0024-27.2l2.2-6.6c1.6-4.5 1.3-27.8-.4-33.5a41.4 41.4 0 00-10-18.5c-8-7.9-20.1-11.6-34.3-10.5a39.2 39.2 0 00-34.4 21c-1.2 2-2.1 4.5-2.1 5.4a5 5 0 01-.8 2.8c-3.4 4-5 31.2-2.3 40a39.7 39.7 0 0026.6 28.3 57.5 57.5 0 0031.5-1.2zM576.3 174c-.3-1 .1-13.5 2.1-62.5.7-15.4 1.3-35.4 1.4-44.5.2-9 .6-17 1-17.7.6-.9 3.9-1.3 10.7-1.3 11.4 0 11-.4 11 10.3 0 6.6.2 7 1.6 5.2 7.4-9.9 11.8-13.3 21.4-16.4 4.4-1.5 8.9-2 15-2 11.2 0 12.2.8 11.8 10.5-.4 8.4-2 9.8-9.6 8.1-5-1-15.7.5-19.6 2.7a42.9 42.9 0 00-19.5 26.1c-2 7.7-3.1 19.8-3.1 37.3-.1 18.4-1.7 35-3.9 39-.7 1.3-3.1 3.2-5.4 4.3-4.4 2-14.3 2.6-14.9 1z" fill="#4b4b4b"/></svg>