<svg xmlns="http://www.w3.org/2000/svg" height="35" width="143.3"><path d="M36 35l-4-.2c-17-.9-27.8-3.9-31-8.6-.7-1.1-1-2.1-1-3.5 0-5.8 7.4-10.8 21.7-14.8 4.5-1.3 11-2.7 16-3.5 1.4-.2 2-.4 3-1 .7-.3 1.4-.7 1.5-1l1.6-1.3 1.4-1h1.4C47.8 0 48 0 48.9.4l1 .5v.9c0 .5-.2 1.2-.3 1.4l-1.8 4.3c-.3.9-.7 1.6-1.1 1.8-.3.2-.4.2-.2.3.2.2.2.2 0 .7l-.3.8-.1.7-.2.7-.1.3-.3.3c0 .2-.2.3-.3.2-.2 0-1.1.3-1.1.5h.3c.7-.2.8.1.4 1.2-.6 1.7-.5 2 .3.8l1-1.1.4-.6.3-.2a56 56 0 018.8-9.3 4 4 0 013.8-1c1.4.3 1.6.5 1.6 1l-.1.5-.3.9a23.8 23.8 0 01-3.2 6.3c0 .1 0 .4-.3.7l-.3.8c0 .2 0 .4-.2.6-.4.3-.5.9-.2 1 .2.1.9-.2.9-.4l-.2-.1c-.2 0-.2 0-.2-.2h.3c.3.2.9-.2 1.9-1.2.6-.7 1.8-1.7 2.7-2.5.3-.3.6-.6.6-.9 0-.2.3-.5 1-.9.8-.5 1-.5 2-.5 1.6 0 2.6.4 2.8.9 0 .4-.6 2-1.2 2.7-.4.4-.5.7-1 2l-.4.9c-.2.1-1.5 2.9-1.6 3.3l-1 2.2c-1.3 2.4-1.4 2.9-1.3 3.6.1.3.2.3.4.3.3-.1.8.1.8.3 0 .2-1.8.3-2.7.1-1-.2-1.8-.6-2-1-.2-.5-.2-1 0-1.1a42.6 42.6 0 002.4-5.3c0-.2.2-.3.3-.4.2 0 .4-.4.6-1.2.4-1.3.4-1.3 0-1.3l-.3.4a58.7 58.7 0 00-7 7.6l-1.5 1.8c-.7.7-1.4 1.4-1.4 1.6a3 3 0 01-1 .8c-.7.4-1 .4-1.1.3l-.7-.2c-.5 0-1.5-.5-1.7-1-.2-.2-.1-.4.3-1a16.9 16.9 0 001.7-3c0-.1 0-.2.2-.2l.2-.2.2-.4c.1-.1.2-.3.1-.4 0-.2 0-.3.2-.4l.6-1 .8-1.1.7-1.3a198.2 198.2 0 013.9-8c0-.2-.2-.3-.4-.4-.2 0-.4 0-.6.4l-1.3 1.4c-.5.5-1.3 1.3-1.6 1.8l-1.1 1.2-.5.6c0 .2 0 .3-.2.4l-.6.9a7 7 0 01-.9 1l-1 1.2a672.7 672.7 0 01-4 5.6c-.6.9-.9 1.2-1 1.6l-.3.4c-.1 0-.2 0-.2.2l-.5.8-1.7 2.4c-.4.8-1.5 1.8-2 1.8-.6 0-2-.5-2.3-.8-.5-.5-.5-.7 0-1.6.3-.3.5-.8.5-1l.3-.7.6-1c0-.2.3-.4.3-.4l.2-.4.7-1.7.6-1.5.4-1a22910.2 22910.2 0 013.6-8.2 70.6 70.6 0 002-4.4v-.4l1.1-2.7c.7-1.3 1.1-2.4 1-2.5-.1-.3-.7-.2-1 .2l-.5.4c-.1 0-.3 0-.4.2h-.2l-.3.3c-.2.2-.3.2-.4.1 0-.1-.7.2-1.6.9-.7.5-1.3.7-4.3 1.2-9 1.5-17.5 3.5-23.4 5.7-2.6 1-6.5 2.9-8.3 4-4.3 3-6.3 6.7-4.9 9.6 2 4.3 8.9 7 21.9 8.3 11.6 1.3 24.6 1.5 40.7.7a299 299 0 0056.1-7 67 67 0 0013.8-4.8c3-1.5 5-2.7 6.4-4.2 2.6-2.6 2.7-5 .3-7.4C136.3 6 125 3 107.2 2c-10.9-.6-25-.6-36.6.1-5 .3-4.6.3-4.6-.3v-.5l3.3-.1a313.4 313.4 0 0144.6.3c16.5 1.6 26.6 5.1 29 10.1.4.8.4 1 .4 2.4 0 1.5 0 1.6-.5 2.6-3.8 7-22.6 13-51.5 16.1A444.8 444.8 0 0136 35zM24.6 24.6c-2-.4-2.9-1.3-2.9-3 0-2.5 1.5-4.9 3.6-5.8 2.3-1 5.7-1.1 6.8-.1.4.3.5.2.8-1 .3-1.5-.1-1.8-3.3-1.6-2.3 0-3 .2-4.3.8-.9.4-.9.4-1.1 0-.3-.2-.3-.2.7-2l1-2 3.7.1 4.5.2a4 4 0 012.6 1.3c.4.5.4.6.4 2 0 1.3 0 1.7-1.4 6.3l-1.4 4.9h-4.5l-5.2-.1zm4.7-2.6c.5-.1 1-.4 1.3-.6.5-.5.9-1.4.9-2.1 0-.9-.4-1-2-1-2.1.1-3.2 1-3.2 2.5 0 .8 0 .9.6 1.1.6.3 1.2.3 2.4 0zm40.3 2.5c-1.9-.4-2.6-1.3-2.6-3 0-2.4 1.5-4.8 3.5-5.7 2.4-1 5.8-1.1 7-.1.3.3.2.3.6-.6.3-1 .3-1.4-.1-1.7-.3-.3-.6-.3-2.7-.3-2.5 0-3.6.2-5 .9-.5.3-.6.3-.9 0-.2-.3-.2-.3.7-2l1-2c.3-.2 8.4 0 9.3.4 1.5.6 2 1.4 2 3 0 .9-.2 2-1.4 6.2l-1.5 5h-4.4c-3.4.1-4.8 0-5.5-.1zm5-2.5c1-.3 1.5-.7 2-1.5.3-.8.3-1.5-.1-2-.2-.2-.5-.2-1.3-.2-2.4 0-3.7 1-3.6 2.7 0 .6 0 .7.6 1 .6.2 1.2.2 2.4 0zm7.3 1.9l3-10.3 2.6-9.3h4.2l-3 10.3L86 24.7H81.6l.3-.8zm9-4.2l-.1-7.4V10h4.1v5l.1 5.1 2.8-5 2.8-5h4.4l-4.2 7.4-4.1 7.2h-5.8v-5zm14.8 5l-1-.3c-1-.2-1.9-.8-2.2-1.6-.4-1-.2-2.8.6-4.4 1.2-2.3 3.7-3.5 7-3.4 1.4 0 1.7.1 2.3.5l.7.4.2-.7.2-1.2c0-.8-.5-1-2.6-1-1.9 0-3.9.4-5 .9-.9.4-1 .4-1.2.1-.3-.2-.2-.3.7-2l1-2a48.5 48.5 0 019.4.5c.5.1 1 .5 1.2.7 1.2 1.3 1.2 1.9-.7 8.3l-1.5 5.2H105.7zm4.9-3c.8-.3 1.3-1 1.4-2.2 0-.7 0-.8-.3-1-.6-.4-2.7-.3-3.6.3-1 .6-1.5 1.8-1.2 2.7.3.7 2.3.9 3.7.3z" fill="#4b4b4b"/></svg>