<svg xmlns="http://www.w3.org/2000/svg" height="167.8" width="351.1"><path d="M157.5 167.2c-45-4-94.8-25.4-126.1-54.3l-9-8.3-2 4.8c-1.2 2.6-3.5 10.4-5.3 17.2-1.8 7-3.6 13-4 13.4-.4.5-3.2.3-6.1-.5-5.4-1.3-5.4-1.4-4.6-5.7a179.5 179.5 0 0134.5-73l4.9-5.8-1.2-8.5c-.7-4.8-1.3-12.8-1.5-17.8-.3-10.4 0-10.7 9-12 5.4-.8 5.9-.7 6.6 2 .4 1.6.8 6.6.8 11.2 0 4.5.4 8.6.8 9 .5.5 3-1.2 5.8-3.6 7.5-6.8 33.2-23 36.5-23 2.5 0-.7 3.2-9.2 9.2a221 221 0 00-21 17.4L55.6 49.4l2.2 10.5a266.2 266.2 0 0020.4 60.6l5.6 11.4 12 5.8c23.2 11 45.8 17.8 71.4 21.4 15 2 46.6 2.5 57 .7 6.9-1.1 10.5.4 5.5 2.3-11.1 4.2-50.4 7-72.1 5zM53 103.9c-1.8-4.7-4.7-13.8-6.5-20.4C42 67 42.4 68 40.8 69.5 40 70.2 37 75 34 80l-5.4 9.1 5.3 5.5A127 127 0 0055.8 113c.2-.3-1-4.4-2.7-9.1zM338 142a238.6 238.6 0 00-19.7-47.4c-18-30-46-56.6-74.6-71a37 37 0 01-10.3-6.3c0-1.8 1.6-1.6 9 1.3 52 20.5 91.6 64 106.5 116.7 3.3 12 3.3 12-5 13.7-3.8.9-3.8.8-6-7zm-189.6-18.7c-3-3.6-6-7.6-6.7-8.8-2.5-4-3.3-2.4-3 5.6l.3 7.8H123l-.2-22.8-.1-22.8H140l-.9 7.5c-.4 4-.3 7.5.2 7.4.6 0 3-2.4 5.2-5.3l6.5-8.2 2.5-3 5.3 4.8c5.9 5.2 6.8 6.7 5.2 7.9-.6.4-3.3 3.2-6 6.1l-5 5.3 6.7 6.8a34 34 0 016.2 7.2c-.3.2-3.2 2.8-6.3 5.8l-5.8 5.4-5.3-6.7zm74.4 2.8c-10.2-5-13.1-9.3-13.1-19.4 0-16.5 13.2-27.3 30.6-25.1 11.3 1.4 18.2 7.8 20 18.5 3.3 19.5-19 34.9-37.5 26zm17.3-12.4c2.5-2.7 3.9-9 2.8-13.2-1.7-6.9-8.5-9.2-13.2-4.5-3.3 3.3-3.5 14.3-.5 17.7 2.7 3 8.2 3 10.9 0zm38.3 13.4c-9-2.6-16.3-10.7-16.2-18.2a27 27 0 018.9-17.2 63.2 63.2 0 0120-10c3-.8 3.2-.5 4.7 6.2.9 3.9 1.4 7.2 1.2 7.4l-6 1.8c-15 4.4-14.8 16.7.3 17.2l6.5.2.4 7 .3 7h-7.8c-4.4-.2-9.9-.8-12.3-1.4zm-195-22.3V82.3h9.8c18.2 0 27.7 5 27.7 14.8 0 8.3-6.9 15.3-19 19.4-1.6.5-2.2 2-2.2 5.7v5H83.6v-22.4zm19.8-1.5c2.3-2.4 1.7-7-1-8.5-2.4-1.3-2.5-1-2.5 4.3 0 5.8.8 6.8 3.5 4.2zm76.5 8.4V96h-12.5V82.3h42.5V96h-14l.3 15.2.2 15.3-8.3.4-8.2.4v-15.7zm-52.5-38c-4.3-1.2-4.6-4.5-.8-9s5.1-10.5 4-18.2c-1.3-8.3-5-11.2-16.1-12.9-21.4-3.3-25.9-5-24.2-9.4.4-1 3-3 5.8-4.4 2.8-1.5 5.4-3.4 5.8-4.4.7-1.8 12.3-6.7 18-7.6a827 827 0 0013.7-2.4C141.9 4 145.4 3.8 151 5c9.2 1.9 9.2 1.9 20.5-1.2 5.4-1.4 13.3-3 17.5-3.4 26.5-2.7 46.1 15.6 39 36.5-2.8 8.2-2.6 9.5 2.5 16.1 6 8 5.6 12.5-1.4 16.5-5.7 3.3-12.2 3.4-12.8.1-.3-1.4 1.2-3 4.7-4.7 2.8-1.5 5.5-3.5 5.8-4.4.4-1-1-4.5-3.2-7.7-4.4-6.7-4.6-8-2-15.4a22 22 0 00-.5-18.7c-5.1-10-13.3-13.3-30-12.2-8.6.5-21.3 3.4-23.6 5.3-.3.2.4 1.7 1.5 3.3 2.3 3.2 2.7 7.3.8 7.3-.7 0-2-1.2-2.8-2.6-2.7-4.2-10-8.6-16.9-9.9-8.6-1.6-20.9.4-26.6 4.4-4.7 3.2-8 3.9-9.4 1.8-1.2-2-2.7-1.4-3.4 1.3-.4 1.3-1.6 2.5-2.7 2.5-1.2 0-4.4 1.2-7.3 2.7l-5.3 2.7 3.7 1 14.2 2.2c11.7 1.5 18 4.5 21 10.2 2.5 5 2.4 19.2-.1 25.3l-2 4.8 6.5-.3c4.2-.3 6.7.1 7 1.1 1 2.8-12.4 5.8-18.4 4.1z" fill="#4b4b4b"/></svg>