<svg xmlns="http://www.w3.org/2000/svg" height="86.2" width="120.5"><path d="M39.9 85.2c-1.4-.5-3-2-3.5-3.2-1.4-3-2.9-2.9-4 .5-.6 1.6-1.6 2.8-2.4 2.8-1.7 0-1.6-.5.6-7.8 1.5-4.9 2.3-6.2 3.8-6.2s1.6.3.9 2.3c-1.2 3 .3 3.8 2.1 1 3-4.5 12.6-5.6 14.7-1.5a8.3 8.3 0 01-1.5 10c-1.4 1.2-3 2.2-3.5 2.2-.6 0-1.9.2-3 .5-1 .2-2.9 0-4.2-.6zm8.7-4.7c2-2.4 2.1-4 .2-5.9-2.1-2.1-4.8-1.8-7.5.8-2.8 2.9-2.9 4.7-.2 6.6 2.4 1.7 5.2 1.1 7.5-1.5zm9.9 3c-1.6-1.5-2.6-3.5-2.6-5 0-2.8 3-6.1 6.5-7 1.3-.2 3-.9 3.5-1.4 1.9-1.4 7.8 3.7 7.8 6.7 0 3.2-2.8 6.3-6.5 7.1-1.6.4-2.9 1-2.9 1.5 0 1.7-3.3.6-5.8-1.9zm5-7.3c0-1.9-.3-2-2-1.2-1.8 1-2.5 4.6-1.2 6 1 1 3.1-2.2 3.1-4.8zm5.9 3.4c1-1.5 1.2-2.6.5-3.8-1.4-2.7-2.4-2-3.5 2-.7 3-.7 3.8.3 3.8.7 0 2-1 2.7-2zm11.3 6c-1-.3-2.4-1-3-1.4-1.6-1.3-1.5-7.4.2-9.8 1.8-2.5 7.3-4.5 10.3-3.7 7.5 1.9 6.7 11.7-1 14.7-2.5 1-3.4 1-6.5.2zm8.3-5.1c.9-1 1.6-2.5 1.6-3.2 0-1.8-2.7-4.2-4.6-4.2-2.7 0-6.7 3.7-6.7 6.2 0 4.4 6.3 5.2 9.7 1.2zM0 83.7l2.3-7c1.7-5.9 3-6.8 8.2-6.2 4 .5 3.9 2.5-.2 2.8-2.5.2-3.7.8-4 2-.1 1.1.4 1.6 2 1.6 4.4 0 5.8 3.4 2.6 6.5C8.3 86-.9 86.2.1 83.7zm8.6-3c0-2.1-3.7-1.8-4 .2-.3 1.4 0 1.7 1.8 1.5 1.2-.2 2.2-1 2.2-1.8zm6 3.6c0-2.1 4-13 4.8-13 1.8 0 2.2.5 2 2.3-.2 1.4.5 2.2 2.6 3 3.3 1.2 3.9 4.7 1.1 7.2-1.9 1.7-10.4 2.2-10.4.5zm8-3.6c0-2.2-2.1-2.2-3.3 0-1 1.8-.8 2 1.1 1.7 1.2-.2 2.2-1 2.2-1.7zm72.7 3.4c0-1.7 3.6-12.1 4.5-13 1-1.1 7.8.3 8.3 1.7.3.7.2 2.3 0 3.6-.5 1.8-1.6 2.6-4.8 3.4-3.1.8-4.2 1.6-4.7 3.3-.6 2.3-3.3 3.1-3.3 1zm9.4-8.6c0-.8-.9-1.4-2-1.4-1 0-1.8.6-1.8 1.4 0 .8.8 1.4 1.9 1.4 1 0 1.9-.6 1.9-1.4zm5.6 9.2c0-.4.6-2.9 1.4-5.4 1.3-4.2 1.3-4.8 0-5.5-2.5-1.4-.5-2.5 4.3-2.5 4.9 0 6 1.3 2.4 2.7-1.6.6-2.6 2.2-3.6 5.9-.9 3.1-2 5-3 5.3-.8.1-1.5 0-1.5-.5zM30 63.7c4.5-5 9.6-13.1 11.4-18 .8-2.2 1.4-7 1.5-10.6 0-13-8-23.7-24.1-32.2L13.2 0l4.7.6c7.7.9 26.6 5.9 33.9 8.9 13.6 5.7 21 13.2 21 21.6 0 11.1-18.3 27.8-38 34.5-8 2.8-8.7 2.5-4.7-1.9zM67 55c12.5-11.8 16-26.1 8.5-34.7l-2.7-3.1 3.7.8c2.1.5 6.5 2 9.9 3.3 18.4 7.4 12.8 20.6-14.7 34.6C66.2 58.6 61.4 61 61 61c-.3 0 2.3-2.7 5.9-6zm29.3-8.6c6.2-6.6 7.7-11.5 5.1-16.5-1.6-3.2-.4-3.4 3.9-.8 3.6 2.2 5.3 5.1 4.5 7.6-.7 2.3-7.5 8.3-12.8 11.1L93 50l3.3-3.7z" fill="#4b4b4b"/></svg>