<svg xmlns="http://www.w3.org/2000/svg" height="162.5" width="499.1"><path d="M228.6 162.2c-.2-.2-8-.7-17.2-1.1-15.5-.6-42.8-2.8-52.3-4.2l-22-3.4C66.6 142.6 15 119.6 3 93.8a29.4 29.4 0 010-25.6C15.4 43 60.7 22 128.7 10a673 673 0 0126-4.1C189 .9 250-1.3 288.1.8a1039 1039 0 0157 5.2c4.9.6 13.7 2 26.5 4 5.3 1 17 3.4 26 5.6 34.4 8.2 60.7 18.6 78.8 31.1 25 17.3 29.7 38.7 12.7 57.6-18.7 20.8-62.9 38.4-120.9 48.2l-20.6 3.3a848 848 0 01-46 4.7c-17.5 1.2-72.2 2.5-73 1.7zm81.5-7.7c38-3.7 61-7.3 92-14.5 12.8-3 42-13.2 52.8-18.4 20.6-10.1 35-22.7 37.8-33.4 1.5-5.4.8-13.2-1.5-18-9.3-19.5-49-39.6-99.5-50.4a4046 4046 0 01-13.6-3c-9.2-2-30-5-54.5-7.8-21.5-2.4-34.7-3-74-3a589.5 589.5 0 00-138.5 13 291.2 291.2 0 00-33 8.6c-39.3 12.3-64 27.7-71 44.2a27 27 0 001 20.3A60 60 0 0029 112.9c21 13.7 47.3 23 91.1 32.2 7 1.4 19.6 3.5 29 4.8a528 528 0 0042 4.6l18.5 1.4c9.4.8 90-.3 100.5-1.4zm-186-22.9a22.8 22.8 0 01-12.4-25.7A20 20 0 01124 90.4c4.4-2 13.8-2.5 18-1 2.4 1 2.5 1.4 2.5 8.6 0 4-.3 7.5-.7 7.4-.4 0-1.6-.6-2.7-1.5-1-.8-3.7-1.4-5.8-1.4-7.9 0-11.8 9-6.3 14.5 3 3 6.8 3.2 11.9.6l3.7-2-.3 8.2c-.2 7.7-.4 8.1-2.8 8.8-4.8 1.3-13.4.9-17.5-1zm26.5-20.6V89.5h15v29h16v14h-31V111zm36 0V89.5h16v43h-16V111zm21 20.7v-1.5a186051 186051 0 016.3-39.5c0-.9 2.4-1.2 8.3-1.2h8.2l2.2 7.2c1.3 4 2.5 8.7 2.8 10.5.7 4.6 1.9 4.9 2.6.6.3-2 1.5-6.9 2.7-11l2.2-7.3H259.2l1.7 11.2 2.3 14.3c3.5 19.1 4 17.5-5 17.5h-7.4l-.6-5.3-1.4-11.7-.8-6.5-1.7 6-3.5 11.5-1.7 5.5-4.5.3-4.6.3-3.4-11.6c-3.9-12.9-4.3-12.7-5.5 2.4l-.7 9H215c-4 0-7.4-.3-7.5-.7zm62 0c0-.4 3.4-10 7.4-21.2l7.4-20.5 9-.3 8.8-.3 3.3 9.8 7.2 20.8c2.1 6 4 11.3 4 11.8 0 .4-3.8.6-8.3.5-7.7-.3-8.3-.5-8.6-2.6-.3-2-.8-2.2-6.7-2.2-5.8 0-6.3.2-6.6 2.2-.3 2.1-1 2.3-8.6 2.6-4.5.1-8.3 0-8.3-.5zm26.6-16.1c-.3-.5-1.2-3.6-2-6.8L293 103l-1 5c-.6 2.7-1.4 5.8-1.8 6.7-.6 1.5 0 1.8 3 1.8 2 0 3.4-.4 3.1-1zm27.4 2.4v-14.5h-9v-14h33v14h-9v29h-15V118zm29-7V89.5h29v10.9l-6.7.3c-6 .2-6.8.5-6.8 2.3 0 1.7.8 2 6.3 2.3l6.3.3-.3 5.2-.3 5.2-6.2.3c-5.4.2-6.3.5-6.3 2.2 0 1.7 1 2 7.3 2.2l7.2.3.3 5.7.3 5.8h-30V111zM111 76.5a22 22 0 01-15.5-12C84.9 44 107.9 23.2 128.2 35c3.5 2 7.4 6.2 7.4 7.8 0 .3-2.7 1.5-6 2.7-5.8 2.2-6.3 2.2-9 .6-3.9-2.3-6.6-2-9.5.8-1.9 1.9-2.5 3.6-2.5 6.8 0 7.2 5 11.9 10.5 9.8 3.7-1.4 3.1-3-1-3h-3.5v-10h12c6.8 0 12.2.4 12.5 1 1.2 2-1.5 12.5-4.2 16.4-4.7 6.7-14.4 10.1-24 8.6zm33.7-5c0-4.6.3-5.1 3.2-6.6 2.7-1.4 4.7-1.5 11.8-.9 4.7.5 11.8.9 15.8 1h7.2v4.2c0 6-2 6.8-12.9 5.7-12.3-1.2-20.9-1-22.3.4-2.1 2.1-2.8 1.3-2.8-3.8zM191 54.2L191 33l7.5-.3 7.5-.3 6.5 10.8 6.5 10.8.3-10.8.3-10.8 7.2.3 7.2.3.3 21.2.3 21.3h-16l-6.3-10.8-6.3-10.7-.2 10.7-.3 10.8h-15l.3-21.3zm51.7-.2V32.4l14.3.3 14.2.3v11l-6.7.3c-5.9.2-6.8.5-6.8 2.2 0 1.6 1 2 6.3 2.2l6.2.3.3 5.2.3 5.3h-6.5c-6.3 0-6.6 0-6.6 2.5 0 2.4.2 2.5 7 2.5h7v11h-29V54zm36-.1V32.3l13.3.4c18.8.5 23 3.2 23 14.5 0 5.3-.2 5.9-3.7 9l-3.7 3.1 5 7.6c2.9 4.1 5.1 7.7 5.1 8 0 .3-3.8.6-8.4.6h-8.5l-3.5-6.8c-1.9-3.7-3.5-6.3-3.6-5.7v6.7l.2 5.8h-15.2V53.9zm20.1-2.5c4-2.1 1.5-8.4-3.2-7.7-1.8.2-2.2.9-2.1 4l.2 4.3c.1.8 3 .5 5.1-.6zm24 23.9L330 54l7.4-21H355.1l7.2 20.5c4 11.3 7.3 20.8 7.3 21.3 0 .4-3.7.6-8.2.5-7.7-.3-8.3-.5-8.6-2.6-.3-2-.8-2.2-6.7-2.2-5.8 0-6.3.2-6.6 2.2-.3 2.1-1 2.3-8.6 2.6a55 55 0 01-8.3 0zm27-15a66.4 66.4 0 00-4-12.6v2l-.8 2.8a57 57 0 00-1.6 5.2c-.7 2.6-.5 2.8 2.8 2.8 2 0 3.5-.1 3.5-.3zm25-6.3V32.5h14.9v30h16v13h-31V54zm-230 3.2c0-7 2-8.3 13.3-7.8l16.9.5h7.7v4.2c0 2.4-.6 4.6-1.5 5.4-1.8 1.5-8.7 1.5-18.7 0a25 25 0 00-16 1.5c-1.5.6-1.8 0-1.8-3.8zm0-15c0-3.8.4-5 2.3-6.2 3.7-2.4 8.7-2.9 16.8-1.5a38.9 38.9 0 0016.7.5c2-.6 2.1-.3 2.1 4.4 0 5 0 5-4 6-3 .9-6.3.8-13.5-.2-8.8-1.4-14.2-1.1-18.7.8-1.5.6-1.8 0-1.8-3.9z" fill="#4b4b4b"/></svg>