<svg xmlns="http://www.w3.org/2000/svg" height="74" width="296.8"><path d="M80.7 72.2c-6.9-3.4-7.5-5.4-8-24L72 31.5l-35-11-35-11L1 5C.2 2.6 0 .4.1.2.4-.1 66.6 16 85.8 21.1l3.7 1-2.4 3.6c-2.4 3.5-2.5 4.1-2.5 21.7 0 16.3.2 18.4 2 21.4 1 1.7 2.4 3.2 3 3.2.6 0 1 .5 1 1 0 1.6-6.2 1.1-10-.8zM208 71.1c3.9-4 4.2-6.5 3.6-26.5-.5-16.6-.6-17.6-2.8-20l-2.4-2.5 3.9-1C220 18.5 295.6 0 296.4 0c.6 0 .5 1.9-.2 4.7L295 9.4l-7.4 2.4L252 22.9l-28 8.8-.5 17c-.4 14-.8 17.2-2.3 19.5-2 3-8.2 5.8-12.9 5.8h-3.2zm-75.9-5c-4.4-1.1-7-2.7-9.8-6-8.4-10 0-25.1 14.2-25.1 10.4 0 18 7.8 16.9 17.5-1.1 9.8-11 16.1-21.3 13.6zm8.5-11.1c2.7-2.7 2.5-5.6-.5-8.6-5.5-5.5-12.5 1.9-8 8.4 2 2.8 5.9 2.9 8.5.2zm-48-4V36h12v9.5l3.1-4.7 3.1-4.8h12.8l-5 7-5 7 5 7.4c2.7 4 5 7.5 5 8 0 .3-2.9.6-6.4.6h-6.5l-2.8-5-2.8-5-.5 4.7-.5 4.8-5.7.3-5.8.3zm62.7 14.3c-.4-.3-.7-7-.7-15V36h10c12 0 14.6.9 16.6 5.6 1.8 4.4 1.2 7.9-2 10.7l-2.3 2 3.1 5 3.1 5 .3-14.1.3-14.2h20.9v8h-4.5c-3.8 0-4.5.3-4.5 2s.7 2 4 2c4 0 4 0 4 4s0 4-4 4h-3.9l-.3 4.8-.3 4.7-12 .3-12 .3-2.2-4.3-2.2-4.3V66h-5.4c-3 0-5.7-.3-6-.7zm15.3-18.8c0-1.8-.5-2.5-2-2.5s-2 .7-2 2.5.5 2.5 2 2.5 2-.7 2-2.5zM40.1 49.7c-21.3-6.8-29-9.6-29.3-10.9-.2-1.3 4.8 0 25 6.4 34.5 11 35.1 11.1 35.6 12.6.2.6-.2 1.2-1 1.2-.7 0-14.3-4.2-30.3-9.3zm185.5 7.8c0-.8 1.6-1.9 3.8-2.5 2-.5 15.6-4.8 30.2-9.3 23.2-7.4 29.6-8.7 26.4-5.7-.8.7-58.4 19-59.9 19-.3 0-.5-.7-.5-1.5zM39.6 44C16 36.4 9 33.9 8.8 32.5c-.3-1.4 0-1.6 1.5-1L41 41.1c16 5 29.4 9.5 30 10 3.6 3.2-4.8 1.3-31.5-7.2zm186 8c0-.5.4-1 .8-1.4a1289 1289 0 0162.1-19c1.5 1.4-5.2 4-31.4 12.3-16 5-29.6 9.1-30.3 9.1-.6 0-1.2-.4-1.2-1zM39.1 38.5C12.2 29.8 5.2 27 6.7 25.6c.5-.5 61.8 18.6 63.8 19.9 1.5.9 1.4 2.5-.1 2.5-.7 0-14.8-4.4-31.3-9.6zm186.5 8.2c0-.8 3.3-2.4 8.8-4.1 50.3-15.8 55.3-17.3 55-15.7-.2 1.1-4.4 3-13.8 5.8A8178.4 8178.4 0 00226.2 48c-.3 0-.6-.6-.6-1.4zm-187.5-14c-23.6-7.5-32-10.5-32.3-11.8-.2-1.3 3.2-.5 18 4.2l33 10.4c13.5 4.3 16.2 5.6 14 7-.4.2-15-4.2-32.7-9.8zm187.7 8.8c.3-1.7 4.3-3.1 48.6-16.8 13.9-4.3 17.3-5 17-3.8-.2 1.2-8.8 4.3-30.8 11.2l-32.8 10.4c-2 .6-2.3.5-2-1zM36 26.6C12.8 19.2 4.1 16 3.8 14.8c-.2-1.3 4-.3 20.5 5 39.4 12.3 46.7 14.7 47 16 .3.7-.3 1.2-1.4 1.1-1 0-16.2-4.7-33.8-10.3zm189.5 9c0-.8 11.3-4.8 32.8-11.5 18-5.6 33.3-10.1 34-10.1 2.9 0-.3 2.8-5 4.2l-32.8 10.2c-15.2 4.7-27.9 8.6-28.3 8.6-.4 0-.7-.6-.7-1.3z" fill="#4b4b4b"/></svg>