<svg xmlns="http://www.w3.org/2000/svg" height="942.7" width="1999.8"><path d="M434.8 941.7a473 473 0 01-244-91.4A503.2 503.2 0 0193 752.8a471.2 471.2 0 01114.2-672A463.8 463.8 0 01459.2.3c105.6-3 209 29.7 294.2 93.3a473.7 473.7 0 01185.9 318.3c5.4 44 4.5 92.5-2.5 136a478.6 478.6 0 01-56.4 158.5 528.3 528.3 0 01-51.8 73 471.2 471.2 0 01-322.7 162.5 703 703 0 01-71 0zm79-77.4a395.2 395.2 0 00345.4-320.5c4.1-22.2 5.7-39.1 6.3-65.7l.6-25.3-140.9.3-140.9.2-.3 18.3-.2 18.2 122.2.3 122.3.2-.3 6.5c-2 41.8-14.8 89.7-35.2 131.5a342 342 0 01-66.8 94 357 357 0 01-211.2 104.2 505.5 505.5 0 01-87.2 0 358.3 358.3 0 01-311.4-309.7c-2.3-15.9-2.6-72-.6-87 9.2-66.6 31-121.3 68-171A356.1 356.1 0 01402 120.4c21.8-4.3 36.3-5.7 63.2-6.3l25.7-.5V76.5l-25.2.6c-32.2.8-53 3.2-80.8 9.4a396 396 0 00-301 309.3c-8 40.6-9.2 91.1-3 133.5a391.6 391.6 0 00111.4 221 394.2 394.2 0 00258.1 116c12.1.7 49.4-.4 63.5-2zm70-205v-18.5h-93l-.2-188.2-.3-188.3-18.7-.2-18.8-.3v414h131v-18.5zm-248-284.1a56.4 56.4 0 10-29.9-108.8 56.4 56.4 0 0029.9 108.8zm1388 342c-76.5-11-132.9-62.5-158.4-144.4-16.7-53.7-19-124-5.6-178.5 10.4-42.7 28-75.8 55-103.8a189.2 189.2 0 0158.2-42.1c37.2-18 78.1-25.8 126.8-24.2 59 1.8 107 18.5 145.3 50.6 31.5 26.4 46 55.4 53.2 106l1.5 11.8c0 1-15.2 1.2-73 1.2H1854l-.6-3.7a89.7 89.7 0 00-9.2-25.7c-13-21.4-39.6-33.2-67-29.7-41.5 5.3-67.5 38.5-77 98.1a409.8 409.8 0 000 79.4c8 52.7 29.7 85.7 64.2 97.3 7.4 2.5 9.3 2.7 25 2.8 19.6 0 25.1-1 38-7.4 19-9.4 31.7-27.4 40-56.5 1.4-4.9 2.8-10.6 3.2-12.7l.6-3.9H1781.8v-99h218v274h-119v-46.3l-4.8 6.4c-20.4 27-53 44.5-93.3 50.4-13.2 2-45.4 1.9-58.9 0zm-545-245.9V235.8h139l.3 176.8.2 176.7 103.3.3 103.2.2v117h-346V471.3z" fill="#4b4b4b"/></svg>