<svg xmlns="http://www.w3.org/2000/svg" height="141.1" width="512"><path d="M0 140.3c-.4-.6 8.2-16.4 22.3-41l3.3-5.8h21c11.5-.1 23.6-.5 26.8-.8l5.8-.7L69 73.8c-17.2-30.3-15.7-27-13.7-31.5A376 376 0 0180.2 0c.7 0 7.1 10.2 14.2 22.7l13 22.8-3.2 5.6L91 74.3 81 92l5.4.7c3 .3 14.6.7 26 .8 11.4 0 21.2.4 21.8.8.6.4 3 4 5.2 7.8 6.2 10.5 21.6 38 21.6 38.6 0 .2-12.2.3-27 .1l-27.1-.2-13.1-23c-7.2-12.7-13.4-23-13.7-23-.5 0-7.4 11.7-20.6 34.8l-6.3 11.2-26.4.2c-14.6.2-26.7 0-26.9-.5zm181.3-22.5V94.6H211.6v7h-8c-4.3 0-9.3.3-11 .7-3 .6-3.2.9-3.2 5v4.4l10.4.3 10.3.2.3 3.8.4 3.8h-21.5l.3 6.4.3 6.3 11.4.3 11.4.2v8h-31.4v-23.2zm39 22.4c-.3-.5-.9-11-1.2-23.3l-.7-22.3h9.4v13.3c0 7.4.3 15.8.7 18.6l.6 5.2 10 .7 10 .7-.2 3.8-.3 3.7-13.9.2c-7.7.2-14 0-14.4-.6zm34.8-22.4V94.6h30.5l-.3 3.7-.3 3.8-11 .3-10.8.3v9l10.4.3 10.4.2.3 3.8.3 3.8h-21.4v12l11 .6 11 .7.7 3.1.6 4c0 .5-7 .9-15.7.9h-15.7v-23.3zm47 21.4c-7-4.4-9.8-10.4-9.8-22 0-8.9 1.4-12.8 6.2-18 3.8-4 7.4-5.7 13-5.7 5.8 0 10.5 2.7 13.4 7.4 2.9 4.7 2.6 6.5-1 7.3-2.8.6-3.7.2-6.6-3-7.5-8.2-16.7-1.5-16.7 12.2 0 8.8 4 15.6 9.2 15.6 3 0 9-4.4 9-6.6 0-.8.4-1.6.9-2 1.4-.8 8.2 1.7 8.2 3 0 .7-1.4 3.5-3.2 6.2-2.5 3.7-4.3 5.2-7.4 6.1-6 1.8-11.7 1.6-15.1-.5zm42.6.3c-.3-1-.6-9.5-.6-19.2v-17.6l-5.8-.3-5.8-.3-.3-3.8-.3-3.7h33.6l-.3 3.7-.3 3.8-5.9.3-5.8.3v12.4c0 6.8-.3 15.4-.6 19.1l-.7 6.9h-3.3c-2 0-3.5-.6-3.9-1.6zm26.4.9c-.4-.4-.7-10.9-.7-23.3V94.4l13.7.3 13.8.4 3 3.4c2.9 3.1 3 3.9 2.7 9.3-.5 6-3.4 11-6.5 11-2.5 0-2.6 2.3 0 5a81 81 0 019.7 16.6c0 .4-1.7.7-3.9.7-4.5 0-6-1.4-12.3-11.5-4.3-6.8-8.3-10-10.4-7.9-.5.6-1.2 5.1-1.5 10.2l-.5 9.2H375c-1.8 0-3.5-.3-4-.7zm23.4-32c.4-5-.6-5.7-8.7-5.7h-6.3v10.1l7.3-.3 7.4-.3.3-3.9zm17.4 9.4V94.6h8V141h-8v-23.3zm27.8 22.5a17 17 0 01-9.8-8.7 43.4 43.4 0 01-2-23.7c1.4-4.8 6-10.7 10.4-12.9 6.1-3.2 17-.7 21 4.8 3 4.2 3.2 5.7.8 7.4-3.2 2.2-4.5 1.9-8.2-2-4.1-4.4-8.6-4.8-12.2-1.2-7 7-4.9 26.6 3.1 28.6 3.6.9 9.1-2 10.8-5.8 1.4-3.3 1.4-3.3 5.7-1.8 2.9 1 3.2 1.5 2.6 3.8a19 19 0 01-9.2 10.9 24 24 0 01-13 .6zM181.3 59.6V35.8l6.3.3 6.2.3 3.5 14.5c2.3 9.6 3.7 14.1 4.3 13.2.5-.8 2.3-7.4 4-14.8l3.2-13.4h13v46.5h-8.1V66.6c0-8.7-.3-15.6-.5-15.4-.3.3-2.1 7.3-4 15.5a72 72 0 01-4.8 15.9c-2 1.2-5.5 1-6.8-.5-.6-.8-2.7-8-4.6-16l-3.5-14.5v15.9l-.1 16h-8V59.5zm48.8.3l.3-23.5 3.7-.3 3.8-.3v47.6h-8L230 60zm26.2 22.3c-.8-.8-1.2-6.7-1.2-19.7V44H243l.3-3.8.3-3.8h33.4l.3 3.8.3 3.8h-13.3v39.4H261c-1.8 0-3.9-.5-4.6-1.2zM289 82c-4-1.7-8.5-8.2-8.5-12 0-2.5.4-2.8 3.6-2.8 2.8 0 3.8.6 4.7 2.7 3.4 7.3 16 6.9 16-.6 0-2.7-.6-3.1-8.5-6.1-10.3-3.9-13.8-7.2-14.4-13.3-.9-8.3 5.5-14 15.5-14 6.2 0 11.4 2.7 13.9 7.3 2.6 4.7 1.6 6.9-3 6.9-2.8 0-3.8-.6-4.7-2.6-1.9-4-10-4.9-12.4-1.2-1.8 3 .6 5 8.8 7.9 4.2 1.4 8.4 3.2 9.3 4 7 5.8 5.5 19.3-2.6 23.5a26.4 26.4 0 01-17.7.3zm40.3-.2c-1.8-.9-4.3-3.2-5.5-5.2-2-3.3-2.2-5-2.2-21.9l-.1-18.3 4.2-.3 4.2-.3.3 17.8c.4 17.4.4 18 2.8 19.8 1.3 1 3.6 2 5.2 2 1.5 0 3.8-1 5.1-2 2.4-1.9 2.4-2.4 2.8-19.7l.3-17.8h9.3l-.7 18.7c-.7 20.1-1.4 23.2-6.3 26.4-3.7 2.5-15.2 3-19.4.8zm35.1-22V36h6.4c12.8.2 19.8 1.4 22.6 4.2 3.7 3.7 4.3 9.8 1.4 14.5l-2.2 3.6 3.1 3.5c2.3 2.6 3.1 4.6 3.1 7.4 0 4.9-2.8 10.5-6.2 12a73 73 0 01-15.4 2l-12.8.6V59.8zm23.5 13.4c2.3-1.2 2.4-5.7.2-8.1-1.4-1.5-3.2-1.9-8.6-1.9h-7v12.4l6.8-.7c3.7-.4 7.5-1.1 8.6-1.7zm-2.4-19.7c1.7-1.2 2.2-2.4 2-4.8-.3-3.6-2.3-4.4-10.2-4.6l-4.8-.1V55h5.4a15 15 0 007.6-1.6zm20.6 6.4l.3-23.5 3.8-.3 3.8-.3v47.6h-8.1L406 60zm24.1 22.4c-3.6-1.4-6-3.9-8.3-8.3-2.5-5-1.8-6.8 2.6-6.8 2.8 0 3.9.6 5.3 3 3.1 5.3 9.3 6.6 13.9 3 4.8-3.7 2.7-6.7-6.9-10-12-4-15.8-8.7-14.2-17 1.2-6.6 6.4-10.3 14.4-10.3 7 0 13.1 3.1 15 7.7 2 4.8 1.3 6.5-2.9 6.5-2.6 0-3.9-.8-5.6-3-1.8-2.5-3-3.1-6.1-3.1-2.6 0-4.5.7-5.7 2-1.7 1.9-1.7 2.2-.2 3.9 1 1 4.6 2.8 8.2 4 3.6 1.4 8.3 3.9 10.4 5.7 3.6 3.2 3.8 3.7 3.8 9 0 6.5-2.2 10.3-7.6 13a25 25 0 01-16.1.7zm32 .5c-.4-.4-.7-11.1-.7-23.9V35.8l4.3.3 4.3.3.3 8.9.3 8.8h16l.3-8.8.3-8.9 3.8-.3 3.8-.3v47.6h-8.1V63.2h-16.2V71c0 11-.5 12.4-4.5 12.4-1.8 0-3.5-.3-3.9-.6zm42-22.9l.3-23.5 3.8-.3 3.8-.3v47.6h-8.1L504 60z" fill="#4b4b4b"/></svg>