<svg xmlns="http://www.w3.org/2000/svg" height="129" width="404.1"><path d="M192.6 128.2c-1.2-.5-6.3-8.4-13-20.1a188.4 188.4 0 00-11.9-19.3c-.5 0-.8 8.6-.8 19.2v19.2H66.7L47.2 114a555.4 555.4 0 01-21-14.6c-2.2-2.1 0-2.8 11.6-3.5 5.8-.3 12.2-1 14.2-1.6C61.3 91.7 66 86 63.4 80c-2.5-6-11.3-8.3-29.2-8l-12.2.3-.2 27.5-.3 27.4H0V97.8C0 71.5.2 68.2 1.6 67c1.2-1 7-1.3 28.8-1.3 23.2 0 28.4.3 35 1.8 15.3 3.5 22.4 9.2 21.5 17.2C86 93 79.1 97 62.1 99.6c-2.2.3-4 .8-4 1.2 0 .7 30.1 20.5 32.5 21.4a2 2 0 002.3-.7c.4-.8.8-9.2.8-18.9V85l2.6-1.6c2.2-1.5 5.6-1.7 29.5-2l27-.3v6.6l-19.3.3c-21.9.3-22 .3-22 8v4h37.6v6.6h-37.8l.4 6.1c.3 4 .9 6.5 1.8 7 .7.5 11 1 22.7 1h21.3v-17.9c0-16 .2-18 1.7-19.5 3.2-3.2 15.8-3.6 23-1 3 1.2 5.6 4.9 13.2 18.4a63 63 0 006 9.6c.4 0 3.6-5.3 7.2-11.8 3.6-6.5 7.9-13 9.5-14.4 5.4-4.8 21-4.6 25.4.4 2 2.4 2.1 3 2.1 20.2 0 9.8.4 17.8.8 17.8s5.2-8.1 10.7-18c5.5-10 11-19.1 12.3-20.3 4.9-4.6 22-4.6 26.3 0a221 221 0 0112.3 20.3c5.6 10 10.6 17.9 11.2 17.7.6-.2 1-9.7 1.2-29l.3-28.8H339.4v62.8L320 127l-19.3-.3-3.4-6-3.5-6.2-15.6-.2-15.6-.3-3.6 6.6-3.5 6.6H227.8v-18.7c0-18.8-.5-21.6-3.3-18.7-.7.7-5.7 9.1-11.2 18.6-5.5 9.6-10.8 18.1-11.9 19-2 1.8-5.6 2-8.8.8zM286 98.8c-4.1-7.6-5-8.7-7.4-9-2.6-.2-3 .3-7.6 8.4-2.6 4.7-4.7 8.8-4.7 9 0 .2 5.4.3 12.1.3h12.2l-4.6-8.7zm73.3 16.6c-12.8-8.8-17-12.1-16.4-13.1.4-.7 7.8-5.8 16.4-11.2l15.7-9.8h6.1c3.4 0 6 .3 5.8.7-.3.4-5.8 4-12.3 8.2a90.5 90.5 0 00-11.8 8.2c0 .4 8.9 6.5 19.7 13.6l21.3 14c1.3.9-1.3 1-12.9 1l-14.5.1-17.1-11.7zm-182-60.6a290.3 290.3 0 01-23-21c.5-.3 11.4 2.8 24 6.6l23.2 7 23.2-7c12.7-3.8 23.5-6.9 24-6.7.7.2-46.5 42-47.3 41.9-.2 0-11-9.4-24.1-20.8zm6.2-18.8L167 31.2v-4.5c0-3 .4-4.5 1.1-4.5.7 0 8.5 2 17.4 4.6l16.2 4.6 16.1-4.6c9-2.5 16.7-4.6 17.4-4.6 1.4 0 1.6 8 .2 9-1.3.7-33 9.8-34.2 9.7-.5 0-8.4-2.3-17.6-4.9zm6.1-13l-9.6-3v-4.5c0-2.5.3-4.6.7-4.6.3 0 5.2 1.3 10.7 3l10.2 2.8 10-2.9c5.6-1.6 10.5-2.9 10.9-2.9.3 0 .6 2 .6 4.6V20L213 23c-5.7 1.6-11 3-12 2.9-1 0-6-1.4-11.3-3zm7-12.7L192.2 9V4.3c0-4.6 0-4.6 2.6-4 1.4.3 3.5 1 4.7 1.4 1.1.4 3 .4 4.2 0l4.7-1.4c2.5-.6 2.5-.6 2.5 4 0 2.6-.3 4.8-.7 4.8-.4 0-2.6.5-4.9 1.2-3.5 1-5 1-8.7 0z" fill="#4b4b4b"/></svg>