<svg xmlns="http://www.w3.org/2000/svg" height="143.8" width="551.2"><path d="M299.6 143c-14.7-2.5-21.6-8.8-22.7-20.8l-.5-5.3h27.1l.6 2.8c1.3 5.5 11.2 8.2 18.9 5 4.2-1.8 5.6-4.5 6.4-12 .6-6.6 0-8-2.3-5.3-4 4.8-21.2 6.1-30.8 2.4A31.4 31.4 0 01277.5 88l-1-4.3-24.5.2-24.4.3.3 3c.5 6.3 5.2 10 12.7 10 4 0 5-.4 8-3.3 2-1.9 3.7-4 4-4.8.3-1 2.2-.6 10.2 2.7 5.4 2.1 11.2 4.6 12.8 5.4l3 1.5-5.4 5.8a43.8 43.8 0 01-34.5 14.3c-22.1 0-37.3-11.9-41.3-32.3-1-4.8-1.3-5.5-1.8-3.6l-7.6 25.4-2.3 7.8h-30.1l-3.9-17.6a419 419 0 01-4.4-22c-.5-4.3-2-5.4-2-1.5 0 1.1-1.4 8.5-3 16.4l-4.2 19.6-1 5.1h-14.8c-13.2 0-14.8-.1-15.5-1.5-.5-.9-2.2-6.4-4-12.2a73.2 73.2 0 00-3.4-10.5c-.3 0-1.5 2.3-2.7 5.1-4.3 10-15.1 17.7-29 20.6-4.9 1-10 1.3-19.6 1-20.5-.7-32-5-43.1-15.8C.4 98.3-.6 96.8.3 96c.6-.6 6.2-4.4 12.5-8.5l11.4-7.3 1.8 2.4c5.3 7 12.1 10 24.4 10.7 7 .4 8.8.2 12.3-1.4 4.6-2 6-4.9 4.3-8.3-1.5-2.7-5.2-4-19.2-6.7-18.6-3.5-26.6-6.8-32.8-13.2a29.8 29.8 0 01-4.4-31.8 33.8 33.8 0 0115-15.8c21.3-10.8 56.7-6 71.4 9.7l2.5 2.7-7 5.7-6.9 5.8 14.8.4 14.7.5 2.5 11.7c1.4 6.4 3.5 17.2 4.6 23.8l2 12.2 1.6-10c.9-5.4 3-16 4.5-23.8l3-14h25.9l2.5 11.8c1.4 6.4 3.5 17 4.6 23.4l2 11.7 1.2-6.8c.7-3.7 2.6-14.2 4.5-23.4l3.2-16.6 14.4-.3c7.9-.1 14.8 0 15.4.2.9.3.8 1.4-.1 4.7-1.8 5.8-1.7 6 1.9 2.6 12.3-11.3 34.2-13.7 50.8-5.6a41.2 41.2 0 0115.7 16c1.8 4 2.3 4.5 2.8 3a31.1 31.1 0 0124.6-22c10.6-2 19.7-.5 25.8 4.2l4.1 3.1-.3-3-.3-3h26.1l.3 8.4.2 8.4 3.6-4.5c8.2-10.4 19.8-15.4 35.7-15.3 17.4 0 30.1 6 38.3 18 1.4 2.1 1.5 2 1.5-6.6v-8.8h28.9v9l3.5-3.3c5-5 11.3-7 21.2-7 13 .1 20.3 4.4 25 14.4 2 4.3 2 5.4 2.3 33.5l.3 29H488.2V93.1c0-14.8-.4-23.6-1-25-2.7-5.9-14.7-5.5-18.1.5-.8 1.4-1.2 8.7-1.5 24.7l-.3 22.7h-29.5V97.7L435 102c-7 10.6-21 16.8-38.2 16.8-16 0-29.5-6.2-36.6-17-1.5-2.3-1.5-2.2-1.6 4-.2 23.6-6.9 32.6-27 36.9-7 1.4-24.4 1.6-32 .4zm105-47.3c6.5-3.3 9-20.3 4.4-29.6-2.6-5.2-5.4-7-11.5-7-8 0-13 6.9-13.2 18.2-.2 16.1 8.7 24.2 20.3 18.4zm-81.4-5.4c3.6-2.2 4.9-6.2 4.9-14.2 0-8.4-.8-11-4-13.9-5-4.6-13.6-3-16.8 3.4-3.7 7.3-3 19.3 1.3 23.4 3.8 3.6 10 4.1 14.6 1.3zM248.8 66c0-2.8-2.7-6.5-5.9-8a9.9 9.9 0 00-10.6 1.2c-1.8 1.6-4.2 5.8-4.2 7.3 0 .6 3.7 1 10.3 1 8.8 0 10.4-.3 10.4-1.5zM88 53.3a166 166 0 01-2.7-9.5c-.7-3-1.3-3-3.5-.7-2.1 2.4-2.7 2.3-6.7-1.1a32 32 0 00-18.5-6.6C46.4 34.4 41 36.8 41 42c0 4 1.6 4.6 25.6 9.6a70 70 0 0123.1 8.5c.4 0-.4-3-1.6-6.8zM518 29c.4-7.2 1-10.8 2.3-13.9 3.9-8.5 12-13.6 24-14.8 5.5-.6 5.7-.5 6.3 1.6 1 4 .6 14.8-.8 19-3.6 10.5-15.7 17.7-29.5 17.7h-2.6l.4-9.6z" fill="#4b4b4b"/></svg>