<svg xmlns="http://www.w3.org/2000/svg" height="218.4" width="887.6"><path d="M163.6 217.5a90.4 90.4 0 01-50.6-27.4 87.4 87.4 0 01-23.6-55.8l-.6-8.7H0V0h205.3v44.9l11.5 5.6a86 86 0 0141.4 41c5.8 11.6 8 20.3 8.7 33.3a81.9 81.9 0 01-9.2 45.2 90.5 90.5 0 01-51.4 44.3c-12.2 3.8-29.7 5.1-42.7 3.2zm40.1-7.8c26-9 45.1-27.7 53.7-52.9A82.2 82.2 0 00244 78.7a96.4 96.4 0 00-21-19.2 99.3 99.3 0 00-31.4-11.7h-2.2l-.2-17.6-.3-17.5-85.7-.3c-47.2-.1-86 .1-86.3.5-.3.4-.4 23.4-.2 51l.2 50.5H95.2v15.2a65 65 0 005.8 32.6c7 17.4 23 34.3 40 42.5 14.2 6.8 20.9 8.1 40 7.7a59 59 0 0022.7-2.7zm-33-5.4c-9.7-1-23.5-5.8-31.7-10.9a87 87 0 01-24.7-24.7A74.6 74.6 0 11245.6 98l3.7 8c3.2 5.9 4.4 29.9 2 40.7-1.5 7.3-8 21-13.3 28.1a85.8 85.8 0 01-21.2 19 61.3 61.3 0 01-18.6 7.8c-1.2 0-2.4.4-2.7.8-.5.8-3.9 1.4-14.6 2.3-1.8.2-6.4 0-10.3-.4zm26-7.4a72.8 72.8 0 0046.5-41.6 69.2 69.2 0 00-37.4-88.7c-.2 0-.6 11.9-.7 26.4l-.3 26.5-2.1-6.2a63.3 63.3 0 00-15.4-22.8 52.6 52.6 0 00-44.1-9.4c-15.4 3.2-25.6 13.3-32.2 31.9-2.7 7.6-2.9 23.7-.5 33.4a69.4 69.4 0 0051.2 50.8l8.5 2c3.9.9 20-.5 26.5-2.3zM23.1 107.2a819 819 0 01-.6-44.5v-44h160.3v28l-9.6.4a84.4 84.4 0 00-66 39 99.8 99.8 0 00-9 20c-.6 1.6-3.2 1.7-37.5 1.7-20.3 0-37.2-.3-37.6-.6zm336 50.5L374 130l9-16.8-3.7-6.6-17-30.9c-7.4-13.3-13.4-24.3-13.4-24.6 0-.2 3.7-.4 8.3-.4h8.4l1.8 3 6.7 12.5c11.4 21.6 16.4 30.5 17 30.5.5 0 6-10.4 12.2-23l11.3-23h8c4.8 0 7.8.4 7.8 1s-3 7-6.9 14.3a19128.1 19128.1 0 00-26.8 51.8c-2 3.6-8.7 16.5-15 28.8l-11.5 22.3h-16.8l5.8-11zm-54.9-30.6c-13.6-4.3-24.6-16.4-26.3-28.9l-.6-4 7.2-1.5c5-1 7.3-1.1 7.6-.4l1.3 4.8c2.1 8.5 10 15.2 19.5 16.8 10 1.6 21.1-5.6 24-15.5 4-13.4-.7-21.7-16.6-29l-16.5-7.8c-17.2-8.2-24.1-20.4-20.3-35.4 2.7-10.5 9.2-17.3 20.7-21.7 8.4-3.2 21.4-3 28.7.3 8.5 4 18 13.6 16 16-.5.7-3.2 2.4-6 3.9l-5 2.6-4.7-4.6c-3.9-3.7-5.9-5-9.8-5.7-18.6-4-33.2 15-20.4 26.7 3.2 3 8 5.4 18.9 9.7 16.1 6.3 24.8 13 29 22.5 3 6.5 3.3 20.4.7 27.3a36.8 36.8 0 01-24.2 23.4 46.2 46.2 0 01-23.2.5zm141.1-.2a27 27 0 01-13.8-10c-3.4-4.4-2.8-5.7 3.6-8.5l5.8-2.5 3 3.6c4 4.6 7.8 6.2 13 5.5a10 10 0 009-10c0-4.9-1.7-6.5-13.2-12.6-13.5-7-16.6-9.5-19.2-15.3-4-9 1.6-22.2 11.3-26.6 5-2.3 14.7-2.3 19.8 0 3.7 1.7 11 9.1 10.5 10.7-.2.4-2.7 2.1-5.7 3.7l-5.4 3-3.2-3.1c-4-4-8.7-4.3-12.2-1-3 2.8-3 6.8 0 9.9 1.3 1.3 6.7 4.4 12 6.8 16.1 7.6 21 13.4 20.1 24.4-.7 10.4-5.1 16.7-14.8 21.1-6 2.8-14 3.2-20.6.9zm101.7.2a37 37 0 01-25.8-31.9c-1-7 .4-18.5 3-25.7a37 37 0 0119-18.8c5.7-2.1 18.6-2.9 24.5-1.4 14.7 3.6 25 18 25.2 35.4v5.8l-28.5.4-28.6.5.3 2.4c1.6 12.3 10.8 21.5 21.7 21.5 7.9 0 11.3-1.6 17.6-8l5.9-6.2 5.6 3c3 1.7 5.6 3.5 5.6 4.1 0 3.1-7.4 11-13.6 14.6A44.1 44.1 0 01547 127zm31-48.3c.7-1.2-1-5.5-4-9.7-6.5-9.4-21.9-10.5-31-2.2a21 21 0 00-5.8 10.9c0 1.8.5 1.9 20 1.9 11.3 0 20.4-.4 20.7-.9zm165 48a35.3 35.3 0 01-21.7-20.7c-2.4-5.7-2.7-7.3-2.7-18 0-10.4.3-12.3 2.3-16.8 6.5-14.7 17.8-22.7 32-22.8 9 0 14.9 2.3 21.5 8.4l5.6 5.2V50.6h15v75h-15v-10.5l-5.2 4.7a32 32 0 01-31.8 7zm21.2-12.6c15.1-4.5 21.6-28 11.8-42.7-7.5-11-25.3-13.2-34.8-4.2-5.5 5.3-7.5 10.1-8 19.6-.3 8-.1 9 2.5 14.6a22.9 22.9 0 0028.5 12.7zm-273-19V64.8l-3.5-.3-3.5-.3-.3-6.8-.2-6.8h7.5l.3-14.3.2-14.3 7.3-.2 7.2-.3.3 14.3.2 14.4 6.9.2 6.8.3-.3 6.8-.3 6.7-6.8.3-6.7.3v60.8h-15V95.2zm111.6-7V50.5h15v3.8c0 2 .4 3.7.8 3.7s2-1.2 3.4-2.7c9.2-9.7 27-8.8 35 1.5 1.2 1.7 2.7 3.1 3.1 3.1.5 0 2.2-1.5 3.7-3.2 1.6-1.8 5.2-4.4 8-5.8 4.5-2.2 5.9-2.4 13.4-2.1 7.6.3 8.8.6 12.4 3.2 5 3.4 9 10.7 10.2 18.7.5 3 1 16.7 1 30.2v24.6h-14.9l-.3-26.5c-.3-24.3-.5-26.7-2.2-30.1-2.7-5.4-5.8-7.3-11.6-7.3-6.5 0-10.2 2.4-13.2 8.1-2.3 4.6-2.4 5.1-2.9 30l-.4 25.4-7.2.2-7.2.3-.3-26c-.5-28.7-1-32.1-6.4-36-3.2-2.2-11-2.5-15-.4-7.5 3.8-9.3 12-9.4 41v21.3h-15V88.1zm206.3 0V50.5h15v75h-15V88.1zm30.9 0V50.6h14v3c0 1.7.3 4 .6 5.2.6 1.9.8 1.8 3.5-1.8 4.3-5.6 9.9-8.2 17.3-8.2 5 0 9.9 1.3 12.2 3.2.4.4-5.6 11.7-6.4 12.3-.5.3-1.8 0-3-.6a20.6 20.6 0 00-14.6.6c-7.8 5.1-8.9 9.7-9.2 37.9l-.3 23-7 .2-7.1.3V88.2zm-28.7-63.7c-10.1-6.4-1.6-22.2 9.4-17.6a9.8 9.8 0 013.6 15.6 10.1 10.1 0 01-13 2z" fill="#4b4b4b"/></svg>