<svg xmlns="http://www.w3.org/2000/svg" width="880.7" height="194.7"><path d="M90.7 192.6c-24.6-8.1-63.5-38.9-79.6-62.9-15.3-23-14.9-37.6 2-63C29 42.6 66.7 11 89.8 2.4c9.6-3.6 24.3-3 33.2 1.3 18.5 9 32.6 35.8 36.8 70 .8 5.8 1.4 13.5 1.4 17.2v6.5l-5.8-5.5c-8-7.6-17.6-12.4-35-17.4-8.2-2.3-17-5.1-19.6-6.2a148.5 148.5 0 01-33.2-24.1A66 66 0 0056.7 35c-2.6 0-4.3 3-4.3 8 0 9.3 8.5 23.2 25 41l7.7 8.4-9.2-3.8c-5-2.1-9.7-4.4-10.3-5-2.1-2-7-1.3-7.1 1-.7 10.2 9 21 30.2 33.7 5.1 3.1 8 5.4 6.2 5-8.6-1.8-17.2-2.3-18-1-.5.8.1 3.6 1.3 6.1 3.3 6.7 13.7 13.3 28.6 18.1 11.4 3.7 12.1 4.1 8.1 4.7-5.7.8-6.2 4-1.5 8.7 4.3 4.3 14 7.4 24.8 7.9l7.7.3-2 3.6a56.8 56.8 0 01-21 19.2 46 46 0 01-32.2 1.7zm242.1-45.7c-12.6-2.9-20.1-8-24.2-16.5-7.6-15.7 4.7-40.8 25-51a63 63 0 0135-7.6c15.2 0 16 .2 24 4.1 6 3 9.2 5.5 11.2 8.6 3.2 5.2 4.4 14.1 2.7 20.4l-1.1 4.3h-39.3l-39.3.1-1 6a21.1 21.1 0 007 20.3c4.8 3.6 16.6 6.9 24.6 6.9 7.4 0 19.2-3 28.1-6.9l7.6-3.1c.2 0-.1 1.6-.8 3.6-1.4 3.9-5.3 5.8-19.3 9.5a109.8 109.8 0 01-40.2 1.3zm57.5-48.6c1.4-10-2.6-17.6-10.8-20.7a48 48 0 00-25.8 1 50.3 50.3 0 00-11.1 6.2c-4.9 3.9-12.7 14.6-12.7 17.5 0 1 8 1.4 29.8 1.4h29.9l.7-5.4zM530 147a13.4 13.4 0 01-8-14.6c.3-2.4 3.7-15.4 7.5-28.8 3.7-13.4 6.8-24.8 6.8-25.3s-2.9-1-6.3-1c-5.4 0-6.2-.3-6.2-2.4 0-2 1-2.5 7.1-2.8l7.2-.4 2.2-7.6c2.1-7 2.7-7.7 7-9 7.5-2.2 14-3 14-2 0 .7-1.2 4.8-2.5 9.3a99.6 99.6 0 00-2.5 9c0 .5 5.2 1 11.7 1 11 0 11.7.1 11.1 2.4-.5 2.2-1.9 2.5-12.6 2.8-11.5.4-12 .5-12.9 3.5-3.6 12.1-12.3 44-13 47.9-2 10.3 4.6 15.7 17 14.1 5-.7 6-.5 5.4 1-1 2.5-4.4 3.3-17.4 4-7.5.3-12.7 0-15.6-1.1zm65.3.3c-7-1.4-16.4-5.6-20-9-6-5.5-8.2-11.8-7.5-21.5 1.8-27.5 30-47 66-45.4 25.2 1.2 37.6 13 33.5 32.3l-1.2 5.7-39.1-.5-39.1-.5-.8 4c-1.6 7.6-1 13.3 2 17.6 9.5 14 33.1 16.3 57 5.4 3.7-1.7 7-2.8 7.3-2.6.2.3.1 2-.3 3.7-.7 2.7-2.4 3.7-10.4 6.4a96.7 96.7 0 01-47.4 4.4zm55.5-46.9c.4-1.7.5-6 .2-9.4-1.1-11.3-8.3-15.6-24.6-14.6-7.6.4-11 1.3-16.3 4.1a48.4 48.4 0 00-18.7 19.4l-1.3 3.7H650l.8-3.2zm150.6 46.8c-14.2-4.1-17.3-15.8-7.2-26.8 6.8-7.3 14.7-10 38.9-13.2 21.7-2.8 26.2-4 28.8-7.7 3-4.3 2.4-13-1.1-16.5-8.3-8.2-32.9-7-45.1 2.4-5.4 4-6 4-5-.2 1.4-5.4 2.7-6.3 13.5-9.9a65.6 65.6 0 0125.2-3.4c16.8-.2 24.5 1.8 28.6 7.5 4.4 6 4 12-3 36.6a166.6 166.6 0 00-5.7 24.7c.4 1 2.6 1.7 5.7 1.7 5 0 6.8 1.8 2.8 3-11.7 3.1-23.4 1.4-25.4-3.8-.7-1.9-1.8-3-2.7-2.6-20.9 9.3-35.8 11.8-48.3 8.2zm33.2-6.7c10.4-3.1 17.6-7.7 19-12.3 3.5-11.4 5.2-18.7 4.5-19.4-1-1-29.3 3.2-35.7 5.5-11.2 4-17.7 12.5-15 19.8 2.9 7.5 14.4 10.2 27.2 6.4zm-597.7-.3a1502.3 1502.3 0 00-20.6-67c0-.5 4.3-.8 9.7-.8h9.7l1.5 8.6c1.3 7.4 13.5 50 14.7 51.2 1.4 1.4 14.5-12.7 34.2-36.7l14.7-17.8c4-5 4.8-5.3 10.5-5.3 3.4 0 6.2.3 6.2.8s-3.8 4.8-8.4 9.7a988 988 0 00-48.4 54.2l-8.4 10.3h-13.4l-2-7.2zm170 4.7c2.5-8 19.3-69.7 19.3-71 0-1 2.8-1.5 9.6-1.5 7.7 0 9.3.3 8.8 1.8-.4 1-1 3.8-1.6 6.3l-.8 4.5 5.8-4c10.5-7 18.4-9.2 34.5-9.2 12.6 0 15 .3 19.7 2.8 6.3 3.4 9 8.2 9 16 0 5.6-12.8 53.8-14.8 55.9-.6.5-4.7.8-9.1.6l-8.1-.4 6-21.2c9.1-32 9.2-39.5.8-44-6.3-3.3-22.3-3-30.4.7-12.7 5.7-15.9 11-24.7 41.4l-6.7 23.1-9 .4c-8.8.4-9.1.3-8.3-2.2zm260.6 2l8-28.6c4.5-15.7 9-32.5 10.3-37.2l2.3-8.7h9.2c8.3 0 9.1.2 8.4 2.2-.5 1.2-1.2 4.1-1.6 6.5l-.8 4.3 3.7-2.3 8.2-5.4c2.5-1.7 7.2-3.8 10.5-4.8 5.8-1.7 16.8-2.5 16.8-1.1a56 56 0 01-3.2 7c-2.8 5.4-3.5 6-6 5.2-1.4-.6-5.9-1-9.8-1-8.2.2-17.3 5-21.7 11.5a399 399 0 00-15.6 51.3c0 1-2.8 1.5-9.3 1.4-5.2 0-9.4-.1-9.4-.2zm62.5-1.2c0-1.3 16-59.7 19.5-71.1.6-1.9 2.2-2.2 9.3-2.2 4.8 0 8.7.4 8.7 1l-1.3 5.7c-.8 2.6-1 5-.7 5.4.4.4 2.5-.7 4.8-2.4 8.3-6.3 17.5-10 26.3-10.7l8.5-.6-3.4 7c-2.6 5.3-4 7-5.4 6.3-4-1.7-12.2-2-17.3-.5a34.2 34.2 0 00-17 13.7c-1 1.7-4.7 13.7-8.3 26.6l-6.6 23.5h-8.5c-6.4 0-8.6-.5-8.6-1.7z" fill="#4b4b4b"/></svg>