<svg xmlns="http://www.w3.org/2000/svg" height="30.3" width="83.1"><path d="M9.8 30.1a1 1 0 01-.2-.6c0-.3 1-.4 4.6-.4 4.5 0 4.6 0 4.5.6-.2.6-.5.6-4.5.6-2.3 0-4.3 0-4.4-.2zm20.8-.4c0-.6.2-.6 4-.6 3.9 0 4 0 4 .6s-.1.6-4 .6c-3.8 0-4 0-4-.6zm17.6.4l-.2-.6c0-.3.9-.4 4.8-.3 4.4 0 5 .1 5 .6.1.5-.3.5-4.7.5-2.6 0-4.8 0-5-.2zm18.7-.4c0-.6.2-.6 4-.6 3.9 0 4 0 4 .6s-.1.6-4 .6c-3.8 0-4 0-4-.6zM9.2 28a1 1 0 01-.2-.6c0-.3 1-.4 5-.4 2.8 0 5.1.1 5.2.2.1 0 .2.4 0 .6 0 .3-1 .4-5 .4-2.6 0-5 0-5-.2zm21.5 0c-.4-.8.4-1 4.1-1 3.6 0 3.9 0 3.8.5 0 .5-.5.6-3.9.7-2.4 0-3.9 0-4-.3zm16.5-.3l-.1-.5 4.5-.2c4.4 0 5.6.2 5.2 1-.1.1-2.2.2-4.8.2-3.9 0-4.6 0-4.8-.5zM67 28c-.4-.7.5-.9 4-.8 3.2 0 3.8.1 3.8.5s-.6.5-3.8.6c-2.5 0-3.9 0-4-.3zM8.3 25.5C8 25 8.3 25 14 25c5.6 0 6 0 6 .5-.2.5-.7.6-6 .6-5.5.1-5.7.1-5.8-.5zm22.3 0c0-.6.2-.6 4-.6 3.9 0 4 0 4 .6s-.1.6-4 .6c-3.8 0-4 0-4-.6zm15.7.1a3 3 0 01-.1-.6h9.3l.1.6c.2.5-.3.5-4.4.5-4 0-4.7 0-4.9-.5zm20.6 0c0-.7.2-.7 4-.7 3.9 0 4 0 4 .6s-.1.6-4 .6c-3.8 0-4 0-4-.6zM7.5 23l-.2-.7c-.2-.4.5-.5 6.7-.5 4 0 7 .1 7 .3 0 1.2-.2 1.2-7 1.2a37 37 0 01-6.5-.3zm23.1-.4c.1-.6.2-.6 4.4-.7l4.3-.1-.4.8c-.3.7-.3.7-4.4.7-4 0-4 0-3.9-.7zm14.5.2c-.3-1-.1-1 4.3-1 4.1.2 4.4.2 4.8.8l.4.7H50c-4 0-4.7 0-4.9-.5zm21.8-.2c.1-.6.2-.6 4-.6s4 0 4 .6c.1.7 0 .7-4 .7s-4 0-4-.7zM6.6 20.1c-.8-1.4-.6-1.5 3.2-1.5h3.6l.3.9c.2.5.2 1 .1 1 0 .1-1.7.2-3.5.2-3 0-3.4 0-3.7-.6zm8 0c0-1.4.2-1.5 3.8-1.5 1.9 0 3.4.1 3.5.2v1l-.4 1h-3.4c-3.2 0-3.4-.1-3.4-.7zm16 .2v-1c.1-.5.6-.5 5.7-.6 3.1 0 5.7 0 5.7.2 0 0-.4.6-.9 1-.8.8-.8.8-5.5.8-3.9 0-4.8 0-5-.4zm13.2-.5l-.3-1c0-.1 1.9-.2 4.3-.2H52l.3.8.4 1c0 .2-1.8.3-4.4.3h-4.3zm23.2.5v-1c0-.5.4-.5 4-.5h3.8v1.8H71c-3.2.1-3.9 0-4-.3zM5.4 16.7l-.2-1c-.2-.3.3-.4 3.6-.4h3.7l.3 1 .3.8H9.3c-3.2 0-4 0-4-.4zm10.2 0c0-1.3.2-1.4 4-1.4 3.5 0 3.5 0 3.4.7a6 6 0 00-.2.9c0 .1-1.7.2-3.6.2-3 0-3.6 0-3.6-.4zm15-.5v-.9H50.3l.3.8.4.9-10.2.1H30.6zm36.3 0v-.9h8v1.8h-8zM4.2 12.8l-.5-1.3-.2-.7h7.8l.3 1.1.2 1.2c0 .1-1.7.2-3.7.2-3.5 0-3.7 0-4-.5zm26.5.3V11l9-.1c5.7 0 8.8 0 8.7.2 0 .2 0 .7.3 1.2l.5 1h-8.7l-9.2.1c-.2.1-.5 0-.6-.3zm40 .2l-3.9-.1.1-1.1.1-1.1 4-.1 4-.1V12c0 .6-.1 1.2-.3 1.3h-4zm-54.1-.6c.5-2 .1-1.9 4.2-1.9 2 0 3.8.1 3.8.3l-.4 1.2-.3 1h-3.7c-3.5 0-3.8-.1-3.6-.6zM2.7 8.2l-.4-1.4L2 6h8l.2.8.4 1.4c0 .5-.2.5-3.8.5-3.4 0-4 0-4.2-.5zm15 0c.2-.3.3-.9.4-1.4l.2-.8h3.9c2.1 0 3.9.1 3.9.2l-.4 1.4-.3 1.1h-3.9c-3.5 0-3.9 0-3.7-.5zm13-.8V6.2l4-.1 4-.1v2.7h-8.1zM41 8.5c0-.1.3-.7.8-1.3l.7-1.2h5c2.7 0 4.9 0 4.9.2l-1 1.3-1 1.2h-4.7c-2.6 0-4.7 0-4.7-.2zM67 8.1c-.2-.5-.5-.6-4.2-.6h-4V6H83v1.5h-4c-4 0-4.1 0-4.1.6s-.2.6-4 .6c-3.6 0-3.9 0-4-.6zM.6 1.8L0 0h4.2l4.3.2.4 1.5.4 1.7c0 .1-1.8.2-4 .2h-4zm18.7.7c.5-2.6.3-2.5 4.8-2.5h4l-.3 1-.6 1.8-.3.8H19zm11.3-.7V0h8v3.6h-8zm14.5 1L46.4 1l.8-1h5.2l5.2.2-1.4 1.7-1.4 1.7H44.6zm13.7-1V0H83v3.6H58.8z" fill="#4b4b4b"/></svg>