<svg xmlns="http://www.w3.org/2000/svg" height="66.9" width="173.7"><path d="M0 33.5V0h173.7v66.9H0V33.4zm172.5 0V1.2H1.2v64.5h171.3V33.4zm-37.7 19.7a23 23 0 01-11.4-6.3 18 18 0 01-5.4-12.3c-.2-4 .2-6.1 1.9-9.7 2.6-5.3 7.8-9.5 14.1-11.1 3.3-1 9-1 12.2 0A21.9 21.9 0 01162 29.6a23 23 0 01-.7 10c-2.5 7-8.6 12-16 13.6-2.7.6-8 .6-10.5 0zm7.7-10.4c7.7-1.8 10.5-10.7 5.1-16-6.1-6.1-16.8-2.4-17.3 6-.2 2.9.6 5.2 2.6 7.1a9.1 9.1 0 004.9 2.8c2 .6 2.7.6 4.7 0zM17.6 33.5l-6.2-18.9c0-.1 2.8-.2 6.2-.1h6.2l3 9.6 3 9.7 3-9.6 3-9.6 5.8-.1 5.7-.1 1 3c4.4 13.8 5.2 16.2 5.3 16L59 16l.4-1.6h6c4.7 0 6 0 6 .4-.2.2-2.8 8.7-6 18.9l-5.8 18.5h-5.7l-5.7-.1-3.4-10-3.5-10.2L38 42l-3.3 10.2H23.8l-6.2-18.7zm50.6 18.3l6.1-19 6-18.3 6.2-.2H93l-6 18.9L80.8 52l-6.4.1c-5.6.1-6.3 0-6.2-.3zm20.6.3L95 33.3l6-18.8h6.1c4.6 0 6.1 0 6.1.2l-8.6 27.5c-.2.4 1 .4 6.6.3 4.5 0 6.8 0 6.7.3l-1.4 4.8-1.3 4.6H88.9z" fill="#4b4b4b"/></svg>